<svg width="168" height="85" viewBox="0 0 168 85" fill="none" xmlns="http://www.w3.org/2000/svg">
<g filter="url(#filter0_dd_34_2912)">
<rect x="18" y="18" width="131.95" height="48.19" rx="9" fill="#E8E8E8" shape-rendering="crispEdges"/>
<rect x="18.5" y="18.5" width="130.95" height="47.19" rx="8.5" stroke="#E8E8E8" shape-rendering="crispEdges"/>
<path d="M62.1254 47.2101V48.59H55.349V47.2101H62.1254ZM55.6918 35.7932V48.59H53.9955V35.7932H55.6918ZM61.2289 41.2951V42.675H55.349V41.2951H61.2289ZM62.0375 35.7932V37.1818H55.349V35.7932H62.0375ZM65.6058 41.1105V48.59H63.9798V39.0803H65.5179L65.6058 41.1105ZM65.2191 43.4748L64.5423 43.4484C64.5482 42.798 64.6449 42.1974 64.8324 41.6467C65.0199 41.09 65.2836 40.6066 65.6234 40.1965C65.9632 39.7863 66.3675 39.4699 66.8363 39.2473C67.3109 39.0187 67.8353 38.9045 68.4095 38.9045C68.8783 38.9045 69.3002 38.9689 69.6752 39.0978C70.0502 39.2209 70.3695 39.4201 70.6332 39.6955C70.9027 39.9709 71.1078 40.3283 71.2484 40.7678C71.389 41.2014 71.4593 41.7316 71.4593 42.3586V48.59H69.8246V42.341C69.8246 41.843 69.7513 41.4445 69.6048 41.1457C69.4584 40.841 69.2445 40.6213 68.9632 40.4865C68.682 40.3459 68.3363 40.2756 67.9261 40.2756C67.5218 40.2756 67.1527 40.3605 66.8187 40.5305C66.4906 40.7004 66.2064 40.9348 65.9662 41.2336C65.7318 41.5324 65.5472 41.8752 65.4125 42.2619C65.2836 42.6428 65.2191 43.0471 65.2191 43.4748ZM76.8207 47.1223L79.4222 39.0803H81.0834L77.6644 48.59H76.5746L76.8207 47.1223ZM74.6498 39.0803L77.3304 47.1662L77.515 48.59H76.4252L72.9798 39.0803H74.6498ZM82.0765 43.9406V43.7385C82.0765 43.0529 82.1761 42.4172 82.3754 41.8312C82.5746 41.2394 82.8617 40.7267 83.2367 40.2932C83.6117 39.8537 84.0658 39.5139 84.599 39.2736C85.1322 39.0275 85.7298 38.9045 86.392 38.9045C87.0599 38.9045 87.6605 39.0275 88.1937 39.2736C88.7328 39.5139 89.1898 39.8537 89.5648 40.2932C89.9457 40.7267 90.2357 41.2394 90.4349 41.8312C90.6341 42.4172 90.7338 43.0529 90.7338 43.7385V43.9406C90.7338 44.6262 90.6341 45.2619 90.4349 45.8478C90.2357 46.4338 89.9457 46.9465 89.5648 47.3859C89.1898 47.8195 88.7357 48.1594 88.2025 48.4055C87.6752 48.6457 87.0775 48.7658 86.4095 48.7658C85.7416 48.7658 85.141 48.6457 84.6078 48.4055C84.0746 48.1594 83.6175 47.8195 83.2367 47.3859C82.8617 46.9465 82.5746 46.4338 82.3754 45.8478C82.1761 45.2619 82.0765 44.6262 82.0765 43.9406ZM83.7025 43.7385V43.9406C83.7025 44.4152 83.7582 44.8635 83.8695 45.2853C83.9808 45.7014 84.1478 46.0705 84.3705 46.3928C84.599 46.715 84.8832 46.9699 85.223 47.1574C85.5629 47.3391 85.9584 47.4299 86.4095 47.4299C86.8548 47.4299 87.2445 47.3391 87.5785 47.1574C87.9183 46.9699 88.1996 46.715 88.4222 46.3928C88.6449 46.0705 88.8119 45.7014 88.9232 45.2853C89.0404 44.8635 89.099 44.4152 89.099 43.9406V43.7385C89.099 43.2697 89.0404 42.8273 88.9232 42.4113C88.8119 41.9894 88.642 41.6174 88.4134 41.2951C88.1908 40.967 87.9095 40.7092 87.5697 40.5217C87.2357 40.3342 86.8431 40.2404 86.392 40.2404C85.9466 40.2404 85.5541 40.3342 85.2142 40.5217C84.8802 40.7092 84.599 40.967 84.3705 41.2951C84.1478 41.6174 83.9808 41.9894 83.8695 42.4113C83.7582 42.8273 83.7025 43.2697 83.7025 43.7385ZM95.3041 47.6057L97.9496 39.0803H99.6898L95.8754 50.0578C95.7875 50.2922 95.6703 50.5441 95.5238 50.8137C95.3832 51.0891 95.2015 51.3498 94.9789 51.5959C94.7562 51.842 94.4867 52.0412 94.1703 52.1935C93.8597 52.3517 93.4877 52.4308 93.0541 52.4308C92.9252 52.4308 92.7611 52.4133 92.5619 52.3781C92.3627 52.343 92.222 52.3137 92.14 52.2902L92.1312 50.9719C92.1781 50.9777 92.2513 50.9836 92.3509 50.9894C92.4564 51.0012 92.5297 51.007 92.5707 51.007C92.9398 51.007 93.2533 50.9572 93.5111 50.8576C93.7689 50.7639 93.9857 50.6027 94.1615 50.3742C94.3431 50.1516 94.4984 49.8439 94.6273 49.4514L95.3041 47.6057ZM93.3617 39.0803L95.8314 46.4631L96.2533 48.1769L95.0843 48.7746L91.5863 39.0803H93.3617ZM104.981 48.7658C104.319 48.7658 103.718 48.6545 103.179 48.4318C102.646 48.2033 102.186 47.884 101.799 47.4738C101.418 47.0637 101.125 46.5773 100.92 46.0148C100.715 45.4523 100.613 44.8371 100.613 44.1691V43.8C100.613 43.0266 100.727 42.3381 100.955 41.7346C101.184 41.1252 101.494 40.6096 101.887 40.1877C102.28 39.7658 102.725 39.4465 103.223 39.2297C103.721 39.0129 104.237 38.9045 104.77 38.9045C105.45 38.9045 106.036 39.0217 106.528 39.256C107.026 39.4904 107.433 39.8185 107.749 40.2404C108.066 40.6564 108.3 41.1486 108.453 41.717C108.605 42.2795 108.681 42.8947 108.681 43.5627V44.2922H101.579V42.965H107.055V42.842C107.032 42.4201 106.944 42.0099 106.791 41.6115C106.645 41.2131 106.411 40.8849 106.088 40.6271C105.766 40.3693 105.327 40.2404 104.77 40.2404C104.401 40.2404 104.061 40.3195 103.75 40.4777C103.44 40.6301 103.173 40.8586 102.951 41.1633C102.728 41.468 102.555 41.84 102.432 42.2795C102.309 42.7189 102.247 43.2258 102.247 43.8V44.1691C102.247 44.6203 102.309 45.0451 102.432 45.4435C102.561 45.8361 102.745 46.1818 102.986 46.4807C103.232 46.7795 103.528 47.0139 103.873 47.1838C104.225 47.3537 104.623 47.4387 105.069 47.4387C105.643 47.4387 106.129 47.3215 106.528 47.0871C106.926 46.8527 107.275 46.5392 107.574 46.1467L108.558 46.9289C108.353 47.2394 108.092 47.5353 107.776 47.8166C107.459 48.0978 107.07 48.3264 106.607 48.5021C106.15 48.6779 105.608 48.7658 104.981 48.7658ZM112.205 40.5744V48.59H110.579V39.0803H112.161L112.205 40.5744ZM115.176 39.0275L115.167 40.5392C115.033 40.5099 114.904 40.4924 114.781 40.4865C114.663 40.4748 114.529 40.4689 114.376 40.4689C114.001 40.4689 113.67 40.5275 113.383 40.6447C113.096 40.7619 112.853 40.926 112.654 41.1369C112.454 41.3478 112.296 41.5998 112.179 41.8928C112.068 42.1799 111.994 42.4963 111.959 42.842L111.502 43.1057C111.502 42.5314 111.558 41.9924 111.669 41.4885C111.786 40.9846 111.965 40.5392 112.205 40.1525C112.446 39.7599 112.75 39.4553 113.119 39.2385C113.494 39.0158 113.94 38.9045 114.455 38.9045C114.573 38.9045 114.707 38.9191 114.86 38.9484C115.012 38.9719 115.118 38.9982 115.176 39.0275Z" fill="#090909"/>
</g>
<defs>
<filter id="filter0_dd_34_2912" x="0" y="0" width="167.95" height="84.19" filterUnits="userSpaceOnUse" color-interpolation-filters="sRGB">
<feFlood flood-opacity="0" result="BackgroundImageFix"/>
<feColorMatrix in="SourceAlpha" type="matrix" values="0 0 0 0 0 0 0 0 0 0 0 0 0 0 0 0 0 0 127 0" result="hardAlpha"/>
<feOffset dx="-6" dy="-6"/>
<feGaussianBlur stdDeviation="6"/>
<feComposite in2="hardAlpha" operator="out"/>
<feColorMatrix type="matrix" values="0 0 0 0 1 0 0 0 0 1 0 0 0 0 1 0 0 0 1 0"/>
<feBlend mode="normal" in2="BackgroundImageFix" result="effect1_dropShadow_34_2912"/>
<feColorMatrix in="SourceAlpha" type="matrix" values="0 0 0 0 0 0 0 0 0 0 0 0 0 0 0 0 0 0 127 0" result="hardAlpha"/>
<feOffset dx="6" dy="6"/>
<feGaussianBlur stdDeviation="6"/>
<feComposite in2="hardAlpha" operator="out"/>
<feColorMatrix type="matrix" values="0 0 0 0 0.772549 0 0 0 0 0.772549 0 0 0 0 0.772549 0 0 0 1 0"/>
<feBlend mode="normal" in2="effect1_dropShadow_34_2912" result="effect2_dropShadow_34_2912"/>
<feBlend mode="normal" in="SourceGraphic" in2="effect2_dropShadow_34_2912" result="shape"/>
</filter>
</defs>
</svg>
