<?xml version="1.0" encoding="UTF-8"?>
<svg id="Calque_1" data-name="Calque 1" xmlns="http://www.w3.org/2000/svg" viewBox="0 0 380.09 263.08">
  <defs>
    <style>
      .cls-1 {
        fill: #fb6591;
      }

      .cls-1, .cls-2, .cls-3, .cls-4, .cls-5, .cls-6, .cls-7, .cls-8, .cls-9, .cls-10, .cls-11, .cls-12, .cls-13, .cls-14, .cls-15 {
        stroke-width: 0px;
      }

      .cls-2 {
        fill: #e88b96;
      }

      .cls-3 {
        fill: #87cdd7;
      }

      .cls-4 {
        fill: #ffde15;
      }

      .cls-5 {
        fill: #01173c;
      }

      .cls-6 {
        fill: #d48193;
      }

      .cls-7 {
        fill: #626262;
      }

      .cls-8 {
        fill: #f9dade;
      }

      .cls-9 {
        fill: #fdae03;
      }

      .cls-10 {
        fill: #064058;
      }

      .cls-11 {
        fill: #ededed;
      }

      .cls-12 {
        fill: #e47c89;
      }

      .cls-13 {
        fill: #222348;
      }

      .cls-14 {
        fill: #fefefe;
      }

      .cls-15 {
        fill: #7244a2;
      }
    </style>
  </defs>
  <path class="cls-4" d="M197.39,250.28c0-1.58.02-3.16,0-4.74-.02-.96.32-1.67,1.32-1.79,1.02-.12,1.88.34,2.06,1.39.61,3.63.63,7.29.34,10.94-.11,1.39-1.36.87-2.19.95-.9.09-1.4-.28-1.39-1.27.03-1.83,0-3.66,0-5.49h-.14Z"/>
  <path class="cls-4" d="M239.25,207.19c1.41,1.51,1.71,3.41,1.86,5.35-3.07-1.8-6.17-3.56-9.2-5.43-1.24-.76-3.39-1.34-2.09-3.43,1.24-2,2.58-.25,3.78.39,1.9,1.01,3.6,2.37,5.64,3.12h.01Z"/>
  <path class="cls-4" d="M224.64,247.73c.99,0,1.49.52,1.84,1.22,1.29,2.59,2.56,5.19,3.85,7.78.57,1.16.4,2.15-.79,2.7-1.13.52-1.89-.14-2.38-1.13-1.29-2.59-2.62-5.16-3.82-7.79-.64-1.4-.09-2.39,1.31-2.77h0Z"/>
  <path class="cls-4" d="M179.08,244.5c.07,1.33.14,2.66.21,3.98.06,1.04-.31,1.84-1.42,1.98-1.21.15-1.96-.56-2.05-1.68-.24-3.06-.38-6.14-.53-9.21-.04-.94.39-1.68,1.37-1.77,1.18-.11,1.92.58,2.04,1.72.18,1.65.23,3.31.33,4.97h.05Z"/>
  <path class="cls-4" d="M145.78,239.05c.64.04,1.04.46,1.44.89,1.86,2.02,3.7,4.04,5.58,6.05.84.9,1.27,1.83.23,2.8-.9.84-1.82.57-2.66-.2-2.14-1.98-4.08-4.15-5.88-6.44-.56-.71-.68-1.5-.16-2.32.34-.54.82-.8,1.45-.78h0Z"/>
  <path class="cls-4" d="M159.35,219.52c-.78-.02-1.33-.36-1.69-.96-.39-.63-.39-1.32.14-1.83,2.07-2.01,4.16-4.01,6.3-5.95.72-.66,1.57-.42,2.24.2.61.57.86,1.41.28,2-2.15,2.16-4.4,4.23-6.62,6.31-.16.15-.46.17-.63.23h-.02Z"/>
  <path class="cls-4" d="M203.96,221.23c1.07-.06,2.15-.15,3.22-.18,1.16-.04,1.94.49,2.05,1.68.11,1.16-.69,1.62-1.67,1.76-2.38.34-4.76.65-7.17.32-1.19-.16-2.08-.74-2-2.08.09-1.47,1.17-1.59,2.33-1.55,1.07.03,2.15,0,3.23,0v.04h0Z"/>
  <path class="cls-4" d="M248.75,236.53c.74,1.07,1.11,2.24.99,3.54-1.32.7-2.65,1.37-3.94,2.12-.96.55-1.8.48-2.4-.41-.66-.98-.46-1.95.57-2.57,1.56-.94,3.18-1.79,4.78-2.68h0Z"/>
  <path class="cls-8" d="M183.84,201.91c1.39-.47,1.86,1.19,2.99,1.31,0,.58,0,1.15-.02,1.73-.62.4-.58.97-.42,1.58-.55-.15-1.12-.22-1.63-.45-1.35-.6-2.73-1.21-1.08-2.97.22-.24.11-.79.16-1.2Z"/>
  <path class="cls-2" d="M187.38,203.1c1.08-.39,1.75,1.48,2.93.52-.26.81-.04,2.54-.66,2.27-.94-.41-1.98-1.48-2.27-2.79h0Z"/>
  <path class="cls-2" d="M186.4,206.53c-.16-.6-.2-1.18.42-1.58.15.19.4.35.44.56.16.82,1.72-.22,1.41,1.07-.11.44-.39,1.08-.72,1.18-.95.28-.91-.95-1.55-1.24h0Z"/>
  <path class="cls-11" d="M346.15,263.02c11.31,0,22.61,0,33.92.01M132.11,261.3c-1.31-5.23-2.52-10.47-3.77-15.71,1.29-.12,1.49-1.26,1.82-2.13,2.86-7.59,5.64-15.21,8.46-22.81,3.22-8.67,6.45-17.34,9.68-26.01,1.96.75,4.04.78,6.09.89,1.13.06,2.04-.35,2.15-1.56.13-1.36-.77-1.89-2-2.01-1.56-.16-3.13-.32-4.69-.48,1.09-4.82,3.14-9.3,5.02-13.83,3.33.05,3.89.62,3.98,4.01-.04.07-.07.14-.11.2.04-.07.08-.13.11-.2,1.15,0,2.38-.16,3.26.76.89.93,1.24-.29,1.87-.34,1,.11,1.16.99,1.52,1.68-.1-.1-.21-.11-.34-.04-.13-.04-.25-.02-.36.04-.29.02-.58.04-.87.06-.96-.91-1.23.07-1.64.69.53-.14,1.05-.27,1.58-.41,0,.97.15,1.96,0,2.9-.2,1.16.14,2.89-2,2.64-.38-1.17-.82-2.33-1.1-3.52-.13-.56-.2-.41-.48-.15-.15.14-.36.23-.55.34,1.16.83.35,2.9,2.12,3.34-.08,1,1.21,1.17,1.26,2.09,2.14-1.07,4.15.11,6.21.35-.97,1.1-3.43,1.19-2.45,3.62.23,1.01,1.02,1.68,1.7,2.3,1.2,1.09,1.23,0,1.26-.86l.03-.03c.83-.34,1.67-.67,2.5-1.01.98-.24.78,1.95,2.1,1.02.14.02.28.02.42.02-.06.67-.11,1.35-.17,2.02-1.63-.17-2.59.42-2.59,2.26.93-.14,1.73-.25,2.52-.37.52,1.62,1.14.25,1.72.06,1.04.38,1.68-.88,2.67-.77.35,1.46-1.11,1.93-1.59,3.16,2.39-.33,2.19,1.7,2.93,3.31.62-2.35-.44-4.65,1.47-6.21.66.44,1.31.87,1.97,1.31-.04.41.07.96-.16,1.2-1.65,1.75-.27,2.37,1.08,2.97.51.23,1.09.3,1.63.45.64.29.6,1.52,1.55,1.24.34-.1.62-.74.72-1.18.31-1.29-1.25-.25-1.41-1.07-.04-.21-.29-.37-.44-.56,0-.58,0-1.15.02-1.73l.55-.12c.29,1.31,1.32,2.38,2.27,2.79.62.27.4-1.46.66-2.27,8.62,1.52,15.93-1.13,22.22-7.01,1.69.12,3.39.36,5.08.32,1.11-.03,2.48.65,3.29-.78,4.87-.54,9.44-1.91,13.41-4.92h.97c-.1,1.09.2,2.1.46,3.15,1.07,4.3,2.97,8.36,3.51,12.8-2.04-.75-3.75-2.11-5.64-3.12-1.2-.64-2.54-2.39-3.78-.39-1.3,2.09.85,2.67,2.09,3.43,3.03,1.87,6.13,3.63,9.2,5.43.71.34.73,1.09.92,1.69,2.26,7.43,4.49,14.87,6.73,22.3-1.6.89-3.21,1.74-4.78,2.68-1.02.62-1.23,1.59-.57,2.57.6.89,1.44.97,2.4.41,1.29-.75,2.62-1.41,3.94-2.12,2.57,5.65,3.83,11.75,5.92,17.57,1.92,5.36,1.8,5.41,7.61,5.38M197.39,250.28h.14c0,1.83.02,3.66,0,5.49-.02.99.49,1.36,1.39,1.27.83-.08,2.08.44,2.19-.95.29-3.65.27-7.32-.34-10.94-.17-1.04-1.04-1.5-2.06-1.39-1,.12-1.34.83-1.32,1.79.03,1.58,0,3.16,0,4.74h0ZM224.64,247.73c-1.4.38-1.95,1.37-1.31,2.77,1.21,2.63,2.53,5.2,3.82,7.79.49.99,1.25,1.65,2.38,1.13,1.19-.55,1.37-1.54.79-2.7-1.29-2.59-2.56-5.19-3.85-7.78-.35-.7-.84-1.23-1.84-1.22h0ZM179.08,244.5h-.05c-.1-1.66-.15-3.32-.33-4.97-.12-1.14-.86-1.83-2.04-1.72-.98.09-1.42.83-1.37,1.77.15,3.07.28,6.14.53,9.21.09,1.13.84,1.83,2.05,1.68,1.12-.14,1.48-.94,1.42-1.98-.07-1.33-.14-2.66-.21-3.98h0ZM145.78,239.04c-.63,0-1.11.24-1.45.79-.52.82-.39,1.6.16,2.32,1.8,2.29,3.73,4.46,5.88,6.44.83.77,1.76,1.04,2.66.2,1.04-.98.61-1.91-.23-2.8-1.87-2-3.72-4.03-5.58-6.05-.4-.43-.8-.85-1.44-.89h0ZM159.35,219.52c.18-.06.47-.07.63-.23,2.23-2.09,4.47-4.15,6.62-6.31.59-.59.33-1.44-.28-2-.67-.62-1.51-.86-2.24-.2-2.14,1.94-4.23,3.94-6.3,5.95-.53.51-.53,1.2-.14,1.83.37.6.91.94,1.69.96h.02ZM203.96,221.23v-.04c-1.08,0-2.15.03-3.23,0-1.17-.04-2.25.08-2.33,1.55-.08,1.34.8,1.91,2,2.08,2.41.33,4.79.02,7.17-.32.98-.14,1.78-.6,1.67-1.76-.11-1.19-.89-1.72-2.05-1.68-1.07.04-2.15.12-3.22.18h0Z"/>
  <path class="cls-5" d="M380.07,263.03c-11.31,0-22.61,0-33.92-.01-6.1-22.42-12.2-44.84-18.4-67.65-5.7,9.38-21.67,46.28-29.34,67.61-11.71.01-23.42.03-35.13.04,2.6-6.9,5.15-13.83,7.82-20.7,7.12-18.33,14.83-36.4,23.27-54.17,5.19-.62,10.42-.68,15.6-1.46,9.12-1.38,17.81-4.02,25.8-8.66,7.3-4.24,12.73-10.28,16.51-17.82,5.44,19.94,10.89,39.88,16.31,59.82,3.85,14.17,7.67,28.34,11.49,42.51.04.15-.01.33-.02.49h.01Z"/>
  <path class="cls-6" d="M37.45,182.67c-3.65-1.05-7.42-1.61-11.01-2.94-17.87-6.64-24.05-26.7-12.98-42.22.54-.76,1.52-1.37,1.29-2.54.98-.87,2.01-1.69,2.94-2.61,7.56-7.46,16.62-12.26,26.79-15.08,1.5,4.29,2.98,8.59,4.5,12.87,1.54,4.36,2.79,8.83,5.07,12.9-2.02.94-4.02,1.92-6.07,2.81-3.57,1.56-7.13,3.13-9.99,5.9-1.12,1.09-1.25,1.86.5,2.34,3.52.97,7.04,1.88,10.75,1.46,4.33.4,8.48-.7,12.67-1.48-.16.47-.32.93-.49,1.4-.25.68-.96,1.61-.16,2.01,1.12.55,1.22-.8,1.55-1.44,1.54-3.04,3.18-6.04,4.45-9.2.98-2.43,2.21-2.9,4.7-2.15,4.52,1.37,4.75,1.66,2.3,5.69-.48.79-1.12,1.14-1.96,1.38-1.28.37-2.53.8-3.78,1.25-.51.18-1.28.31-.92,1.14.26.59.81.42,1.29.25,4.55-1.59,9.39-2.11,13.93-3.79,2.96-1.09,6.03-1.9,9.03-2.87,1.82-.59,3.1-.29,3.39,1.87.03.24.13.48.2.72q.94,3.18-2.34,4.21c-4.05,1.25-8.12,2.46-12.17,3.72-.72.22-2.04.22-1.7,1.3.35,1.13,1.45.3,2.15.1,4.07-1.18,8.12-2.46,12.18-3.67,3.15-.93,3.31-.82,4.25,2.16.05.16.07.33.15.48.99,1.93.48,2.91-1.7,3.49-4.17,1.11-8.27,2.49-12.39,3.78-.66.21-1.85.27-1.6,1.17.33,1.2,1.4.43,2.1.21,4.3-1.29,8.57-2.66,12.88-3.93.66-.19,1.45-.94,2.19.11,2.28,3.23,1.57,5.61-2.12,6.91-.39.14-.79.25-1.19.38-5.07,1.59-10.15,3.18-15.22,4.79-.88.28-2.17.26-1.75,1.82-.41.22-.81.44-1.22.65-1.25.13-2.45.39-3.52,1.09-5.03,1.08-10.02,2.32-15.13,3.05-7.28,1.03-14.57,1.05-21.88.49l.04.02ZM12.05,161.51c.16,1.54.79,2.94,2.06,4.01.43.36.93.91,1.5.37.66-.63-.06-1-.45-1.38-.94-.89-1.54-1.93-1.6-3.25-.03-.57.05-1.36-.7-1.37-.97,0-.68.92-.8,1.62h-.01Z"/>
  <path class="cls-3" d="M37.45,182.67c7.31.56,14.6.54,21.88-.49,5.11-.72,10.1-1.96,15.13-3.05-.09.32-.15.65-.28.95-6.94,15.9-12.61,32.28-18.46,48.59-4.05,11.32-8.44,22.51-12.83,33.7-.44.58-1.04.7-1.74.7-10.62-.05-21.24-.08-31.87-.12-.47-3.56.2-6.89,1.66-10.18,8.42-18.91,14.84-38.58,22.02-57.96,1.5-4.05,2.99-8.1,4.49-12.15h0Z"/>
  <path class="cls-11" d="M329.16,82.05c-.39-5.56.67-11.08.52-16.64-.04-1.41-.43-2.24-1.72-2.95-8.1-4.46-13.3-11.23-14.57-20.4-1.22-8.79.61-16.88,6.98-23.68,5.99-6.39,13.24-9.62,21.88-9.39,12.51.34,24.41,9.69,26.87,22.82,3.16,16.91-7.96,31.33-24.19,33.95-1.7.27-3.48.08-5.23.09-.87,0-1.66.08-2.01,1.08-1.51,4.38-3.03,8.75-4.55,13.13-1.72,2.43-1.92,5.6-3.98,8.66v-6.66h0ZM342.48,20.38c-6.15-.02-10.58,4.75-9.38,10.14.29,1.3.86,2.46,2.48,2.14,1.5-.29,1.57-1.35,1.34-2.68-.47-2.78.83-4.75,3.6-5.71,2.43-.84,4.87.06,6.21,2.3,2.27,3.77.84,7.7-3.98,9.37-5.56,1.92-6.38,4.56-5.71,10.45.14,1.25.82,2.04,2.11,1.96,1.26-.07,1.62-.98,1.56-2.11-.03-.58.02-1.17-.07-1.74-.42-2.66.54-4.28,3.29-4.83.95-.19,1.85-.74,2.7-1.25,3.9-2.36,5.71-7.06,4.45-11.43-1.16-4.06-4.48-6.6-8.62-6.61h.02ZM338.03,54.49c.06,1.17.57,1.91,1.8,1.91,1.12,0,1.65-.77,1.7-1.73.05-.98-.42-1.78-1.53-1.86-1.17-.08-1.85.51-1.97,1.68Z"/>
  <path class="cls-6" d="M226.09,94.19c3.16-1.46,6.1-.86,9,.84,12.39,7.24,25.51,12.33,40,13.28,5.87.39,11.73.95,17.6,1.43-.07.66-.13,1.32-.2,1.97-1.02,9.13-2.48,18.23-1.94,27.47-.83.02-1.66.11-2.48.06-12.44-.75-24.74-2.5-36.87-5.37-5.59-1.32-11.03-3.04-15.81-6.37,1-2.46,2.03-4.9,2.98-7.37.27-.7,1.03-1.77,0-2.16-1.07-.41-1.08.95-1.45,1.61-.2.36-.31.77-.47,1.15-1.33,3.33-3.8,4.89-7.42,4.66-.08,0-.17-.01-.25,0-1.48.12-1.55-.57-1.28-1.83.68-3.23,2.63-5.19,5.63-6.36.71-.28,2.2-.53,1.56-1.72-.5-.93-1.49.03-2.17.37-4.38,2.19-8.73,4.42-13.09,6.65-1.8.92-3.64,1.66-5.72,1.28-1.23-.22-2.19-.86-2.45-2.16-.26-1.35.46-2.19,1.6-2.79,1.25-.66,2.49-1.33,3.71-2.03.44-.25.86-.64.45-1.19-.28-.39-.73-.32-1.13-.13-1.13.52-2.23,1.12-3.4,1.56-1.46.54-3.13.88-3.99-.76-.82-1.58.3-2.89,1.51-3.84.9-.71,2.02-1.13,3.03-1.71.49-.28,1.16-.61.74-1.32-.42-.7-1.03-.22-1.53.02-.9.43-1.74,1.02-2.67,1.32-1.3.43-2.72.58-3.63-.73-.96-1.38-.43-2.69.6-3.83,1.13-1.26,2.57-2.1,4.03-2.89,4.53-2.45,9.08-4.87,13.61-7.32.78-.42,1.77-.64,1.89-1.78h.01ZM272.05,133.47c-.67.09-1.9-.51-1.97.64-.07,1.14,1.23.79,1.97.9,1.14.18,2.31.22,3.46.35.66.08,1.56.31,1.69-.5.16-1.08-.95-.92-1.61-1.03-1.14-.19-2.3-.25-3.53-.37h-.01Z"/>
  <path class="cls-3" d="M352.28,160.21c-3.78,7.54-9.21,13.59-16.51,17.82-7.99,4.64-16.68,7.28-25.8,8.66-5.18.78-10.41.84-15.6,1.46-1.43-.05-2.85-.1-4.28-.15-.61-9.86-1.14-19.73-.75-29.62,6.62-.29,13.23-.69,19.77-1.83,7.16-.57,13.08-3.06,16.57-9.94,3.7-7.31,8.08-9.57,15.83-8.61,1.87.23,1.8-.52,1.08-1.77,2.18-.43,4.14.29,6.09,1.1.12.27.26.27.4,0l.17-.11c1.05-.41.96-.93.17-1.54-.13-1.44-.51-2.82-1.04-4.16.57-.19.63-.7.73-1.18.24.32.47.64.71.95-.03.15.03.24.19.26,5.39,7.41,6.65,15.47,3.79,24.17-.49,1.49-1,2.97-1.5,4.45l-.02.03Z"/>
  <path class="cls-5" d="M44.48,117.27c-10.17,2.82-19.22,7.62-26.79,15.08-.93.92-1.96,1.75-2.94,2.61-2.35,1.07-4.73,2-7.38,2.02-1.78,0-3.49-.23-4.99-1.27-3.04-2.11-3.21-5.41-.25-7.63,1.65-1.24,3.54-2.16,5.33-3.21,1.51-.88,3.05-1.7,4.19-3.08,1.07-1.29,1.13-2.41-.09-3.72-1.94-2.08-1.93-3.39-.23-5.67,1.65-2.21,3.99-3.47,6.46-4.53,6.6-2.83,13.48-4.7,20.54-5.98.97-.18,1.96-.42,2.86-.81,1.29-.55,2.18-1.5,2.32-2.99.15-1.51-.86-2.2-1.96-2.89-2.48-1.55-2.76-3.51-.72-5.72,2.57-2.79,6-3.77,9.63-4.17,1.4-.15,2.83-.24,4.24-.15,8.41.56,16.57-.43,24.5-3.42,3.32-1.25,6.83-1.45,10.3-.42,3.7,1.1,5.55,3.4,5.86,7.14-1.11-.14-1.92-.89-2.86-1.38-3.67-1.92-5.28-1.07-6.07,3.23l.03-.04c-1.17-.43-.83,2.37-2.62,1.07-2.91-2.11-5.56-1.71-7.03.74-1.49,2.48-.53,5.1,2.58,6.62.8.39,1.06.63.55,1.4-2.24,3.39-3.92,7.13-6.47,10.32-10.07.52-19.7,2.9-28.98,6.81v.04Z"/>
  <path class="cls-11" d="M75.08,76.57c-3.62-2-6.02-4.53-8.73-6.65-3.06-2.4-6.01-4.93-8.98-7.44-.77-.65-1.36-.62-2.19-.05-17.01,11.7-40.13,1.26-43.66-18.69-2.69-15.21,7.53-29.91,22.62-32.85,15.17-2.96,30.05,7.49,33.08,21.39,1.66,7.62.37,14.65-3.4,21.29-.85,1.5-.74,2.41.11,3.78,3.62,5.85,7.1,11.78,10.62,17.69.16.26.21.59.53,1.54h0ZM39.88,31.81c-2.72-.61-3.57-3.15-5.27-4.76-.5-.47-.88-1.59-1.71-.98-.89.65.17,1.27.49,1.86.16.29.45.51.59.8.3.63,1.55,1.35.5,1.91-.73.39-1.99,1.26-3-.28-1.26-1.91-3.41-2.58-5.56-3.01-1.26-.25-2.54-.26-3.33,1.04-.72,1.18-.24,2.29.46,3.24,1.49,2,3.03,3.96,4.63,5.88.79.95.7,1.34-.55,1.57-1.63.3-3.27.66-4.65,1.68-.85.62-1.48,1.37-1.06,2.53.39,1.06,1.3,1.83,2.29,1.53,3.75-1.11,3.18,1.1,2.8,3.35-.14.81-.11,1.67-.02,2.49.21,1.98.79,3.87,2.87,4.59,2.03.71,3.74-.24,5.21-1.6.48-.45.84-1.03,1.3-1.5.39-.41.34-1.4,1.38-1.01.9.34.98.92.8,1.75-.13.6.19,1.11.59,1.58,2.02,2.37,8.43,3.21,11,1.43.42-.29.85-.62.61-1.2-.2-.48-.7-.44-1.07-.28-1.18.54-1.44-.19-1.64-1.1-.25-1.13.1-1.74,1.34-1.79.79-.03,1.58-.39,1.85-1.1.52-1.4,1.41-1.11,2.37-.71,1,.42,2.02.8,2.94,1.36,1.75,1.05,2.65.33,2.5-1.4-.36-4.26.38-8.46.47-12.68.02-1.05-.36-2.13-.7-3.15-.57-1.67-1.37-3.19-3.05-4.09-1.48-.79-2.58.27-3.78.87-.45-1.25-.64-2.38-1.22-3.25-1.03-1.54-.83-2.52.88-3.26.52-.22,1.11-.59.9-1.31-.19-.64-.87-.74-1.42-.83-2.59-.41-4.52.69-5.98,2.76-.64.91-1.19,1.39-1.95.06-.55-.96-.72-2.76-1.95-2.57-1.31.21-.48,2.06-1.04,3.05-.06.11-.25.16-.52.32-.83-.99-1.67-2-2.53-2.99-.27-.31-.61-.66-1.06-.37-.57.37-.37.85-.06,1.29,1.21,1.69,2.41,3.39,3.66,5.05.68.9,1.19,1.81.7,3.23h0Z"/>
  <path class="cls-4" d="M44.48,117.27c9.27-3.91,18.91-6.29,28.98-6.81-1.15,2.81-2.87,5.45-2.39,8.71.91,6.14,5.62,10.24,11.59,10.1,5.74-.14,10.16-4.5,10.84-10.61.27-2.46.68-4.91,1.03-7.37,9.78,1.4,19.2,4.02,28.09,8.39-4,8.34-8.71,16.31-13.17,24.4-.99-.36-1.99-.68-2.96-1.08-1.2-.49-2.33-.77-3.23.53-2,.92-3.98,1.87-6.2,2.15-1.16-.05-2.32-.09-3.48-.14-3.14-.99-5.91-2.51-7.91-5.26-1.2-1.64-2.57-1.66-3.86-.02-1.08,1.37-2.28,2.62-3.85,3.45-.55-2.23-1.62-4.02-4.14-4.27-2.51-.24-4.44.88-5.85,2.94-.78,1.15-1.55,2.31-2.33,3.46-2.08-.57-4.14-1.36-5.51-3.04-1.34-1.64-2.59-1.64-4.13-.54-.65.26-1.3.51-1.95.77-2.28-4.07-3.53-8.54-5.07-12.9-1.52-4.28-3-8.58-4.5-12.87h0Z"/>
  <path class="cls-7" d="M222.22,18c1.34-.01,2.48-.76,3.68-1.21,3.29-1.25,6.59-1.69,9.97-.36,3.52,1.38,5.39,4,4.91,6.92-.52,3.16-3.66,5.63-7.25,5.64-14.81.06-29.62.11-44.44.16-12.15.04-24.3.07-36.45.11h-3.31c.02-.37-.07-.67.05-.8,5.21-6.06,11.34-10.75,19.25-12.72,1.44-.36,2.96-.53,4.44-.5,3.6.07,5.16,1.2,7,4.84,2.97-3.08,5.75-6.28,8.97-9.02,6.17-5.23,12.92-9.37,21.04-10.82,3.3-.59,6.47-.09,9.36,1.71,5.46,3.4,6.77,9.22,3.3,14.61-.25.39-.72.7-.53,1.43h0ZM221.57,18.33c.05-.04.11-.09.16-.13-.05-.05-.1-.13-.15-.13s-.11.08-.16.12c.05.05.1.1.15.14Z"/>
  <path class="cls-5" d="M329.16,82.05v6.66c2.06-3.06,2.25-6.23,3.98-8.66,1.15.44,1.89,1.26,2.37,2.4.82,1.92,2.26,2.47,4.26,1.85,3.28-1.01,4.53-.13,4.87,3.38.18,1.93,1.1,2.99,3.1,3.23,3.37.41,4.27,1.88,3.16,5.06-.69,1.95-.22,3.33,1.6,4.39,2.82,1.65,3.09,3.44.84,5.73-1.55,1.57-1.67,3.06-.36,4.85,1.83,2.5,1.33,4.35-1.5,5.43-2.14.82-2.97,2.08-2.45,4.41.65,2.89-.41,4.09-3.46,4.32-.18-.4-.53-.39-.88-.38-.95-1.65-1.82-3.35-2.88-4.93-.96-1.44-.87-2.08.92-2.76,2.37-.9,3.22-3.61,2.21-5.84-1-2.22-3.93-3.67-5.77-2.26-2.6,1.99-3.23.44-4.09-1.48-.34-.75-.8-1.45-1.2-2.18-.57-1.03-1.46-1.37-2.52-.97-2.85,1.08-5.53,2.46-7.64,4.77.71.59,1.84-.16,2.06.8.19.84-.78,1.16-1.32,1.63-.88.76-1.78,1.5-2.72,2.18-1.06.77-1.94,1.46-.21,2.46.35.2.66.59.29,1.01-.33.38-.74.16-1.13-.02-.54-.25-1.25-.98-1.54.16-.55,2.19-.95,4.55.19,6.55,1.05,1.83,2.87.22,4.34.28.24,0,.48-.11.72-.18,1.03-.32,1.56,0,1.61,1.13.1,2.4.25,4.79.37,7.19-1.43-1.82-3.03-2.74-5.35-1.42-2.63,1.5-4.44.79-5.24-2.12-.62-2.28-1.84-3.06-4.19-2.64-2.53.45-4.3-1.25-3.85-3.79.48-2.65-.37-4-2.94-4.78-2.37-.72-2.94-2.86-1.58-4.99.5-.78,1.12-1.46.89-2.47.14-1.36-.81-2.04-1.67-2.84-1.88-1.75-1.82-3.83.35-5.16,2.27-1.39,2.8-2.92,1.61-5.37-1.09-2.23,0-4.12,2.53-4.51,2.51-.39,3.57-1.59,3.51-4.16-.06-2.57,1.63-3.92,4.08-3.17,2.63.8,4.02-.06,5.04-2.47.97-2.32,3.12-2.82,5.03-1.16,1.44,1.25,2.85,1.55,4.55.85h.01Z"/>
  <path class="cls-5" d="M170.91,93.42c-.46-5.28,1.77-9.22,6.2-11.87,4.72-2.81,9.1-2.1,15.3,2.29,1.46-3.99,4.89-5.37,8.55-6.42,4.09-1.17,7.62-3.27,10.49-6.43l.07-.09c.85.59,1.31-.3,1.89-.56,1.31-.58,2.61-1.09,4.07-.99,2.14.15,2.82,1.1,2.11,3.11-.32.89-.76,1.74.13,2.49.81.68,1.73.45,2.58.06,3.56-1.61,7.16-3.08,11.01-3.87,1.24-.25,2.48-.46,3.7-.19,1.38.3,2.6,1,2.18,2.73-.51,2.11.74,2.47,2.33,2.48,1.08,0,2.15-.2,3.23-.25,1.18-.06,2.44-.09,3.02,1.2.56,1.25.16,2.48-.65,3.5-1.31,1.63-3.07,2.53-5.14,2.7-2.48.21-4.97.36-7.46.47-1.26.05-2.49.21-3.66.67-1.48.58-2.17,1.48-1.71,3.29.96,3.74-.69,5.55-4.58,5.02-2.45-.34-4.85-1.11-7.28-1.62-2.46-.51-4.93-.63-7.4.05-1.11.31-1.88.89-2.34,2-1.08,2.63-2.27,3.05-4.77,1.69-2.56-1.38-4.8-3.24-7.61-5.43.62,4.31-.21,7.81-2.69,10.8-1.72-.73-3.26-1.29-.99-3.42,1.9-1.79,1.45-4.91-.56-6.66-1.95-1.7-5.27-1.9-6.42.28-1.92,3.66-3.33,1.45-5.03.17-.53-.4-1.06-.8-1.57-1.23-1.34-1.1-2.54-.98-3.68.34-1.08,1.25-2.21,2.46-3.31,3.69h0Z"/>
  <path class="cls-3" d="M304.13,110.05c.23,1.02-.39,1.7-.89,2.47-1.36,2.13-.79,4.27,1.58,4.99,2.56.78,3.42,2.13,2.94,4.78-.46,2.54,1.32,4.24,3.85,3.79,2.35-.42,3.56.36,4.19,2.64.79,2.91,2.6,3.62,5.24,2.12,2.32-1.33,3.93-.41,5.35,1.42.6,2.79.16,5.74,1.33,8.43-1.17,1.78-2.6,3.45-3.48,5.36-2.75,6.02-8,7.9-13.92,8.81-.22-3.8-.05-7.61-.79-11.39-.41-2.09-1.33-3.12-3.62-3.22-5.13-.22-10.24-.7-15.36-1.08-.54-9.24.92-18.34,1.94-27.47.07-.66.13-1.32.2-1.97,3.82-.39,7.62.34,11.43.31h.01Z"/>
  <path class="cls-6" d="M94.52,111.29c-.35,2.46-.75,4.9-1.03,7.37-.68,6.11-5.1,10.46-10.84,10.61-5.97.15-10.68-3.96-11.59-10.1-.48-3.25,1.24-5.9,2.39-8.71,2.55-3.2,4.23-6.93,6.47-10.32.51-.77.25-1.01-.55-1.4-3.1-1.52-4.07-4.14-2.58-6.62,1.47-2.45,4.12-2.86,7.03-.74,1.79,1.3,1.45-1.5,2.62-1.07.21.87.47,1.74,1.59.94,1-.72,1.92-1.55,2.85-2.36.31-.27.62-.65.34-1.06-.35-.52-.82-.36-1.28-.06-1.22.81-2.09,2.08-3.53,2.59.79-4.3,2.4-5.15,6.07-3.23.94.49,1.75,1.24,2.86,1.38.81,1.46,2.81,2,3.02,3.92-.47.14-.76-.16-1.08-.41-.5-.39-1.09-1.09-1.64-.3-.51.73.36,1.14.8,1.55,1.02.95,2.09,1.85,3.15,2.75.84.71,1.55,1.36.1,2.18-.42.24-.84.64-.43,1.19.4.55.87.21,1.31,0,.44-.21.88-.42,1.32-.64.41,1.96.48,3.89.18,5.9-.28,1.9-1.17,2.35-2.87,2.06-4.1-.7-4.11-.68-4.67,3.35-.06.41-.01.82-.02,1.24h.01ZM93.94,99.53c-1.57.18-2.76.87-2.82,2.39-.07,1.7,1.33,1.99,2.72,2.23,2.25.38,2.86-1.99,3-2.8.24-1.4-1.8-1.4-2.89-1.82h-.01ZM91.52,94.17c-.28-.78.51-2.24-.76-2.25-1.26-.01-.72,1.43-.73,2.24-.02.82-.46,2.27.72,2.27,1.26,0,.5-1.46.77-2.26ZM80,93.15c-.55.1-1.05.32-.79.77.65,1.09,1.83,1.55,2.93,2.06.44.2.91-.24.75-.63-.52-1.33-1.88-1.62-2.89-2.2Z"/>
  <path class="cls-13" d="M220.89,196.16c-.81,1.43-2.19.75-3.29.78-1.69.04-3.38-.2-5.08-.32-10.2-2.73-16.82-9.87-22.45-18.23-1.67-2.48-3.33-4.96-4.99-7.45-11.51-17.21-23.03-34.41-34.54-51.62-1.3-2.1-2.59-4.21-3.92-6.29-.3-.47-.38-1.5-1.36-.82-.74.52-.12,1.05.16,1.47,1.62,2.39,3.27,4.75,4.92,7.12-.1.96.93,1.32,1.13,2.15.13.56,1.29,1.02.47,1.61-.9.65-1.24-.43-1.63-1-1.92-2.82-3.81-5.66-5.73-8.47-.36-.52-.68-1.57-1.32-1.28-1.34.6-2.67,1.41-3.72,2.42-.93.88.07,1.86.57,2.64,1.86,2.86,3.82,5.65,5.7,8.49.34.51,1.02,1.21.21,1.71-.76.47-1.14-.39-1.5-.92-1.96-2.89-3.97-5.75-5.82-8.71-1.07-1.71-2.07-1.7-3.55-.53-1.34,1.06-3.17,1.57-1.53,3.95,3.06,4.44,6.46,8.67,8.77,13.6.51,1.1,2.54,2.34,1.3,3.19-1.19.81-1.87-1.42-2.49-2.43-1.39-2.24-3.57-1.75-5.37-1.49-1.84.26-.38,2.06-.67,3.13-.65,2.36.63,3.04,2.78,3,2.42-.04,3.97,1.05,5.32,3.26,9.51,15.43,19.21,30.75,28.85,46.11-.17.71.06,1.83-1.33,1.3-1.18-3.27-3.65-5.76-5.26-8.77-.36-.7-.51-1.57-1.52-1.68-.17-1.98-2.49-2.96-2.79-4.19-.74-2.99-3.03-4.88-4.12-7.51-3.56-6.21-7.55-12.15-11.44-18.16-2.45-4.92-4.8-9.75-11.67-9.55-2.51.07-4.18-2.42-4.05-4.56.12-2.02,1.82-3.62,4.47-3.93,1.57-.18,3.18-.03,5.08-.03-2.21-3.83-4.61-7-6.97-10.19-.65-1.59-1.73-3.02-1.72-4.88.02-2.93,1.78-4.58,4.61-3.92,1.35.31,1.65.05,1.79-1.27.18-1.72,1.27-3.31,3.01-3.07,3.35.46,4.08-2.29,5.18-4.08,1.23-2,2.21-3.7,4.82-3.46.96.09.96-.54,1.16-1.21.85-2.8,2.42-3.7,5.27-3.01.84.2,1.42.66,1.69-.77.8-4.27,4.38-5.39,7.66-2.47.98.88,1.8,1.94,2.7,2.92.1.83.4,1.07,1.02.33.56-.68.55-1.87,1.87-2.14.18,1.23-.58,1.97-.95,2.82-.34.76-.82,1.5.13,2.16-.17.98-.34,1.95-.52,2.93-.89-2.46-2.51-4.48-3.99-6.57-.74-1.04-1.62-1.33-2.66-.24-.45.47-1.05.85-1.65,1.11-2.05.9-1.86,2.09-.76,3.7,2.16,3.15,4.21,6.39,6.28,9.61.32.5,1.04,1.18.21,1.69-.79.48-1.14-.38-1.49-.91-1.77-2.72-3.53-5.44-5.3-8.16-2.45-3.77-2.41-3.7-6.22-1.24-1.43.92-1.42,1.62-.52,2.92,2.03,2.94,3.92,5.98,5.8,9.03.42.68,1.65,1.56.53,2.28-.89.57-1.28-.77-1.69-1.4-2.06-3.12-4.05-6.3-6.1-9.43-.36-.55-.53-1.36-1.66-.97-4.22,1.47-4.87,3.16-2.51,6.95.13.21.27.42.41.63,10.62,16.01,21.16,32.07,31.89,48,5.43,8.06,10.32,16.53,16.87,23.8,5.61,6.23,12.46,9.86,21.01,9.83.78,0,1.71-.31,2.21.68h0ZM133.57,138.65c-.35-.72.5-2.07-.69-2.24-.89-.13-1.47.94-1.46,1.95,0,1.07.47,2.18,1.54,2.18.95,0,.39-1.19.6-1.88h.01ZM163.65,96.08c-2.54-.57-3.67.18-4.09,2.57,1.59-.58,2.68-1.34,4.09-2.57ZM156.85,100.7c-3.21-.55-3.84-.06-3.73,2.43,1.13-.73,2.19-1.43,3.73-2.43ZM138.44,114.75c1.47-.67,2.55-1.17,3.3-2.37-1.96-.44-2.9.25-3.3,2.37ZM135.42,117c-2.07-.87-2.67-.48-2.81,1.87.98-.65,1.85-1.23,2.81-1.87ZM150.53,104.8c-1.95-.01-2.9.38-3.57,1.93,1.37-.28,2.1-1.01,3.57-1.93Z"/>
  <path class="cls-6" d="M132.51,123.96c2.36,3.19,4.76,6.36,6.97,10.19-1.9,0-3.51-.15-5.08.03-2.65.31-4.35,1.91-4.47,3.93-.13,2.14,1.54,4.63,4.05,4.56,6.87-.2,9.21,4.63,11.67,9.55-1.07.14-2.13.37-3.2.41-11.86.5-22.67-3.08-32.99-8.55,4.45-8.1,9.16-16.06,13.17-24.4,2.4.49,4.23,2.16,6.4,3.09,1.12.48,2.32.8,3.49,1.18h0Z"/>
  <path class="cls-11" d="M199.8,106.29c1.91-.38,3.56-1.84,5.67-1.42-2.47,4-2.4,4.65,1.41,7.34.97.68.28,1.11.09,1.62-.8,2.14-.21,3.81,1.8,4.79.87.43,1.18.69,1.06,1.76-.3,2.88,1.37,4.7,4.27,4.97,1.88.17,3.6-.4,5.28-1.17,2.33-1.06,4.38-2.67,6.85-3.45.11.12.24.23.38.31-.41,1.51-.83,3.02-1.24,4.53-.58.31-1.19.57-1.74.93-6.98,4.49-13.94,9-20.91,13.5-3.46-4.51-6.42-9.35-9.47-14.13-.55-2.89-1.24-5.72-.67-8.76.89-4.68,3.69-7.95,7.22-10.8v-.02ZM204.38,127.75c-.15-1.28-.28-2.59-.47-3.9-.17-1.16-.88-1.77-2.06-1.66-1.31.12-1.56,1.04-1.44,2.15.12,1.15.27,2.3.39,3.45.18,1.59-.2,3.81,2.25,3.62,2.36-.19,1.03-2.32,1.34-3.65h0Z"/>
  <path class="cls-6" d="M199.8,106.29c-3.53,2.85-6.33,6.12-7.22,10.8-.58,3.04.12,5.87.67,8.76-1.97-2.86-3.83-5.8-5.94-8.55-1.84-2.39-2.87-4.69-1.17-7.59.44-.75.5-1.75.61-2.65.3-2.41-.57-4.23-2.87-5.22-2.38-1.03-3.94.22-5.31,1.96-1.29,1.64-1.78,3.7-2.8,5.49-1.07-.41-1.3-1.34-1.74-2.11,2.16-3.07,1.3-6.56,1.38-9.92,1.53.59,3.04,1.33,4.76.71.47-.17.98-.37.78-1.02-.15-.48-.6-.55-1.01-.43-1.19.32-2.27.15-3.27-.58-.37-.27-.76-.81-1.27-.42-.73.55-.16,1.18.03,1.77-2.21.88-3.41,2.77-4.66,4.61-.96-.67-.47-1.4-.13-2.16.38-.85,1.13-1.59.95-2.82-1.31.27-1.3,1.46-1.87,2.14-.61.74-.91.5-1.02-.33.33-1.95,1.68-3.47,2.23-5.33,1.11-1.23,2.24-2.43,3.31-3.69,1.14-1.32,2.33-1.45,3.68-.34.51.42,1.04.82,1.57,1.23,1.7,1.28,3.11,3.49,5.03-.17,1.15-2.19,4.47-1.98,6.42-.28,2,1.75,2.46,4.87.56,6.66-2.27,2.13-.73,2.69.99,3.42,2.13,2.4,4.95,3.95,7.33,6.05h-.02ZM175.71,90.55c-.23-.03-.57.16-.58.49-.05,1.15.96,1.4,1.72,1.77.69.34,1.47.91,2.23.13.25-.26.1-.68-.2-.84-1-.53-2.02-1-3.16-1.56h0ZM188.85,93.16c.09-.68-.23-1.05-.65-.89-1.24.46-1.69,1.69-2.31,2.73-.24.4.05.95.5.83,1.42-.37,1.73-1.81,2.45-2.67h0Z"/>
  <path class="cls-13" d="M226.24,120.72c-2.47.78-4.52,2.39-6.85,3.45-1.69.77-3.4,1.34-5.28,1.17-2.9-.26-4.57-2.08-4.27-4.97.11-1.08-.19-1.34-1.06-1.76-2.01-.98-2.6-2.65-1.8-4.79.19-.51.87-.94-.09-1.62-3.81-2.69-3.88-3.34-1.41-7.34,5.94-4.28,12.7-7.12,19.03-10.71.55-.31,1.07-.43,1.59.04-.12,1.14-1.11,1.36-1.89,1.78-4.53,2.45-9.08,4.87-13.61,7.32-1.46.79-2.9,1.63-4.03,2.89-1.03,1.15-1.56,2.46-.6,3.83.91,1.3,2.33,1.15,3.63.73.93-.31,1.77-.9,2.67-1.32.5-.24,1.11-.72,1.53-.02.42.71-.25,1.03-.74,1.32-1.01.58-2.12,1.01-3.03,1.71-1.21.94-2.33,2.26-1.51,3.84.86,1.65,2.53,1.31,3.99.76,1.16-.43,2.27-1.03,3.4-1.56.4-.19.85-.26,1.13.13.4.56-.02.94-.45,1.19-1.22.7-2.46,1.37-3.71,2.03-1.14.6-1.86,1.44-1.6,2.79.26,1.3,1.22,1.94,2.45,2.16,2.08.38,3.92-.36,5.72-1.28,4.36-2.23,8.71-4.46,13.09-6.65.68-.34,1.66-1.31,2.17-.37.64,1.19-.85,1.45-1.56,1.72-3,1.17-4.95,3.13-5.63,6.36-.27,1.26-.2,1.95,1.28,1.83h.25c3.62.23,6.09-1.33,7.42-4.66.15-.39.26-.8.47-1.15.37-.66.38-2.02,1.45-1.61,1.03.4.27,1.47,0,2.16-.95,2.48-1.98,4.92-2.98,7.37-.75.59-1.58,1.11-1.95,2.06-5.22,1.45-6.62.76-8.08-4,.41-1.51.83-3.02,1.24-4.53.17-.22.25-.44-.05-.59-.05-.02-.21.18-.32.28h0ZM233.7,126.86c-2.15,0-3.67-.02-5.18.01-.29,0-.71.1-.83.3-.26.43.1.8.44,1.01,1.89,1.17,3.5.67,5.57-1.32h0Z"/>
  <path class="cls-4" d="M231.81,60.79c1.43-3.46,3.63-6.56,4.78-10.15.03-.19.05-.38.08-.57l-.57.15c-2.93,1.08-5.86,2.17-9.42,3.48,3.57-4.76,6.72-9.07,10.02-13.26.7-.89,1.08-2.98,2.25-2.4,1.06.52-.74,1.91-.73,3.14,0,1.32-1.88,2.87-.81,3.79,1.06.91,2.69-.61,4.08-1.03,1.32-.4,2.6-.95,4.21-1.06-4.33,5.99-8.66,11.97-12.98,17.96-.3-.02-.61-.03-.91-.05h0Z"/>
  <path class="cls-4" d="M143.91,57.37c.64-2.5,2.14-4.61,3.15-6.94.22-.5.74-1.04.3-1.58-.48-.58-1.06-.03-1.57.11-1.48.42-2.78,1.46-4.42,1.36v.03c2.37-3.29,4.74-6.58,7.13-9.88.94,1.2.11,2.16-.19,3.12-.42,1.3.03,1.47,1.16,1.15,1.49-.42,2.79-1.53,4.47-1.28l-.04-.04c-3.33,4.65-6.67,9.29-10,13.94h.02-.01Z"/>
  <path class="cls-3" d="M183.44,74.17c-1.17-.68-.35-1.46-.02-2.09,2.78-5.28,5.61-10.53,8.42-15.8,1.44-2.71,2.87-5.42,4.32-8.12.29-.54.54-1.45,1.4-.97.82.46.26,1.17-.03,1.73-4.29,8.04-8.59,16.08-12.9,24.11-.26.49-.45,1.1-1.19,1.14Z"/>
  <path class="cls-3" d="M179.98,49.6c-.17.34-.4.87-.67,1.38-3.83,7.19-7.66,14.39-11.53,21.56-.35.65-.57,1.96-1.62,1.44-1.13-.56-.1-1.49.23-2.11,3.88-7.35,7.81-14.68,11.75-22.01.32-.6.5-1.54,1.53-1.3.35.08.41.47.3,1.03h0Z"/>
  <path class="cls-3" d="M214.16,50.13c-.14.26-.36.7-.59,1.14-3.43,6.43-6.86,12.86-10.29,19.28-.27.51-.58,1-.89,1.49-.2.3-.5.44-.85.3-.49-.2-.5-.59-.35-1.02.09-.23.19-.46.3-.68,3.67-6.86,7.35-13.72,11.04-20.57.26-.47.44-1.16,1.23-.93.35.1.47.43.41,1h0Z"/>
  <path class="cls-3" d="M169.19,53.44c-.85-.07-.9-.6-.61-1.21.39-.83.84-1.63,1.27-2.43,2.47-4.62,4.92-9.24,7.42-13.83.36-.66.57-1.96,1.6-1.48,1.14.53.13,1.45-.2,2.09-2.72,5.14-5.48,10.26-8.25,15.37-.3.56-.46,1.28-1.22,1.5h-.01Z"/>
  <path class="cls-3" d="M202.08,55.79c-.23.48-.39.85-.59,1.21-2.72,5.12-5.44,10.24-8.2,15.33-.3.56-.49,1.69-1.51,1.16-.86-.45-.16-1.19.11-1.71,2.75-5.2,5.52-10.38,8.3-15.56.29-.53.43-1.38,1.34-1.14.23.06.36.46.53.71h.02Z"/>
  <path class="cls-3" d="M185.34,55.93c-.28.56-.49,1.01-.73,1.45-2.58,4.84-5.16,9.68-7.77,14.5-.35.64-.58,1.93-1.67,1.26-.82-.51-.02-1.36.31-1.97,2.65-4.99,5.33-9.96,8.03-14.93.29-.54.47-1.38,1.39-1.04.22.08.31.5.45.74h0Z"/>
  <path class="cls-3" d="M167.56,57.31c-.15.3-.34.76-.58,1.19-2.56,4.75-5.11,9.51-7.7,14.24-.32.58-.51,1.73-1.46,1.27-.95-.47-.21-1.33.11-1.93,2.61-4.92,5.24-9.82,7.88-14.72.29-.55.47-1.36,1.4-1.05.34.12.43.47.35,1Z"/>
  <path class="cls-3" d="M164.94,45.45c-.08.17-.21.47-.36.77-2.38,4.46-4.74,8.92-7.15,13.36-.32.6-.6,1.68-1.53,1.21-1-.51-.15-1.33.15-1.9,2.36-4.46,4.77-8.91,7.18-13.34.29-.54.47-1.36,1.4-1.05.35.12.44.45.31.96h0Z"/>
  <path class="cls-3" d="M211.46,70.99c-1.32-.31-2.17-.66-1.22-2.35,2.37-4.17,4.55-8.45,6.84-12.67.32-.59.56-1.72,1.51-1.17.89.52.11,1.34-.21,1.94-2.13,4.02-4.33,8.01-6.43,12.05-.31.6-1.34,1.2-.42,2.1l-.07.1h0Z"/>
  <path class="cls-3" d="M222.56,34.33c-.23.47-.4.84-.59,1.2-1.66,3.14-3.3,6.29-4.99,9.41-.32.6-.55,1.67-1.53,1.16-.79-.41-.22-1.17.08-1.73,1.74-3.28,3.5-6.56,5.27-9.82.26-.47.45-1.18,1.22-.93.23.07.36.46.54.71Z"/>
  <path class="cls-3" d="M187.96,34.78c-.28.55-.61,1.22-.96,1.88-1.5,2.77-3,5.54-4.51,8.31-.23.42-.51.96-1.12.62-.55-.31-.4-.83-.16-1.3,1.74-3.3,3.47-6.61,5.23-9.9.23-.44.6-.85,1.2-.57.34.16.41.49.32.97h0Z"/>
  <path class="cls-13" d="M101.9,98.75c-.44.21-.88.43-1.32.64-.44.2-.91.54-1.31,0-.4-.55.01-.96.43-1.19,1.46-.82.74-1.47-.1-2.18-1.07-.9-2.13-1.81-3.15-2.75-.44-.41-1.31-.82-.8-1.55.55-.79,1.14-.09,1.64.3.32.25.61.56,1.08.41l.02-.06c-.16.47.08.58.49.55v-.04c-.1.45.17.6.54.67.81.81,1.53,1.74,2.44,2.4,1.37,1,1.38,1.86.04,2.82v-.02Z"/>
  <path class="cls-3" d="M192.56,42.38c-.63,1.2-1.21,2.3-1.79,3.4-.97,1.83-1.93,3.67-2.91,5.5-.29.54-.7,1.05-1.37.63-.54-.34-.27-.89-.03-1.33,1.49-2.78,2.98-5.56,4.49-8.32.22-.4.51-.96,1.13-.63.23.12.33.5.48.75h0Z"/>
  <path class="cls-3" d="M199.6,44.33c-.91-.12-.95-.72-.66-1.27,1.58-3.01,3.2-6.01,4.83-9,.2-.36.53-.69,1.01-.43.43.23.54.66.32,1.06-1.64,3.07-3.31,6.14-4.98,9.2-.11.2-.36.31-.53.44h0Z"/>
  <path class="cls-3" d="M207.7,42.94c.93.13.92.72.64,1.27-1.25,2.42-2.54,4.81-3.82,7.2-.21.39-.52.66-.99.52-.51-.15-.62-.59-.42-.98,1.33-2.56,2.68-5.1,4.05-7.64.1-.18.38-.27.55-.37h0Z"/>
  <path class="cls-3" d="M225.81,42.73c-.17.4-.28.71-.43.99-1.29,2.39-2.59,4.78-3.9,7.16-.27.5-.57,1.14-1.29.7-.52-.32-.34-.85-.09-1.31,1.38-2.53,2.75-5.07,4.13-7.59.2-.36.48-.74.95-.59.25.08.42.42.63.65h0Z"/>
  <path class="cls-3" d="M149.98,73.35c-1.21-.18-1.24-.76-.95-1.32,1.35-2.55,2.74-5.08,4.12-7.62.27-.49.68-.78,1.21-.44.41.26.34.7.13,1.1-1.38,2.54-2.76,5.07-4.14,7.61-.16.29-.32.58-.37.67h0Z"/>
  <path class="cls-3" d="M166.58,41.44c-.49-.03-.9-.34-.71-.76.94-2.09,1.89-4.21,3.35-6,.4-.49.89,0,1.02.54.1.42-2.79,5.83-3.21,6.06-.14.08-.3.11-.45.16Z"/>
  <path class="cls-3" d="M227.31,39.18c-.57-.07-.91-.41-.7-.83.78-1.62,1.63-3.21,2.51-4.78.11-.19.57-.3.84-.26.37.05.55.46.39.76-.8,1.61-1.64,3.2-2.5,4.78-.1.18-.4.25-.55.34h.01Z"/>
  <path class="cls-3" d="M213.58,34.49c-1,1.81-1.94,3.54-2.93,5.24-.11.2-.59.33-.84.27-.49-.12-.57-.61-.37-.99.87-1.67,1.78-3.32,2.7-4.97.21-.37.56-.68.99-.34.22.17.3.51.45.79h0Z"/>
  <path class="cls-3" d="M196.85,34.48c-.71,1.32-1.36,2.56-2.05,3.77-.22.38-.61.61-1.04.34-.41-.25-.44-.67-.24-1.08.6-1.17,1.21-2.34,1.85-3.49.21-.37.6-.64,1.02-.34.22.16.3.52.46.8h0Z"/>
  <path class="cls-7" d="M344.7,124.72c.35,0,.71-.02.88.38.41,2.27,2.68,3.29,3.53,5.27-.1.48-.16.98-.73,1.18-1.5-2.13-2.76-4.39-3.68-6.82h0Z"/>
  <path class="cls-4" d="M231.81,60.79c.3.02.61.03.91.05-.68,1.59-1.86,2.81-3.23,3.93.77-1.33,1.54-2.66,2.32-3.98h0Z"/>
  <path class="cls-1" d="M99.41,93.52c-.38-.06-.64-.22-.55-.67.4.04.55.3.55.67Z"/>
  <path class="cls-9" d="M153.93,43.46v-.2s-.03.11-.04.16l.04.04Z"/>
  <path class="cls-1" d="M98.88,92.9c-.41.04-.65-.08-.49-.55.41-.04.54.17.49.55Z"/>
  <polygon class="cls-9" points="141.37 50.32 141.33 50.41 141.36 50.36 141.37 50.32"/>
  <path class="cls-7" d="M350,131.58c-.15-.03-.22-.12-.19-.26l.17.08v.19h.02Z"/>
  <polygon class="cls-9" points="143.89 57.37 143.84 57.43 143.91 57.37 143.89 57.37"/>
  <path class="cls-6" d="M225.37,125.56c1.46,4.76,2.86,5.46,8.08,4,4,6.39,8.45,12.52,11.4,19.51.75,1.79,1.85,2.73,3.62,3.35,7.08,2.47,14.39,3.83,21.79,4.77,6.34.81,12.72.86,19.08,1.19-.39,9.89.13,19.76.75,29.62-8.71.52-17.38-.05-26-1.14-6.47-.82-12.92-1.86-19.05-4.25.35-.56.67-1.14,1.05-1.68,1.75-2.43,3.52-4.85,5.27-7.27.33-.46.84-1.04.18-1.5-.64-.45-1.02.2-1.37.66-.75,1-1.49,2-2.23,3-2.72,3.68-5.4,7.39-8.18,11.02-.65.85-1.31,2.05-2.81,1.52-3.32-1.18-3.85-2.85-1.79-5.7.34-.47.69-.93,1.04-1.41,1.9-2.63,3.81-5.25,5.7-7.88.34-.47.83-1.04.18-1.5-.65-.47-1.02.23-1.38.65-.32.38-.6.8-.89,1.2-2.3,3.16-4.59,6.33-6.91,9.48-.37.5-.61,1.26-1.45,1.17-2.64-.26-4.3-3.58-2.79-5.73,2.3-3.26,4.72-6.44,7.04-9.69.41-.58,1.57-1.3.5-2.04-.8-.55-1.22.55-1.63,1.11-2.43,3.27-4.9,6.52-7.21,9.87-1.27,1.85-2.34,2.07-4.14.59-2.58-2.12-2.69-2.01-.67-4.8.92-1.28,1.8-2.61,2.83-3.8,3.54-4.12,6.07-8.93,9.24-13.3.36-.49,1.08-1.17.26-1.69-.76-.49-1.12.41-1.51.9-.62.78-1.18,1.61-1.79,2.4-.95,1.22-4.8,2.38-5.87,1.56-1.3-.99-.21-2.42-.25-3.66,0-.41.13-.83.09-1.24-.12-1.47.51-2.02,1.99-2.17,3.55-.35,7.09-.87,10.63-1.35.69-.09,1.83.14,1.77-.88-.06-1.05-1.17-.69-1.84-.61-4.46.48-8.94.79-13.33,1.83-1.26.3-2.36.85-3.23,1.77-1.19,1.25-2.05,2.67-1.55,4.49.52,1.88,1.93,2.9,3.75,3.25,1.13.22,2.31.12,3.47.17.68.03,1.42-.35,2.19.32-3,4.19-5.96,8.29-8.88,12.41-1.12,1.58-1.95,3.29-1.81,5.32.19,2.62,2.09,4.01,4.64,3.38.55-.14,1.1-.31,1.85-.52-.12,1.89-.18,4.56,1.55,4.62,3.36.13,4.77,2.69,7.04,4.15.14.09.3.14.45.21-3.97,3.01-8.53,4.38-13.41,4.92-.5-.99-1.43-.69-2.21-.68-8.55.02-15.4-3.6-21.01-9.83-6.55-7.27-11.44-15.73-16.87-23.8-10.73-15.93-21.27-31.99-31.89-48-.14-.21-.28-.41-.41-.63-2.36-3.79-1.71-5.48,2.51-6.95,1.13-.39,1.3.42,1.66.97,2.05,3.13,4.04,6.3,6.1,9.43.42.63.8,1.97,1.69,1.4,1.12-.72-.11-1.61-.53-2.28-1.88-3.04-3.77-6.08-5.8-9.03-.9-1.3-.91-2,.52-2.92,3.81-2.46,3.76-2.53,6.22,1.24,1.77,2.72,3.52,5.45,5.3,8.16.35.54.7,1.4,1.49.91.84-.51.12-1.19-.21-1.69-2.07-3.22-4.11-6.45-6.28-9.61-1.1-1.61-1.29-2.8.76-3.7.6-.26,1.2-.64,1.65-1.11,1.04-1.09,1.93-.8,2.66.24,1.48,2.09,3.11,4.11,3.99,6.58.11,1.51.78,2.58,2.34,2.94.95,2.37,2.93,4.01,4.35,6.05.66.95,1.01,3.21,2.45,2.36,1.1-.65-.66-2.05-1.21-3.06-1.02-1.87-.95-5.34.54-6.67,1.43-1.27,2.45.75,3.76.81.08,0,.15.07.23.09,2.26.44,2.58,1.73,1.52,3.56-1.08,1.86-.78,3.32.47,5.17,8.16,12.05,16.11,24.24,24.19,36.35,2.81,4.22,5.77,8.34,8.69,12.49.34.49.69,1.42,1.49.81.71-.54.1-1.18-.29-1.72-.34-.47-.7-.93-1.02-1.41-5.01-7.54-10.02-15.09-15.02-22.64,6.97-4.5,13.94-9.01,20.91-13.5.55-.35,1.16-.62,1.74-.93h.06ZM282.35,184.12c-1.01.45-2.96-.73-3.01.87-.04,1.21,1.93.66,2.98.64.92-.02,2.63.57,2.58-.91-.04-1.15-1.64-.34-2.55-.59h0Z"/>
  <path class="cls-3" d="M97.07,145.69c2.22-.29,4.2-1.23,6.2-2.15,5.47,22.43,10.93,44.85,16.42,67.27,2.85,11.6,5.77,23.19,8.65,34.78,1.25,5.24,2.46,10.49,3.77,15.71.31,1.24.27,1.79-1.25,1.78-10.72-.07-21.45-.08-32.17-.1-.13-.65-.23-1.31-.39-1.96-6.77-27.66-13.55-55.32-20.33-82.98.41-.22.81-.44,1.22-.65.24.03.51.14.73.07,6.32-2.01,12.65-4,18.95-6.08,1.91-.63,3.61-1.69,4.71-3.5,1.35-2.22,1.19-4.02-.82-5.71-1.03-.87-.85-1.48-.36-2.51,1.16-2.45.44-4.11-2-5.25-.58-.27-1.36-.12-1.74-.81,2.73-4.24,2.52-5.29-1.6-7.92h0Z"/>
  <path class="cls-6" d="M172.09,191.23c-9.64-15.35-19.34-30.67-28.84-46.11-1.36-2.2-2.91-3.3-5.32-3.26-2.15.04-3.42-.64-2.78-3,.29-1.07-1.16-2.87.67-3.13,1.8-.26,3.98-.74,5.37,1.49.63,1.01,1.3,3.24,2.49,2.43,1.25-.85-.78-2.09-1.3-3.19-2.31-4.92-5.71-9.16-8.77-13.6-1.64-2.38.19-2.89,1.53-3.95,1.48-1.18,2.48-1.18,3.55.53,1.86,2.96,3.86,5.82,5.82,8.71.36.53.74,1.39,1.5.92.81-.5.13-1.2-.21-1.71-1.89-2.84-3.84-5.63-5.7-8.49-.51-.78-1.5-1.76-.57-2.64,1.06-1.01,2.38-1.82,3.72-2.42.64-.29.96.76,1.32,1.28,1.93,2.81,3.81,5.66,5.73,8.47.39.57.73,1.64,1.63,1,.82-.59-.33-1.05-.47-1.61-.19-.82-1.22-1.19-1.13-2.15.07-.49.13-.99.2-1.48,11.51,17.21,23.03,34.41,34.54,51.62,1.66,2.48,3.32,4.97,4.99,7.45,5.63,8.36,12.25,15.49,22.45,18.23-6.28,5.88-13.59,8.54-22.21,7.01-1.18.95-1.85-.91-2.93-.52-.18.04-.36.08-.55.12-1.14-.12-1.6-1.78-2.99-1.31-.66-.44-1.31-.87-1.97-1.31-1.78-1.33-3.55-2.65-5.33-3.98-.24-.17-.47-.33-.71-.5h.02c-.04-.84-.53-1.3-1.29-1.55-.82-1.12-1.65-2.23-2.47-3.35h0Z"/>
  <path class="cls-13" d="M245.04,182.61c-1.23,1.55-2.47,3.09-3.68,4.66-1.58,2.03-3.51,3.49-6.09,3.97h-.97c-.15-.07-.31-.12-.45-.21-2.27-1.46-3.68-4.03-7.04-4.15-1.74-.06-1.67-2.73-1.55-4.62-.75.21-1.3.38-1.85.52-2.55.64-4.46-.75-4.64-3.38-.14-2.03.68-3.74,1.81-5.32,2.93-4.12,5.88-8.22,8.88-12.41-.77-.66-1.51-.29-2.19-.32-1.16-.05-2.34.05-3.47-.17-1.82-.35-3.23-1.36-3.75-3.25-.5-1.82.36-3.24,1.55-4.49.87-.92,1.97-1.47,3.23-1.77,4.39-1.04,8.87-1.35,13.33-1.83.67-.07,1.78-.44,1.84.61.06,1.02-1.08.79-1.77.88-3.54.48-7.08,1-10.63,1.35-1.48.15-2.11.7-1.99,2.17.03.41-.11.83-.09,1.24.04,1.24-1.05,2.67.25,3.66,1.07.82,4.92-.34,5.87-1.56.61-.79,1.17-1.62,1.79-2.4.39-.49.75-1.39,1.51-.9.81.52.09,1.2-.26,1.69-3.17,4.37-5.7,9.18-9.24,13.3-1.03,1.19-1.9,2.52-2.83,3.8-2.02,2.8-1.91,2.68.67,4.8,1.8,1.48,2.86,1.26,4.14-.59,2.31-3.36,4.78-6.6,7.21-9.87.41-.56.83-1.66,1.63-1.11,1.07.73-.09,1.46-.5,2.04-2.32,3.25-4.74,6.43-7.04,9.69-1.51,2.15.15,5.47,2.79,5.73.84.08,1.08-.67,1.45-1.17,2.32-3.15,4.61-6.32,6.91-9.48.29-.4.57-.82.89-1.2.36-.43.73-1.12,1.38-.65s.15,1.04-.18,1.5c-1.9,2.63-3.8,5.26-5.7,7.88-.34.47-.69.93-1.04,1.41-2.06,2.85-1.53,4.53,1.79,5.7,1.5.53,2.16-.68,2.81-1.52,2.78-3.63,5.46-7.34,8.18-11.02.74-1,1.49-2,2.23-3,.34-.46.72-1.12,1.37-.66.66.46.15,1.04-.18,1.5-1.75,2.43-3.52,4.84-5.27,7.27-.38.54-.7,1.12-1.05,1.68h-.06ZM224.01,153.84c-2.4,1.32-3.18,3.31-1.93,4.73.25.29.67.57,1.02.59.5.02.59-.51.6-.92.03-1.44.62-2.87.31-4.4h0ZM220.52,178.63c-.52,1.12-.18,1.93.75,2.54s1.82.52,2.8-.38c-1.26-.66-2.06-1.88-3.54-2.15h-.01ZM230.36,185.62c-1.21-1.06-2.16-1.92-3.43-2.42-.15,2.67.47,3.16,3.43,2.42ZM235.27,189.46c-.6-1.11-1.35-1.61-2.58-1.83.39,1.5,1.16,1.96,2.58,1.83Z"/>
  <path class="cls-8" d="M155.79,175.11c.32-.49,1.42-.74.9-1.46-.95-1.31-.08-2.23.39-3.27,1.09,2.63,3.38,4.52,4.12,7.51.3,1.23,2.62,2.21,2.79,4.19-.63.05-.98,1.27-1.87.34-.88-.92-2.11-.77-3.26-.76h0c-.09-3.39-.65-3.96-3.98-4.01,0-.49,0-.98-.02-1.47.67-.04,1.02-.36.93-1.07h0Z"/>
  <path class="cls-2" d="M165.51,183.76c1.61,3.01,4.08,5.5,5.26,8.77l-.2.06c-.25-.57-.8-.41-1.24-.49-2.06-.24-4.07-1.42-6.21-.35-.05-.92-1.34-1.09-1.26-2.09h0c2.14.25,1.81-1.48,2-2.65.16-.94.02-1.93,0-2.9.05-.09.07-.18.06-.28.29-.02.58-.04.87-.06.14.13.28.35.36-.04.12-.07.23-.06.34.04h.02Z"/>
  <path class="cls-8" d="M176.54,196.63c1.78,1.33,3.55,2.65,5.33,3.98-1.91,1.56-.85,3.86-1.47,6.21-.74-1.61-.55-3.63-2.93-3.31.48-1.24,1.93-1.7,1.59-3.16-.99-.11-1.63,1.15-2.67.77-.22-.85-.82-1.47-1.64-1.32-.59.11-.12.82-.09,1.27-.8.12-1.59.23-2.52.37,0-1.84.96-2.43,2.59-2.26,1.57,0,.92-1.27,1.14-2.04l-.03.03.71-.53h-.01Z"/>
  <path class="cls-4" d="M148.3,194.64c.43-1.1.52-2.36,1.56-3.16,1.56.16,3.13.32,4.69.48,1.22.12,2.13.65,2,2.01-.12,1.21-1.03,1.62-2.15,1.56-2.06-.11-4.13-.14-6.09-.89h-.01Z"/>
  <path class="cls-8" d="M170.56,192.59l.2-.06c1.39.53,1.16-.59,1.33-1.3.82,1.12,1.65,2.23,2.47,3.35-.12,1.39-1.7.69-2.2,1.53-.83.34-1.67.67-2.5,1.01-.08-.03-.16-.06-.23-.1.07.04.13.09.2.13-.03.87-.06,1.95-1.26.86-.69-.62-1.47-1.29-1.7-2.3.91-1.42,2.31-2.27,3.69-3.12h0Z"/>
  <path class="cls-7" d="M170.56,192.59c-1.39.86-2.78,1.71-3.69,3.12-.98-2.43,1.47-2.52,2.45-3.62.45.08.99-.07,1.24.49h0Z"/>
  <path class="cls-15" d="M172.37,196.11c.5-.84,2.08-.14,2.2-1.53.76.25,1.26.72,1.29,1.57-.74-.06-1.56-.24-1.39.98-1.32.93-1.12-1.26-2.1-1.02h0Z"/>
  <path class="cls-2" d="M161.86,189.66c-1.78-.44-.96-2.51-2.12-3.34.18-.11.39-.19.55-.34.28-.26.35-.41.48.15.28,1.19.72,2.35,1.1,3.52h-.01Z"/>
  <path class="cls-7" d="M174.66,201.06c-.03-.44-.5-1.16.09-1.27.82-.15,1.41.47,1.64,1.32-.58.19-1.2,1.56-1.72-.06h0Z"/>
  <path class="cls-7" d="M175.86,197.13c-.21.77.43,2.03-1.14,2.04.06-.67.11-1.35.17-2.02.32,0,.65,0,.97-.02h0Z"/>
  <path class="cls-8" d="M175.86,197.13c-.32,0-.65,0-.97.02-.14,0-.28,0-.42-.02-.17-1.22.66-1.04,1.39-.98h-.02v1.02l.03-.03h0Z"/>
  <path class="cls-8" d="M163.94,183.83c0,.1-.02.19-.06.28-.53.14-1.05.27-1.58.41.41-.62.68-1.6,1.64-.69Z"/>
  <path class="cls-8" d="M158.87,181.67c-.04.07-.08.13-.11.2.04-.07.07-.14.11-.2h0Z"/>
  <path class="cls-8" d="M165.17,183.73c-.08.39-.23.17-.36.04.12-.06.24-.07.36-.04Z"/>
  <path class="cls-13" d="M97.07,145.69c4.12,2.63,4.34,3.68,1.6,7.92.37.69,1.16.54,1.74.81,2.44,1.14,3.15,2.8,2,5.25-.49,1.03-.67,1.64.36,2.51,2.01,1.69,2.16,3.49.82,5.71-1.1,1.8-2.8,2.86-4.71,3.5-6.3,2.09-12.63,4.07-18.95,6.08-.21.07-.48-.04-.73-.07-.41-1.57.88-1.54,1.75-1.82,5.07-1.61,10.14-3.2,15.22-4.79.4-.12.8-.24,1.19-.38,3.69-1.29,4.39-3.68,2.12-6.91-.75-1.06-1.53-.31-2.19-.11-4.31,1.26-8.58,2.64-12.88,3.93-.7.21-1.77.98-2.1-.21-.25-.9.94-.96,1.6-1.17,4.12-1.3,8.22-2.67,12.39-3.78,2.18-.58,2.69-1.56,1.7-3.49-.07-.15-.1-.32-.15-.48-.94-2.99-1.1-3.09-4.25-2.16-4.07,1.2-8.11,2.48-12.18,3.67-.7.2-1.8,1.03-2.15-.1-.34-1.08.98-1.08,1.7-1.3,4.05-1.26,8.11-2.47,12.17-3.72,3.28-1.01,3.27-1.03,2.34-4.21-.07-.24-.17-.48-.2-.72-.29-2.16-1.57-2.46-3.39-1.87-3.01.97-6.07,1.77-9.03,2.87-4.54,1.68-9.38,2.21-13.93,3.79-.49.17-1.04.34-1.29-.25-.36-.83.4-.96.92-1.14,1.25-.45,2.51-.88,3.78-1.25.84-.24,1.48-.6,1.96-1.38,2.45-4.02,2.22-4.32-2.3-5.69-2.49-.75-3.72-.28-4.7,2.15-1.27,3.15-2.91,6.16-4.45,9.2-.33.64-.43,1.99-1.55,1.44-.8-.39-.09-1.33.16-2.01.17-.46.33-.93.49-1.4,1.48-2.64,2.69-5.4,3.74-8.23.78-1.15,1.55-2.31,2.33-3.46,1.4-2.06,3.33-3.18,5.85-2.94,2.52.24,3.59,2.04,4.14,4.27-.49,1.99-.67,4.07-1.7,5.92-.5.89-.02,1.31.85,1.05,5.5-1.68,10.99-3.42,16.48-5.13,1.16.05,2.32.09,3.48.14l-.05-.04ZM70.02,142.52c1.67.86,3.32,1.05,4.92,1.38.39.08.84.32,1.15-.07.37-.46.07-.94-.14-1.38-1.02-2.11-3.33-2.14-5.94.07h.01ZM97.08,147.51c-.6-.03-.79.34-.65.77.38,1.19.19,2.86,1.48,3.35.73.27,1.08-1.02,1.04-1.85-.05-1.21-.83-1.89-1.88-2.27h0ZM100.06,160.05c1.2-.66,1.58-1.61,1.24-2.74-.28-.9-1-1.8-1.95-1.5-.96.3-.22,1.25-.07,1.88.18.79.51,1.55.79,2.37h-.01ZM102.17,167c1.09-2.62.83-3.34-1.22-3.78.38,1.19.75,2.34,1.22,3.78Z"/>
  <path class="cls-3" d="M65.65,145.85c-1.04,2.84-2.26,5.59-3.74,8.23-4.19.78-8.34,1.89-12.67,1.48,1.88-4.62,4.64-8.79,6.76-13.29,1.54-1.1,2.79-1.1,4.13.54,1.37,1.68,3.43,2.46,5.51,3.04h0Z"/>
  <path class="cls-13" d="M12.05,161.51c.12-.7-.17-1.62.8-1.62.76,0,.67.8.7,1.37.07,1.32.66,2.36,1.6,3.25.39.37,1.11.74.45,1.38-.57.55-1.07,0-1.5-.37-1.27-1.07-1.9-2.47-2.06-4.01h0Z"/>
  <path class="cls-10" d="M342.48,20.38c4.14.01,7.45,2.56,8.62,6.61,1.26,4.38-.55,9.07-4.45,11.43-.85.51-1.75,1.06-2.7,1.25-2.75.55-3.71,2.17-3.29,4.83.09.57.04,1.16.07,1.74.05,1.13-.31,2.04-1.56,2.11-1.29.07-1.97-.71-2.11-1.96-.67-5.89.15-8.53,5.71-10.45,4.82-1.67,6.25-5.6,3.98-9.37-1.35-2.24-3.79-3.15-6.21-2.3-2.76.96-4.07,2.92-3.6,5.71.23,1.34.16,2.39-1.34,2.68-1.63.32-2.2-.84-2.48-2.14-1.2-5.38,3.23-10.16,9.38-10.14h-.02Z"/>
  <path class="cls-10" d="M338.03,54.49c.12-1.17.79-1.76,1.97-1.68,1.12.08,1.59.88,1.53,1.86-.05.97-.59,1.73-1.7,1.73-1.22,0-1.73-.75-1.8-1.91Z"/>
  <path class="cls-13" d="M272.05,133.47c1.23.12,2.39.18,3.53.37.66.11,1.77-.05,1.61,1.03-.12.81-1.03.57-1.69.5-1.15-.13-2.31-.18-3.46-.35-.74-.11-2.04.24-1.97-.9.07-1.16,1.3-.55,1.97-.64h.01Z"/>
  <path class="cls-6" d="M344.7,124.72c.92,2.44,2.18,4.7,3.68,6.82.53,1.34.91,2.72,1.04,4.16-.06.51-.11,1.03-.17,1.54l-.17.11c-.13-.09-.26-.1-.4,0-1.95-.81-3.92-1.54-6.09-1.1v-.02c-.67-.76-1.39-.48-2.1-.07-4.93-.39-9.06,1.49-12.77,4.55-1.18-2.7-.73-5.65-1.33-8.43-.13-2.4-.28-4.79-.37-7.19-.05-1.14-.58-1.45-1.61-1.13-.24.07-.48.19-.72.18-1.47-.06-3.29,1.55-4.34-.28-1.15-2.01-.74-4.36-.19-6.55.29-1.14,1-.4,1.54-.16.39.18.8.39,1.13.02.37-.42.06-.81-.29-1.01-1.73-1-.84-1.69.21-2.46.94-.68,1.84-1.42,2.72-2.18.54-.46,1.51-.79,1.32-1.63-.22-.96-1.35-.21-2.06-.8,2.11-2.3,4.79-3.68,7.64-4.77,1.07-.41,1.95-.06,2.52.97.4.73.87,1.42,1.2,2.18.86,1.92,1.49,3.47,4.09,1.48,1.84-1.41,4.77.05,5.77,2.26,1,2.23.16,4.94-2.21,5.84-1.79.68-1.88,1.32-.92,2.76,1.05,1.58,1.93,3.28,2.88,4.93h0ZM325.13,120.71l.15.16c-.07.39-.34,1.01-.19,1.14.97.84,1.86.16,2.62-.4.96-.71,1.34-1.74.64-2.82-.77-1.19-1.94-1.22-3.03-.51-.77.5-1.8,1.04-1.33,2.26.17.43.74.18,1.14.18h0ZM331.12,105.63c-.76.15-1.05.54-.74,1.08.45.78.94,1.59,1.57,2.21.71.7,1.68,2.15,2.57,1.18.91-1-.99-1.3-1.44-2.07-.33-.57-.79-1.06-1.21-1.57-.25-.31-.53-.59-.75-.84h0ZM339.47,114.44c.73-.71,2.21-.73,2.72-2.04.17-.43-.32-.83-.76-.65-1.12.47-2.4.81-2.98,2-.19.39.29.71,1.02.69h0ZM329.94,112.47c-.16.69-.15,1.53.51,1.49,1.21-.08.92-1.34,1.13-2.14.14-.51.27-1.42-.51-1.4-1.39.02-.69,1.44-1.13,2.05Z"/>
  <path class="cls-5" d="M327.72,140.7c3.71-3.05,7.83-4.93,12.77-4.55.7.23,1.4.29,2.11.07v.02c.71,1.25.78,2-1.09,1.77-7.75-.96-12.13,1.3-15.83,8.61-3.48,6.88-9.4,9.36-16.57,9.94-.2-1,.52-1.33,1.21-1.69,5.92-.91,11.16-2.79,13.92-8.81.88-1.92,2.3-3.58,3.48-5.36h0Z"/>
  <path class="cls-7" d="M349.25,137.24c.06-.51.11-1.03.17-1.54.79.61.88,1.13-.17,1.54Z"/>
  <path class="cls-7" d="M348.68,137.34c.14-.08.27-.08.4,0-.14.26-.27.26-.4,0Z"/>
  <path class="cls-13" d="M39.88,31.81c.49-1.43-.02-2.33-.7-3.23-1.25-1.66-2.45-3.36-3.66-5.05-.31-.43-.5-.92.06-1.29.45-.29.79.06,1.06.37.86.99,1.7,2.01,2.53,2.99.28-.16.46-.21.52-.32.56-.99-.27-2.84,1.04-3.05,1.23-.2,1.4,1.61,1.95,2.57.76,1.34,1.3.86,1.95-.06,1.46-2.07,3.39-3.16,5.98-2.76.54.09,1.22.18,1.42.83.21.72-.38,1.08-.9,1.31-1.7.73-1.91,1.71-.88,3.26.58.87.77,1.99,1.22,3.25,1.19-.6,2.3-1.66,3.78-.87,1.68.9,2.48,2.42,3.05,4.09.35,1.02.72,2.1.7,3.15-.09,4.23-.83,8.42-.47,12.68.15,1.73-.75,2.46-2.5,1.4-.92-.55-1.94-.94-2.94-1.36-.96-.4-1.85-.69-2.37.71-.27.71-1.06,1.07-1.85,1.1-1.23.04-1.59.65-1.34,1.79.2.9.46,1.63,1.64,1.1.37-.17.87-.2,1.07.28.24.58-.19.91-.61,1.2-2.58,1.78-8.98.94-11-1.43-.4-.47-.72-.98-.59-1.58.18-.83.1-1.4-.8-1.75-1.05-.4-.99.6-1.38,1.01-.46.48-.82,1.06-1.3,1.5-1.47,1.36-3.18,2.31-5.21,1.6-2.08-.73-2.66-2.61-2.87-4.59-.09-.82-.12-1.68.02-2.49.38-2.25.95-4.46-2.8-3.35-.99.29-1.89-.47-2.29-1.53-.43-1.16.21-1.91,1.06-2.53,1.38-1.02,3.02-1.38,4.65-1.68,1.25-.23,1.34-.62.55-1.57-1.59-1.92-3.14-3.88-4.63-5.88-.71-.95-1.18-2.07-.46-3.24.79-1.29,2.07-1.28,3.33-1.04,2.16.42,4.3,1.09,5.56,3.01,1.01,1.53,2.27.67,3,.28,1.05-.56-.2-1.28-.5-1.91-.14-.29-.43-.51-.59-.8-.32-.59-1.38-1.21-.49-1.86.83-.61,1.21.52,1.71.98,1.7,1.6,2.56,4.15,5.27,4.76h0ZM34.6,34.96l.06-.08s-.02.12-.03.12c-.27.05-.8-.25-.56.44-1.26-.46-1.82.5-2.4,1.28-.06.09.54.96.89,1.01,1.37.17.82-1.28,1.37-1.84.09-.09.06-.31.09-.47.19-.15.38-.3.57-.44v-.02ZM41.1,49.47c.5-.07.96-.19,1.12-.75,0-.04-.1-.17-.16-.17-.57-.04-.85.35-1.12.77l-.21.33c.12-.06.24-.12.36-.17h0ZM27.94,48.07c0,.91-.05,1.5,0,2.07.17,1.62.54,3.21,2.34,3.74,1.54.46,2.8-.34,3.67-1.53.95-1.3,2.14-2.61,1-4.47-.87-1.42-1.29-3.04-1.73-4.64-.41-1.49-1.13-1.79-2.72-1.04-2.9,1.36-2.15,3.97-2.57,5.86h0ZM25.3,28.77c-1.42.1-1.75.94-1.05,2,1.09,1.66,2.36,3.21,3.59,4.78.28.36.61.82,1.23.45,1.02-.62,1.65-4.53.8-5.32-1.27-1.18-2.9-1.55-4.56-1.91h0ZM45.79,53.3c.11-1.72.37-3.8-1.67-3.53-1.72.23-3.63,1.45-4.41,3.28-.44,1.03,2.68,2.38,4.97,2.39,2.3,0,.99-1.5,1.12-2.14h-.01ZM50.05,33.46c-.78-1.94-1.72-3.76-3.42-5.06-.43-.33-.93-.91-1.49-.41-.48.43-.25,1.08-.03,1.63.6,1.54,1.22,3.07,1.81,4.61.27.7.58,1.71,1.34,1.49.91-.26,1.44-1.26,1.79-2.26ZM55.67,32.36c.55,2.94.43,5.77-1.06,8.45-.33.59-1.57,1.3-.13,1.88.93.37,2.14.73,2.61-.86.99-3.36.71-6.52-1.42-9.47ZM57.26,47.87c-.02-1.51-3.9-4.31-5.25-3.87-.38.12-.54.32-.51.69.04.42.12.88.57,1.01,1.44.43,2.41,1.19,2.75,2.8.17.8,1.21,1.28,1.97,1.08.69-.18.4-1.14.48-1.7h-.01ZM54.42,35.35c-.28-.71.52-2.24-.89-2.26-1.25-.02-1.83,1.13-1.59,2.54.19,1.14.17,2.31-.28,3.43-.2.49-.13,1.02.43,1.25.57.23.95-.18,1.23-.58.91-1.28,1.03-2.76,1.1-4.39h0ZM35.03,37.81c1.33-.55,3.16,1.04,3.35-1.5.05-.71.39-1.78-.65-1.81-1.95-.06-2.22,1.54-2.69,3.31h0ZM23.49,42.13c1.15,2.03,2.48.93,3.72.2.53-.31.72-1.02.46-1.52-.29-.54-.88-.14-1.32,0-1.01.31-2.08.49-2.86,1.31h0ZM41.94,40.12c-.19,2.38-.35,4.27-.55,6.7,1.72-2.3,1.94-4.18.55-6.7ZM49.02,23.56c-1.64-.04-2.79.75-2.87,1.99-.07,1.11,1.25,1.52,2.79,2.46-.93-2-2.05-3.4.08-4.45ZM44.49,41.9c-.16,1.78-.72,3.52-.94,5.31,1.15-1.61,1.29-3.42.94-5.31ZM42.17,29c.5-1.45.17-2.42-1.03-3.35,0,1.32-.31,2.48,1.03,3.35ZM39.94,50.35c-.03-.29-.17-.44-.46-.35-.41.12-.71.39-.76.83-.03.27.13.46.44.35.39-.14.7-.39.79-.83h-.01ZM48.89,28.12s-.07-.1-.12-.16c-.05.05-.14.1-.15.15,0,.06.08.12.12.18.05-.06.1-.11.15-.17Z"/>
  <path class="cls-3" d="M93.59,145.55c-5.49,1.72-10.98,3.45-16.48,5.13-.86.26-1.35-.15-.85-1.05,1.03-1.85,1.21-3.93,1.7-5.92,1.57-.83,2.76-2.08,3.85-3.45,1.29-1.63,2.67-1.62,3.86.02,2,2.74,4.77,4.27,7.91,5.26h.01Z"/>
  <path class="cls-14" d="M221.57,18.33c-.05-.05-.1-.1-.15-.14.05-.04.11-.12.16-.12s.1.09.15.13c-.05.04-.11.09-.16.13Z"/>
  <path class="cls-13" d="M93.94,99.53c1.09.41,3.13.42,2.89,1.82-.14.81-.75,3.19-3,2.8-1.39-.24-2.79-.53-2.72-2.23.07-1.52,1.26-2.21,2.82-2.39h.01ZM95.94,101.99c-1.26-.69-2.08-1.21-3.01-.38-.11.1-.12.53-.02.64.9.9,1.73.29,3.03-.25h0Z"/>
  <path class="cls-13" d="M86.43,90.34c1.44-.51,2.31-1.78,3.53-2.59.46-.3.93-.46,1.28.06.28.42-.03.8-.34,1.06-.93.81-1.85,1.64-2.85,2.36-1.12.81-1.39-.07-1.59-.94l-.03.04h0Z"/>
  <path class="cls-13" d="M91.52,94.17c-.27.79.49,2.26-.77,2.26-1.19,0-.74-1.45-.72-2.27.02-.81-.52-2.25.73-2.24,1.27.01.48,1.47.76,2.25Z"/>
  <path class="cls-13" d="M80,93.15c1.01.57,2.37.86,2.89,2.2.15.39-.32.83-.75.63-1.09-.5-2.28-.97-2.93-2.06-.26-.44.24-.67.79-.77Z"/>
  <path class="cls-3" d="M172.57,107.8c-1.56-.36-2.22-1.43-2.34-2.94.17-.98.34-1.96.52-2.94,1.24-1.85,2.45-3.74,4.66-4.61v-.02c-.09,3.36.77,6.85-1.39,9.92-.48.2-.97.39-1.45.59h0Z"/>
  <path class="cls-12" d="M150.54,119.32c-.07.49-.13.99-.2,1.48-1.64-2.37-3.3-4.73-4.92-7.12-.29-.42-.91-.95-.16-1.47.97-.69,1.06.35,1.36.82,1.33,2.08,2.62,4.19,3.92,6.29Z"/>
  <path class="cls-1" d="M133.57,138.65c-.21.69.35,1.88-.6,1.88-1.07,0-1.53-1.11-1.54-2.18,0-1.01.57-2.08,1.46-1.95,1.19.17.34,1.53.69,2.24h-.01Z"/>
  <path class="cls-12" d="M163.65,96.08c-1.41,1.23-2.5,1.99-4.09,2.57.42-2.39,1.55-3.14,4.09-2.57Z"/>
  <path class="cls-12" d="M156.85,100.7c-1.54,1-2.6,1.7-3.73,2.43-.12-2.49.52-2.98,3.73-2.43Z"/>
  <path class="cls-12" d="M138.44,114.75c.4-2.12,1.35-2.82,3.3-2.37-.75,1.2-1.84,1.71-3.3,2.37Z"/>
  <path class="cls-12" d="M135.42,117c-.96.64-1.83,1.22-2.81,1.87.14-2.35.73-2.74,2.81-1.87Z"/>
  <path class="cls-12" d="M150.53,104.8c-1.47.93-2.2,1.65-3.57,1.93.67-1.56,1.62-1.95,3.57-1.93Z"/>
  <path class="cls-13" d="M172.57,107.8c.48-.2.97-.39,1.45-.59.44.77.67,1.7,1.74,2.11,1.02-1.79,1.51-3.85,2.8-5.49,1.37-1.75,2.93-2.99,5.31-1.96,2.3.99,3.17,2.81,2.87,5.22-.11.9-.18,1.9-.61,2.65-1.7,2.9-.67,5.2,1.17,7.59,2.12,2.74,3.97,5.69,5.94,8.55,3.06,4.78,6.01,9.62,9.47,14.13,5.01,7.55,10.01,15.09,15.02,22.64.32.48.68.94,1.02,1.41.39.53,1,1.17.29,1.72-.8.61-1.15-.32-1.49-.81-2.92-4.15-5.88-8.27-8.69-12.49-8.08-12.11-16.03-24.3-24.19-36.35-1.25-1.85-1.55-3.31-.47-5.17,1.07-1.83.74-3.12-1.52-3.56-.08-.02-.15-.08-.23-.09-1.32-.05-2.33-2.08-3.76-.81-1.49,1.33-1.56,4.8-.54,6.67.55,1.01,2.3,2.41,1.21,3.06-1.44.86-1.79-1.4-2.45-2.36-1.42-2.04-3.41-3.67-4.35-6.05v-.02ZM182.32,103.27c-.75.13-2.17.4-1.82,1.06.74,1.43,2.6,1.57,4.04,2.1.72.26.81-.41.68-.91-.38-1.44-1.28-2.28-2.91-2.26h.01Z"/>
  <path class="cls-15" d="M204.38,127.75c-.31,1.34,1.02,3.47-1.34,3.65-2.45.19-2.07-2.03-2.25-3.62-.13-1.15-.27-2.3-.39-3.45-.12-1.11.13-2.03,1.44-2.15,1.18-.11,1.89.5,2.06,1.66.19,1.31.32,2.62.47,3.9h0Z"/>
  <path class="cls-13" d="M175.39,97.29v.02c-.18-.59-.75-1.22-.02-1.77.51-.39.9.15,1.27.42,1,.73,2.08.91,3.27.58.42-.11.87-.04,1.01.43.2.65-.31.84-.78,1.02-1.71.62-3.22-.12-4.76-.71h0Z"/>
  <path class="cls-13" d="M175.71,90.55c1.14.55,2.17,1.03,3.16,1.56.3.16.45.58.2.84-.75.78-1.54.21-2.23-.13-.76-.37-1.78-.62-1.72-1.77.02-.33.35-.52.58-.49h0Z"/>
  <path class="cls-13" d="M188.85,93.16c-.72.86-1.03,2.3-2.45,2.67-.46.12-.74-.43-.5-.83.61-1.03,1.06-2.26,2.31-2.73.42-.16.74.21.65.89h0Z"/>
  <path class="cls-12" d="M233.7,126.86c-2.07,2-3.68,2.5-5.57,1.32-.33-.21-.7-.58-.44-1.01.12-.2.54-.3.83-.3,1.51-.03,3.02-.01,5.18-.01h0Z"/>
  <path class="cls-11" d="M226.24,120.72c.11-.1.27-.3.32-.28.3.15.23.38.05.59-.14-.09-.26-.19-.37-.31h0Z"/>
  <path class="cls-14" d="M236.11,50.22l.57-.15c-.03.19-.06.38-.08.57-.16-.14-.32-.28-.49-.42h0Z"/>
  <path class="cls-13" d="M282.35,184.12c.91.26,2.51-.56,2.55.59.05,1.48-1.66.89-2.58.91-1.05.02-3.02.57-2.98-.64.05-1.6,2.01-.42,3.01-.87h0Z"/>
  <path class="cls-11" d="M155.79,175.11c.09.7-.26,1.02-.93,1.07,0-.62.33-.96.93-1.07Z"/>
  <path class="cls-15" d="M175.83,197.16v-1.03c.24.17.47.33.71.5-.24.18-.47.36-.71.53Z"/>
  <path class="cls-1" d="M224.01,153.84c.32,1.54-.28,2.96-.31,4.4,0,.41-.1.94-.6.92-.35,0-.77-.3-1.02-.59-1.25-1.42-.47-3.41,1.93-4.73h0Z"/>
  <path class="cls-12" d="M220.52,178.63c1.48.27,2.28,1.49,3.54,2.15-.98.9-1.87.99-2.8.38-.92-.6-1.27-1.42-.75-2.54h.01Z"/>
  <path class="cls-12" d="M230.36,185.62c-2.96.74-3.58.25-3.43-2.42,1.27.5,2.22,1.36,3.43,2.42Z"/>
  <path class="cls-12" d="M235.27,189.46c-1.43.12-2.19-.33-2.58-1.83,1.24.22,1.98.72,2.58,1.83Z"/>
  <path class="cls-11" d="M169.83,197.15c-.07-.04-.13-.09-.2-.13.08.03.16.06.23.1l-.03.03Z"/>
  <path class="cls-1" d="M70.02,142.52c2.6-2.2,4.92-2.18,5.94-.07.21.43.51.92.14,1.38-.31.39-.76.15-1.15.07-1.61-.34-3.25-.52-4.92-1.38h-.01Z"/>
  <path class="cls-12" d="M97.08,147.51c1.05.38,1.83,1.06,1.88,2.27.03.83-.31,2.12-1.04,1.85-1.29-.49-1.1-2.16-1.48-3.35-.14-.43.05-.8.65-.77h0Z"/>
  <path class="cls-1" d="M100.06,160.05c-.28-.82-.61-1.58-.79-2.37-.15-.63-.88-1.58.07-1.88s1.68.6,1.95,1.5c.35,1.13-.03,2.08-1.24,2.74h.01Z"/>
  <path class="cls-12" d="M102.17,167c-.47-1.45-.84-2.6-1.22-3.78,2.05.45,2.31,1.17,1.22,3.78Z"/>
  <path class="cls-13" d="M325.13,120.71c-.4,0-.97.25-1.14-.18-.48-1.23.55-1.76,1.33-2.26,1.1-.71,2.26-.68,3.03.51.7,1.08.33,2.11-.64,2.82-.77.57-1.65,1.24-2.62.4-.15-.13.12-.75.19-1.14.32-.03.65-.01.95-.11.48-.16,1.05-.54.78-1.03-.43-.79-.96-.17-1.36.19-.23.2-.35.53-.52.8Z"/>
  <path class="cls-13" d="M331.12,105.63c.22.25.5.53.75.84.42.51.88,1.01,1.21,1.57.45.77,2.36,1.07,1.44,2.07-.89.97-1.86-.48-2.57-1.18-.64-.63-1.12-1.43-1.57-2.21-.31-.54-.02-.93.74-1.08h0Z"/>
  <path class="cls-13" d="M339.47,114.44c-.73.02-1.21-.3-1.02-.69.59-1.2,1.86-1.54,2.98-2,.44-.18.93.22.76.65-.51,1.31-2,1.32-2.72,2.04h0Z"/>
  <path class="cls-13" d="M329.94,112.47c.44-.61-.26-2.03,1.13-2.05.78-.01.65.89.51,1.4-.21.8.08,2.06-1.13,2.14-.66.04-.67-.8-.51-1.49Z"/>
  <path class="cls-7" d="M342.6,136.22c-.71.22-1.42.16-2.11-.07.72-.41,1.43-.69,2.11.07Z"/>
  <path class="cls-11" d="M27.94,48.07c.42-1.89-.33-4.5,2.57-5.86,1.59-.75,2.32-.45,2.72,1.04.44,1.61.85,3.22,1.73,4.64,1.14,1.86-.05,3.17-1,4.47-.87,1.18-2.12,1.98-3.67,1.53-1.79-.53-2.16-2.12-2.34-3.74-.06-.57,0-1.16,0-2.07h0Z"/>
  <path class="cls-11" d="M25.3,28.77c1.66.36,3.29.73,4.56,1.91.85.79.23,4.7-.8,5.32-.62.37-.95-.09-1.23-.45-1.23-1.57-2.5-3.12-3.59-4.78-.7-1.07-.37-1.91,1.05-2h0Z"/>
  <path class="cls-11" d="M45.79,53.3c-.13.65,1.19,2.15-1.12,2.14-2.29,0-5.41-1.36-4.97-2.39.78-1.84,2.69-3.05,4.41-3.28,2.04-.27,1.78,1.81,1.67,3.53h.01Z"/>
  <path class="cls-11" d="M50.05,33.46c-.35,1-.89,2-1.79,2.26-.76.22-1.07-.79-1.34-1.49-.59-1.54-1.21-3.07-1.81-4.61-.22-.55-.45-1.2.03-1.63.56-.5,1.06.07,1.49.41,1.7,1.31,2.64,3.13,3.42,5.06Z"/>
  <path class="cls-11" d="M35.03,37.81c.47-1.78.75-3.37,2.69-3.31,1.04.03.71,1.1.65,1.81-.19,2.54-2.02.95-3.35,1.5h0Z"/>
  <path class="cls-11" d="M23.49,42.13c.78-.82,1.85-1.01,2.86-1.31.45-.14,1.04-.54,1.32,0,.26.49.07,1.21-.46,1.52-1.24.72-2.57,1.83-3.72-.2h0Z"/>
  <path class="cls-11" d="M49.02,23.56c-2.14,1.06-1.01,2.45-.08,4.45-1.54-.94-2.87-1.35-2.79-2.46.08-1.24,1.24-2.03,2.87-1.99Z"/>
  <path class="cls-11" d="M44.49,41.9c.34,1.89.21,3.7-.94,5.31.22-1.79.78-3.52.94-5.31Z"/>
  <path class="cls-11" d="M34.03,35.41c-.03.16,0,.38-.09.47-.56.56,0,2.02-1.37,1.84-.35-.04-.95-.92-.89-1.01.58-.78,1.14-1.74,2.4-1.28l-.04-.03h-.01Z"/>
  <path class="cls-11" d="M42.17,29c-1.34-.87-1.04-2.03-1.03-3.35,1.21.93,1.53,1.9,1.03,3.35Z"/>
  <path class="cls-11" d="M39.94,50.35c-.09.44-.4.68-.79.83-.3.11-.47-.08-.44-.35.05-.44.35-.71.76-.83.29-.08.44.07.46.35h.01Z"/>
  <path class="cls-11" d="M40.95,49.32c.26-.42.55-.81,1.12-.77.06,0,.17.13.16.17-.16.56-.62.68-1.12.75l-.15-.15h0Z"/>
  <path class="cls-7" d="M41.1,49.47c-.12.06-.24.12-.36.17l.21-.33.15.15h0Z"/>
  <polygon class="cls-8" points="34.64 35 34.66 34.88 34.6 34.96 34.64 35"/>
  <path class="cls-2" d="M48.89,28.12c-.05.06-.1.11-.15.17-.04-.06-.12-.12-.12-.18s.1-.1.15-.15c.04.06.09.12.12.16Z"/>
  <path class="cls-8" d="M34.08,35.44c-.24-.69.29-.4.56-.44l-.04-.04c-.19.15-.38.3-.57.45l.04.03h0Z"/>
  <path class="cls-1" d="M95.94,101.99c-1.3.55-2.13,1.15-3.03.25-.11-.11-.1-.54.02-.64.94-.83,1.75-.31,3.01.38h0Z"/>
  <path class="cls-1" d="M182.32,103.27c1.62-.02,2.53.82,2.91,2.26.13.49.03,1.17-.68.91-1.45-.53-3.3-.67-4.04-2.1-.35-.67,1.07-.94,1.82-1.06h-.01Z"/>
  <path class="cls-12" d="M325.13,120.71c.17-.27.29-.59.52-.8.4-.35.93-.98,1.36-.19.27.49-.3.87-.78,1.03-.3.1-.63.08-.95.11l-.15-.16h0Z"/>
  <path class="cls-11" d="M155.54,187.39c3.68,6.06,7.11,12.24,12.04,17.4s12.28,7.99,19.06,8.94c6.29.88,9.01-8.75,2.66-9.64-5.95-.83-11.74-3.06-15.77-7.6-3.75-4.23-6.43-9.34-9.35-14.15-3.34-5.49-11.99-.47-8.63,5.05h0Z"/>
  <path class="cls-11" d="M188.9,203.51c-.28-.02-.56-.05-.84-.09l1.33.18c-.7-.1-1.39-.24-2.06-.44-1.24-.36-2.74-.14-3.85.5-1.04.61-2.03,1.8-2.3,2.99-.61,2.67.8,5.38,3.49,6.15,1.38.39,2.81.59,4.23.7,1.22.1,2.7-.63,3.54-1.46s1.52-2.29,1.46-3.54-.48-2.63-1.46-3.54-2.15-1.36-3.54-1.46h0Z"/>
  <path class="cls-11" d="M188.3,213.3c6.43,0,6.45-10,0-10s-6.45,10,0,10h0Z"/>
  <path class="cls-11" d="M187.2,203.28h-.08l1.33.18c-.1,0-.19-.04-.28-.07l1.19.5c-.09-.04-.17-.08-.25-.14-.57-.37-1.19-.56-1.86-.59-.66-.15-1.33-.12-1.99.09-.65.15-1.22.45-1.7.89-.54.35-.97.82-1.29,1.4l-.5,1.19c-.24.89-.24,1.77,0,2.66l.5,1.19c.44.75,1.04,1.35,1.79,1.79.05.04.1.07.16.1.02,0,.05.02.07.03.21.09.41.17.62.26.21.1.42.19.64.27.05.02.1.03.16.04.24.05.54.07.75.1.23.03.5.08.75.1.69.03,1.33-.12,1.93-.43.62-.2,1.16-.55,1.61-1.03.49-.45.83-.99,1.03-1.61.31-.6.46-1.24.43-1.93l-.18-1.33c-.24-.85-.67-1.58-1.29-2.21l-1.01-.78c-.78-.45-1.62-.68-2.52-.68h-.01Z"/>
  <path class="cls-11" d="M186.35,202.71s-.08,0-.13,0l1.33.18c-.15-.02-.29-.06-.43-.11l1.19.5c-.14-.06-.26-.13-.39-.21-.57-.37-1.19-.56-1.86-.59-.66-.15-1.33-.12-1.99.09-.65.15-1.22.45-1.7.89-.54.35-.97.82-1.29,1.4l-.5,1.19c-.24.89-.24,1.77,0,2.66l.5,1.19c.44.75,1.04,1.35,1.79,1.79.08.05.16.11.24.15.04.02.08.04.11.05.4.18.87.4,1.28.54.08.03.16.05.24.07.26.05.55.08.79.11.26.03.53.08.79.1.69.03,1.33-.12,1.93-.43.62-.2,1.16-.55,1.61-1.03.49-.45.83-.99,1.03-1.61.31-.6.46-1.24.43-1.93l-.18-1.33c-.24-.85-.67-1.58-1.29-2.21l-1.01-.78c-.78-.45-1.62-.68-2.52-.68h.03Z"/>
  <path class="cls-11" d="M185.8,202.28c-2.63-.49-3.49-1.63-5.89-3.42-2.08-1.55-4.1-2.97-5.74-5.02s-5.31-1.76-7.07,0c-2.09,2.09-1.69,4.95,0,7.07,2.16,2.71,5.05,4.49,7.76,6.58s4.82,3.78,8.27,4.43c2.65.5,5.39-.73,6.15-3.49.67-2.44-.82-5.65-3.49-6.15h.01Z"/>
  <path class="cls-11" d="M163.13,185.84c.65,1.43,1.72,2.64,2.5,3.99.85,1.46,1.66,2.94,2.49,4.41l1.69-2.2.59.42-.05-.1q.04.1,0,0c-.02-.05-.03-.1-.05-.14-.06-.19-.12-.39-.17-.58-.11-.42-.21-.85-.37-1.26-.37-.96-.88-1.75-1.75-2.34-.65-.44-1.69-.15-2.05.54-.4.76-.16,1.58.54,2.05.22.15-.05-.1.04.04.02.02.2.22.09.08-.13-.15.08.12.1.16.04.07.08.15.12.22.18.34-.04-.16.03.05.03.1.07.2.1.3.07.22.13.44.19.66.3,1.14.62,2.36,1.85,2.79s2.3-1.12,1.69-2.2c-.83-1.47-1.64-2.95-2.49-4.41-.79-1.35-1.86-2.56-2.5-3.99-.33-.72-1.42-.95-2.05-.54-.74.48-.89,1.29-.54,2.05h0Z"/>
  <path class="cls-11" d="M169.15,193.63c1.93,0,1.93-3,0-3s-1.93,3,0,3h0Z"/>
  <path class="cls-11" d="M169.75,194.57c1.93,0,1.93-3,0-3s-1.93,3,0,3h0Z"/>
  <path class="cls-11" d="M171.79,195.25c1.93,0,1.93-3,0-3s-1.93,3,0,3h0Z"/>
  <path class="cls-11" d="M170.77,195.25c1.93,0,1.93-3,0-3s-1.93,3,0,3h0Z"/>
  <path class="cls-11" d="M170.77,194.99c1.93,0,1.93-3,0-3s-1.93,3,0,3h0Z"/>
  <path class="cls-11" d="M155.86,173.58c0,.07,0,.14,0,.21.03-.21.04-.26.02-.14-.02.12-.04.24-.07.36-.05.2-.11.4-.17.6-.15.48-.31.97-.46,1.45-.31.97-.62,1.93-.93,2.9-.24.75.28,1.67,1.05,1.85.82.19,1.59-.25,1.85-1.05.32-1,.65-2.01.97-3.01s.72-2.06.78-3.17c.04-.78-.72-1.53-1.5-1.5-.85.04-1.45.66-1.5,1.5h-.03Z"/>
  <path class="cls-11" d="M157.76,176.75s0-.04,0-.06l.05.4v-.14l-.05.4s.02-.09.04-.13l-.15.36s.03-.06.05-.09c.11-.17.17-.36.18-.56.04-.2.04-.4-.03-.6-.05-.2-.14-.37-.27-.51-.11-.16-.25-.29-.42-.39l-.36-.15c-.27-.07-.53-.07-.8,0l-.36.15c-.23.13-.4.31-.54.54,0,.02-.02.03-.03.05,0,0,0,.02,0,.03h0c-.05.12-.11.26-.15.37,0,.04-.03.07-.03.11h0c-.02.13-.04.29-.05.42v.12h0c.02.14.03.29.05.42,0,.02,0,.04,0,.06.05.2.14.37.27.51.11.16.25.29.42.39.17.11.36.17.56.18.2.04.4.04.6-.03l.36-.15c.23-.13.4-.31.54-.54l.15-.36c.07-.27.07-.53,0-.8h-.02Z"/>
  <path class="cls-11" d="M156.72,178.41c.11.09.21.19.3.3l-.23-.3c.21.29.39.61.58.91.22.33.44.65.68.96.53.7,1.09,1.38,1.71,2.01.55.56,1.58.59,2.12,0s.59-1.52,0-2.12c-.49-.5-.94-1.02-1.37-1.57l.23.3c-.31-.4-.61-.82-.88-1.25-.3-.47-.57-1.02-1.02-1.37-.33-.26-.63-.44-1.06-.44-.37,0-.81.16-1.06.44s-.46.66-.44,1.06c.02.37.13.82.44,1.06h0Z"/>
  <path class="cls-11" d="M163.66,180.86l-.31-.25c-.31-.25-.64-.46-1.06-.44-.34.02-.64.11-.91.32-.55.43-.81,1.32-.39,1.94.48.7.97,1.4,1.45,2.1.44.64.94,1.26,1.25,1.97l-.15-.36c.08.2.14.4.18.61l-.05-.4c0,.05,0,.11.02.16.04.41.14.76.44,1.06.26.26.69.46,1.06.44.75-.03,1.58-.66,1.5-1.5-.06-.67-.24-1.26-.56-1.86-.22-.41-.51-.79-.77-1.18-.59-.85-1.18-1.71-1.77-2.56l-2.36,1.82.31.25c.32.26.63.44,1.06.44.37,0,.81-.16,1.06-.44s.46-.66.44-1.06c-.02-.37-.14-.82-.44-1.06h0Z"/>
  <path class="cls-11" d="M168.13,187.99l-.41-1.26-2.74,1.16c.38.62.64,1.23.82,1.94l2.74-1.16c-1.24-2.72-3.04-5.11-4.75-7.54s-3.42-5.19-4.84-7.96c-.88-1.72-3.47-.2-2.59,1.51,1.43,2.77,3.05,5.42,4.84,7.96s3.51,4.82,4.75,7.54c.72,1.58,3.16.44,2.74-1.16-.24-.94-.62-1.83-1.12-2.65-.86-1.41-3.29-.51-2.74,1.16l.41,1.26c.6,1.83,3.5,1.04,2.89-.8h0Z"/>
  <path class="cls-11" d="M156.73,176.16s.04-5,0-5-.04,5,0,5h0Z"/>
  <path class="cls-11" d="M157.16,176.13c.19-.03.15-.25.16-.4.04-.98.02-1.97,0-2.95v-1.3c0-.16.04-.39-.02-.54-.08-.21-.23-.23-.46-.23v5c.13-.1.09-.3.09-.44,0-.5,0-1,0-1.49,0-1.01.02-2.01-.02-3.02,0-.2-.06-.51-.34-.32-.1.07-.12.17-.14.28-.08.38-.02.85-.02,1.24,0,1.14,0,2.28,0,3.42,0,.19-.04.69.14.84s.42-.04.61-.04c.25,0,.47.18.61.38.29.43.31.99.57,1.43s.62.85.85,1.33c.25.51.34,1.08.42,1.63.11.7.22,1.4.33,2.1-.03-.21.02-.54.02-.73v-3.54c0-.24.02-.5-.02-.73-.13-.85-.25-1.71-.4-2.55-.14-.77-.43-1.37-.87-2-.2-.28-.39-.56-.52-.88s-.17-.67-.33-.96c-.15-.28-.44-.51-.77-.46-.13.02-.29.12-.42.08-.17-.05-.19-.29-.21-.44v.09-.11,4.91c.03-.24.34-.52.46-.18v-.34s0,.05,0,.07v-4.66s-.02.08-.06.1c-.05.04-.02.79-.02.73v1.77c0,.18,0,2.5.02,2.5.19,0,.41,0,.46.23v-5c0,.11-.03.17-.15.19-.09.02-.03,2.3-.02,2.5,0,.19.08,2.49.02,2.5h.02Z"/>
</svg>