<?xml version="1.0" encoding="UTF-8"?>
<svg id="Calque_1" data-name="Calque 1" xmlns="http://www.w3.org/2000/svg" viewBox="0 0 101.76 110.86">
  <defs>
    <style>
      .cls-1 {
        fill: #FFDE15;
        stroke-width: 0px;
      }
    </style>
  </defs>
  <path class="cls-1" d="M14.92,33.13l-3.87,4.95,57.68,15.23c-.47-.97-.74-1.99-.81-3.07l1.23,9.17v-1.61c-.4,3.06-.81,6.12-1.22,9.17.26-1.71.65-3.04,1.31-4.64l-3.48,8.24c3.18-6.13,7.67-12.01,11.86-17.5l-5.4,6.98.94-.85-15.23,8.88,1.14-.43h-18.35l1.08.16-8.24-3.48.92.62-12.38-12.38.69.93-3.48-8.24.39,1.09-1.23-9.17c.15,1.01.11,2.02-.11,3.02l1.23-9.17c-1.65,9.08-2.52,16.67.38,25.65,4.35,13.5,14.23,22.41,27.6,26.65l-8.24-3.48.93.62-15.86-20.63.4,1.41-1.23-9.17c.81,10.36,2.69,19,7.94,28.05l-3.48-8.24.43,1.63-1.23-9.17c.33,8.36.91,16.56,5.35,23.96,2.78,4.63,6.08,8.97,10.24,12.44,7.2,6,14.71,10.11,24.4,10.11,8.46,0,18.58-3.76,24.4-10.11s10.52-15.21,10.11-24.4c-.39-8.66-3.17-18.63-10.11-24.4-1.17-.97-2.23-1.93-3.28-3.03l5.4,6.98c-.65-.73-1.17-1.53-1.57-2.42l3.48,8.24-.44-1.38,1.23,9.17c-.48-5.13-.07-9.98-1.65-15.15-1.39-4.53-3.69-8.46-5.76-12.63l3.48,8.24c-.34-.89-.59-1.8-.73-2.74l1.23,9.17c-.86-6.58-1.19-12.84-3.8-19.02-4.57-10.83-13.42-17.47-24.43-20.96,2.75,1.16,5.5,2.32,8.24,3.48l-.98-.52,6.98,5.4-.79-.74c1.8,2.33,3.6,4.66,5.4,6.98l-.6-.92c1.16,2.75,2.32,5.5,3.48,8.24-.34-.7-.58-1.44-.69-2.21l1.23,9.17c-.12-1.26-.11-2.33.03-3.58l-1.23,9.17c1.42-7.8,2.37-15.07.38-22.89-2.36-9.25-8.96-17.62-16.94-22.65S50.07-1.31,40.69,1.1c-10.29,2.63-17.12,9.43-23.1,17.65-3.51,4.83-7.26,9.73-10.31,14.87C.76,44.6-2.41,59.34,2.13,71.64c4.27,11.58,11.74,20.7,24.1,24.1,10.75,2.96,26.26.49,33.58-8.88l3.87-4.95c5.89-7.53,10.11-14.42,10.11-24.4,0-8.46-3.76-18.58-10.11-24.4s-15.21-10.52-24.4-10.11c-8.49.38-18.91,3.08-24.4,10.11h0l.04.02Z"/>
</svg>