<?xml version="1.0" encoding="UTF-8"?>
<svg id="Calque_1" data-name="Calque 1" xmlns="http://www.w3.org/2000/svg" viewBox="0 0 131.1 122.72">
  <defs>
    <style>
      .cls-1 {
        fill: #FFDE15;
        stroke-width: 0px;
      }
    </style>
  </defs>
  <path class="cls-1" d="M11.63,37.24c1.8-4.2,3.63-8.94,7.25-11.93,4.22-3.49,10.39-4.7,15.51-6.3,11.4-3.57,22.88-6.93,34.57-9.43.96-.21,2.62-1.01,3.44-.85,1.28.24,1.73,1.73,2.55,3.17,1.3,2.29,2.59,4.57,3.89,6.86,3.08,5.43,6.16,10.87,9.25,16.3,5.92,10.43,11.83,20.86,17.75,31.29,2.79,4.92,5.59,9.85,8.38,14.77,1.48,2.61,2.96,5.21,4.44,7.82.79,1.4,1.88,2.85,2.46,4.35.86,2.21,1.47,1.6-.88,3.14-8.77,5.74-19.87,9.26-29.95,11.83-11.2,2.85-22.65,3.81-34.14,4.65-5.25.38-11.15,1.61-16.4,1.19s-8.37-9.03-10.82-13.08C16.15,79.83,4.65,55.49,9.69,30.12c1.07-5.39-7.2-7.7-8.28-2.28-5.27,26.53,5,51.91,18.27,74.44,3.2,5.44,6.35,11.24,10.1,16.32,3.96,5.39,9.76,4.1,15.75,3.67,13.99-1.01,28.14-1.61,41.9-4.53,12.39-2.63,24.42-7.09,35.59-13.06,4.24-2.26,9.13-5.08,7.89-10.7-.53-2.43-2.17-4.63-3.37-6.76-2.3-4.06-4.6-8.11-6.9-12.17-7.23-12.75-14.46-25.49-21.69-38.24-3.58-6.32-7.17-12.64-10.75-18.96-1.62-2.86-3.24-5.72-4.86-8.57-1.45-2.56-2.69-5.86-5.06-7.74-4.78-3.8-14.94.46-20.08,1.73-7.52,1.87-14.97,4.03-22.38,6.31-6.91,2.13-14.79,3.79-20.83,7.98-5.39,3.73-8.25,9.49-10.76,15.36-2.15,5.02,5.24,9.4,7.41,4.33h-.01Z"/>
  <path class="cls-1" d="M13.69,28.89c.68-1.08,1.34-1.76,2.31-2.59l-6.74-5.2c-1.34,2.11-2.69,4.21-4.03,6.32l3.71-2.13c.63,2.97,1.54,3.78,2.72,2.43.56-.51,1.17-.96,1.81-1.36,1.31-.84,2.63-1.45,4.16-1.76,2.87-.59,6.08-.07,8.94.36,5.4.8,7.73-7.47,2.28-8.28-8.7-1.28-20.8-1.4-25.58,7.85-1.76,3.41-.25,8.11,3.66,9.21,5.19,1.46,7.55-4.87,9.75-8.31,2.75-4.31-3.21-8.24-6.74-5.2-1.46,1.26-2.62,2.7-3.65,4.33-2.96,4.68,4.46,8.99,7.41,4.33h-.01Z"/>
  <path class="cls-1" d="M73.57,28.05c-7.74-5.37-16.71-5.97-25.72-7.06l7.99,1.07c-2.04-.28-3.93-.65-5.83-1.44l7.18,3.03c-2.6-1.57-1.58-.41,3.06,3.46,5.69,5.99,5.48,5.31-.63-2.06-2.3-2.31-5.1-4.69-7.98-6.25-10.79-5.85-21.46-4.77-32.15.31-9.32,4.43-14.88,16.06-14.88,25.94,0,10.78,5.8,20.35,14.88,25.94,7.67,4.72,17.14,5.86,25.81,3.64,4.63-1.18,8.87-3.6,13.19-5.59l-7.18,3.03c4.79-2.01,9.68-3.34,14.83-4.04l-7.99,1.07,1.71-.17-30.04-30.04c.93,8.39,1.92,14.35,6.27,21.79,1.76,3.01,4.16,5.67,6.44,8.33,4.24,4.95-3.47-6.05-1.08-.94l-3.03-7.18c2.27,6.75,4.3,13.56,7.87,19.8,1.22,2.14,2.62,4.16,4.1,6.13,1.85,2.49,3.76,4.95,5.7,7.38,3.78,4.73-3.95-5.97-.84-.87l-3.03-7.18c.47.86.77,1.78.88,2.76l-1.07-7.99v1.31c.35-2.66.71-5.32,1.07-7.99l-.28,1.26,3.03-7.18,7.93-8.14,7.18-3.03-1.52.25,7.99-1.07c-8.23.25-16.57.33-24.79.08,2.66.36,5.32.72,7.99,1.07l-1.5-.35,7.18,3.03,4.13,3.19c2.98,4.06,3.84,5.07,2.58,3.01-.54-1.23-1.29-2.42-1.85-3.65,1.01,2.39,2.02,4.78,3.03,7.18-2.29-5.71-3.33-11.69-4.25-17.75-1.06-6.94-8.03-14.57-13.8-17.95-6.44-3.77-15.93-5.36-23.15-3.03s-14.28,6.86-17.95,13.8c-4.02,7.6-4.31,14.71-3.03,23.15,1.84,12.12,5.22,23.84,12.83,33.69,7.2,9.32,16.73,14.16,28.6,14.7,5.49.25,11.05-.01,16.54-.03,8.77-.03,17.79-.31,25.53-5.05,10.35-6.34,17.04-18.31,16.64-30.51-.37-11.4-5.95-20.04-13.02-28.57-2.32-2.79,3.58,5.28,1.73,2.15-.55-.94-1.24-1.81-1.81-2.74-1.29-2.09-2.38-4.26-3.34-6.53l3.03,7.18c-1.99-5.4-2.93-11.02-6.01-16.05-1.78-2.91-4.1-5.69-6.3-8.29-4.81-5.69,2.87,5.1.47.22l3.03,7.18c-.41-.97-.7-1.97-.88-3.01l1.07,7.99-.17-1.56c-.87-7.84-2.67-15.61-8.8-21.24-5.53-5.07-13.45-9.59-21.24-8.8-13.47,1.37-23.69,4.47-35.92,10.33l7.18-3.03c-.76.35-1.56.57-2.39.64l7.99-1.07-1.11-.13,15.16,4.1-.96-.59v51.87l.85-.4c-5.05,1.37-10.11,2.73-15.16,4.1l.98.09c-5.05-1.37-10.11-2.73-15.16-4.1-9.43-10.16-10.53-10.81-3.28-1.96,2.03,2.15,4.34,4,6.91,5.54,2.98,1.98,6.16,3.37,9.63,4.5,5.08,1.65,10.51,1.96,15.8,2.59l-7.99-1.07c2.08.28,4.03.66,5.99,1.42l-7.18-3.03c.73.33,1.42.74,2.05,1.24,6.11,4.24,16.2,4.94,23.15,3.03s14.52-7.31,17.95-13.8c8.1-15.33,3.04-31.51-10.78-41.1h0l-.06.04Z"/>
  <path class="cls-1" d="M38.24,117.02c5.52,0,5.53-8.58,0-8.58s-5.53,8.58,0,8.58h0Z"/>
  <path class="cls-1" d="M102,105.27c4.74-1.15,9.4-2.53,13.96-4.25,3.29-1.25,7.84-2.69,7.94-6.97.08-3.49-3.48-5.9-4.67-9-1.42-3.69-2.55-7.06-5.08-10.18-2.23-2.76-7.77-.58-7.33,3.03.62,5.04.79,10.05.5,15.12-.31,5.52,8.27,5.5,8.58,0,.29-5.07.12-10.08-.5-15.12l-7.33,3.03c1.85,2.29,2.43,5.45,3.54,8.12.45,1.09.92,2.18,1.54,3.19.53.85,2.01,2.04,2.3,2.93l.43-3.31c-.79,1.27-6.16,2.27-7.59,2.73-2.84.91-5.7,1.68-8.6,2.38-5.37,1.3-3.09,9.58,2.28,8.28h0l.03.02Z"/>
  <path class="cls-1" d="M73.78,14.45l.15-.07-1.03.43c.16-.06.3-.11.47-.14l-1.14.15c.22-.03.43-.03.65,0l-1.14-.15c.22.04.42.09.63.17l-1.03-.43c.21.09.39.2.58.32l-.87-.67c.18.14.33.28.48.45l-.67-.87c.14.18.24.35.34.55l-.43-1.03c.06.16.1.3.14.47l-.15-1.14c.02.11.03.22.02.33.06,2.24,1.93,4.4,4.29,4.29s4.36-1.89,4.29-4.29-1.29-4.47-3.31-5.64-4.46-1.2-6.6-.13c-2.01,1-2.74,4.01-1.54,5.87,1.33,2.06,3.72,2.61,5.87,1.54h0Z"/>
</svg>