<?xml version="1.0" encoding="UTF-8"?>
<svg id="Calque_2" data-name="Calque 2" xmlns="http://www.w3.org/2000/svg" viewBox="0 0 594.3 619.06">
  <defs>
    <style>
      .cls-1 {
        fill: #020202;
      }

      .cls-1, .cls-2, .cls-3, .cls-4, .cls-5, .cls-6, .cls-7, .cls-8, .cls-9, .cls-10, .cls-11, .cls-12, .cls-13, .cls-14, .cls-15, .cls-16 {
        stroke-width: 0px;
      }

      .cls-2 {
        fill: #191f1d;
      }

      .cls-3 {
        fill: #f9f9f9;
      }

      .cls-4 {
        fill: #15181e;
      }

      .cls-5 {
        fill: #ffde15;
      }

      .cls-6 {
        fill: #232020;
      }

      .cls-7 {
        fill: #d48193;
      }

      .cls-17 {
        fill: #81accf;
        stroke: #87cdd7;
        stroke-miterlimit: 10;
      }

      .cls-8 {
        fill: #bf91d4;
      }

      .cls-9 {
        fill: #fdf4ee;
      }

      .cls-10 {
        fill: #060606;
      }

      .cls-11 {
        fill: #bd6c50;
      }

      .cls-12 {
        fill: #201917;
      }

      .cls-13 {
        fill: #064058;
      }

      .cls-14 {
        fill: #f58b2c;
      }

      .cls-15 {
        fill: #4ea986;
      }

      .cls-16 {
        fill: #fefefe;
      }
    </style>
  </defs>
  <g id="Calque_1-2" data-name="Calque 1">
    <path class="cls-9" d="M537.44,349.79c.15.31.13.62-.05.91-.04.41-.08.82-.12,1.23-.31.57-.71,1.1-.93,1.7-9.18,24.65-18.79,49.13-29.05,73.34-6.65,15.69-12.87,31.65-23.77,45.09-12.88,15.88-29.33,24.33-50.06,21.86-12.72-1.51-22.45-9.33-31.58-17.74-11.1-10.22-19.26-22.71-27.15-35.4-.95-1.91-1.99-3.79-2.82-5.75-6.1-14.34-16.26-27.75-10.44-44.86,1.79-9.09,3.57-18.18,5.36-27.27-.67-.13-1.34-.27-2-.4-1.69,9.22-3.38,18.45-5.08,27.67-2.51,12.02-5.12,24.02-7.46,36.07-.68,3.51-2.02,4.74-5.82,4.72-40.44-.16-80.88-.16-121.32,0-3.33.01-5.32-.9-6.52-3.84-2.19-5-4.17-10.1-6.61-14.98-11.4-22.81-15.39-46.45-8.37-71.4.22-.78.75-2-.77-2.28-.21.1-.42.13-.48.24-.25.41-.54.83-.65,1.29-4.96,19.96-5.45,39.72,2.65,59.1.82,1.96,1.74,3.88,1.39,6.2-2.6,17.24-7.15,33.77-17.48,48.18-12.83,17.9-43.41,30.7-68.15,8.28-8.09-7.34-14.97-15.52-20.02-25.24-5.58-10.75-10.5-21.78-15.27-32.91-8.49-19.82-15.17-40.33-23.11-60.35-1.41-4.31-4.89-9.36-3.69-12.75,1.38-3.88,6.82-6.41,10.65-9.33,19.16-14.63,40.42-24.69,64.15-29.38,3.04-.6,4.55-.49,5.29,3.33,4.95,25.43,12.41,50.19,20.86,74.66.42,1.21.18,3.14,2.47,3.51.96-1.9-.18-3.67-.88-5.02-6.02-11.63-5.1-22.52,1.05-34.14,9.17-17.34,13.36-37.15,25.97-52.84,15.86-16.25,35.69-21.94,57.76-21.71,4.31,4.73,9.18,8.65,15.35,10.7,1.53.62,3.04,1.68,4.61,1.79,5.3.37,7.62,2.99,9.09,8.17,1.07,3.81.43,5.24-2.48,7.43-13.38,10.08-17.53,24.98-11.4,39.25.91,2.1,1.85,3.43,4.54,3.65,36.8,3.03,73.59,6.2,110.37,9.41,1.96.17,3.18-.61,4.3-1.9,12.93-14.84,19.05-36.92-5.07-52.71-2.69-1.76-2.86-3.17-2.08-5.93,2.13-7.59,1.98-7.63,8.8-3.96,14.54,10.88,25.55,24.91,35.29,39.98,6.82,10.54,13.15,21.38,19.7,32.09,3.64,4.74,2.89,9.41.62,14.64-3.69,8.48-6.66,17.28-9.94,25.94-.44,1.15-1.38,2.29-.15,3.61,2-.91,2-2.97,2.6-4.57,8.83-23.71,18.38-47.13,28.06-70.5,1.27-3.07,2.76-4.02,5.85-3.28,5.15,1.25,10.39,2.16,15.5,3.52,20.7,5.52,38.75,16.05,55.25,29.45l1.05.97c.73.81,1.47,1.63,2.2,2.44v.02Z"/>
    <path class="cls-1" d="M381.41,275.49c-6.82-3.67-6.67-3.63-8.8,3.96-.78,2.76-.6,4.18,2.08,5.93,24.12,15.79,18,37.87,5.07,52.71-1.13,1.29-2.35,2.07-4.3,1.9-36.78-3.21-73.57-6.37-110.37-9.41-2.69-.22-3.63-1.55-4.54-3.65-6.13-14.26-1.98-29.16,11.4-39.25,2.91-2.19,3.55-3.62,2.48-7.43-1.46-5.19-3.79-7.8-9.09-8.17-1.57-.11-3.08-1.17-4.61-1.79.4-.36.8-.71,1.21-1.07,2.56.68,5.1,1.42,7.67,2.03,1.78.43,2.81-.13,2.85-2.22.18-8.84,5.02-15.17,11.34-20.67,1.37-.54,2.82-1.02,2.87-2.88.7,0,1.28-.1,1.07-1.04l-.04.05c3.31-.24,5.36-1.05,2.13-4.45-.78-.82-1.44-1.77-2.15-2.65l.06.07c-.09-.62-.12-1.31-1.07-1.07l.03.09c-.31-5.08-1.66-10.16.09-15.22.67-1.94-.64-2.59-2.11-3.26-4.86-2.22-9.96-3.69-15.05-5.24-2.15-.65-3.04.21-3.49,2.18-.98,4.2-2,8.39-3.07,12.57-.61,2.37-1.34,4.71,2.56,6.75-4.58.2-6.38-.28-5.11-4.32,1.44-4.58,2.11-9.4,3.51-14,.94-3.09.59-4.27-2.94-4.92-3.24-.6-6.91.45-10.21-1.96,2.65-1.22,4.98-.63,7.17-.33,9.09,1.24,18.1,3.14,26.34,7.2,5.95,2.93,5.61-2.55,6.7-4.79,1.64-3.37-2.19-2.3-3.59-2.69-14.25-3.93-19.92-11.48-19.59-26.4,0-.42.09-1.05-.67-1.07-23.81,10.81-41.25,51.51-20.54,77.48-.44.38-.89.76-1.33,1.14-22.06-.23-41.9,5.46-57.76,21.71-.31-.37-.62-.73-.93-1.1-3.24-10.6-2.47-20.32,6.15-28.36,3.38-3.16,7.45-5.04,11.85-6.01,2.2-.49,2.93-1.25,3.07-3.51.95-15.48,10.06-27.24,27.46-25.98,3.06.22,2.9-2.01,3.51-3.73,5.82-16.42,16.09-28.96,32.33-35.87,11.68-4.97,23.64-4.91,35.39-.04,2.69,1.12,3.74,1,5.03-1.84,7.84-17.33,31.82-31.59,50.71-30.42,13.26.82,18.76,9.75,12.67,21.6-8.43,16.41-23.28,24.33-40.51,29.17-.52,1.14.67,1.86,1.32,2.72,7.57,9.95,12.41,21.13,14.68,33.37.45,2.45,1.42,3.53,3.64,4.57,11.55,5.4,18.69,14.33,19.69,27.22.37,4.83,1.81,8.05,6.43,9.69.9.32,1.64,1.09,2.46,1.65-.39.35-.77.71-1.16,1.06h0ZM321.11,238.42c-2.62,2.42-5.67,1.95-8.54,2.3-2.52.31-2.81,1.67-2.51,3.82.31,2.2,1.07,3.44,3.5,2.72,2.64-.78,5.29-.59,7.88.09,2.63.69,4.02-.48,5.1-2.68,2.02-4.15,1.23-9.29-2.1-12.96-3.24-3.57-10.62-5.88-14.03-4.6-1.43.54-1.52,1.39-1.58,2.64-.38,8.04.73,9.14,8.89,8.67,1.13-.06,2.26,0,3.39,0ZM317.25,286.44c10.57.03,18.98-8.44,18.88-19.03-.09-10.28-8.44-18.7-18.68-18.83-10.43-.14-19.02,8.37-19.08,18.9-.06,10.69,8.14,18.93,18.88,18.96Z"/>
    <path class="cls-4" d="M361.47,390.19c-5.82,17.11,4.34,30.52,10.44,44.86.83,1.96,1.88,3.83,2.82,5.75-.34.42-.68.83-1.03,1.25-6.3-10.08-10.54-21.15-15.51-33.46-1.82,8.18-3.26,14.89-4.83,21.58-.45,1.92.17,3.62.64,5.34,3.12,11.51,6.45,22.97,9.39,34.53.72,2.83,1.87,4.04,4.68,4.72,22.08,5.29,38.18,25.31,38.34,47.96.03,3.51,1.92,4.07,4.2,5.02,35.11,14.56,54.17,49.98,47.23,87.25-.67,3.62-2.19,3.97-5.22,3.96-42.77-.04-85.53.05-128.3.05-66.06,0-132.13-.14-198.19.06-4.83.01-6.78-1.78-8.23-5.71-9.15-24.8-8.24-48.2,9.77-69.11,6.85-7.95,15.44-13.61,25.25-17.21,3.4-1.25,4.75-2.73,4.96-6.55,1.2-22.09,16.45-41.45,37.83-46.54,6.76-1.61,9.27-4.8,11.22-10.62,3.15-9.41,6.92-18.63,10.66-27.83,1.03-2.52,1.1-4.72.01-7.08l1.02-1.27c1.2,2.94,3.19,3.85,6.52,3.84,40.44-.15,80.88-.16,121.32,0,3.8.02,5.14-1.21,5.82-4.72,2.34-12.05,4.95-24.05,7.46-36.07h1.73ZM207.45,498.57c-1.06-2.45,1.16-3.2,2.41-4.25,5.46-4.56,11.79-7.48,18.75-8.77,2.9-.53,4.08-1.4,4.03-4.64-.21-14.64-.06-29.28-.15-43.92,0-1.38,1.11-3.96-1.53-3.84-2.04.09-1.09,2.43-1.1,3.72-.08,13.97-.12,27.95.01,41.92.03,2.78-.68,3.86-3.57,4.62-18.12,4.81-29.57,16.47-34.11,34.66-2.33,9.31-2.3,18.85-.85,28.25.58,3.8-.38,4.76-3.86,5.38-9.34,1.64-17.15,6.18-23.11,13.61-11.8,14.7-11.77,31.89-10.19,49.36.09.95.32,2.16,1.69,1.96,1.47-.22.98-1.54.89-2.39-.85-7.96-1.06-15.9.04-23.88,2.79-20.16,15.35-34.97,35.23-36.68,2.7-.23,2.85-1.33,2.51-3.5-.57-3.61-1.06-7.24-1.31-10.89-.84-12.71.82-24.93,8.09-35.76,1.37-2.04,2.15-5.51,5.96-4.82-11.03,12.7-13.6,27.68-11.79,43.83.33,2.97.68,5.95,1.24,8.88.54,2.86.02,4.04-3.36,4.23-15.9.91-27.79,10.42-32.49,25.75-3.17,10.34-3.33,20.91-2.25,31.6.31,3.06,1.24,3.84,4.19,3.81,14.31-.14,28.63-.25,42.94.05,4.2.09,5.12-1.09,5.2-5.15.27-13.76,2.42-27.15,10.29-38.94.82-1.23,1.06-3.56,3.54-2.92-.14.6-.12,1.33-.45,1.79-9.11,12.39-11.15,26.74-11.47,41.54-.03,1.25-.92,3.39,1.52,3.45,3.03.07,1.51-2.3,1.61-3.66.43-6.29.42-12.63,1.72-18.83,2.81-13.32,8.11-25.02,21.32-31.19,2.69-1.26,1.69-2.66.97-4.34-2.39-5.53-3.95-11.28-4.27-17.32-.89-16.82,5.8-30.68,16.86-42.79,1.69-1.85,3.19-3.4,3.17-6.32-.16-18.62-.07-37.24-.13-55.86,0-1.13.86-3.15-1.07-3.23-1.94-.09-1.24,1.92-1.37,3.11-.1.99-.02,1.99-.02,2.99,0,17.13-.02,34.25.01,51.38,0,4.53-2.31,7.17-6.49,8.44,5.84-5.25,4.46-12.24,4.48-18.86.04-11.97.01-23.93.01-35.9s0-11.21-11.44-11.44c-4.02-.08-5.41.8-5.33,5.11.28,14.79.14,29.58.07,44.38,0,1.77,1.01,4.33-2.17,4.66-9.65.99-17.58,5.62-24.9,11.59l.03.02ZM356.61,499.94c1.5-1.64,1.97.23,2.53.88,2.82,3.32,4.94,7.07,6.47,11.14,4.66,12.36,4.64,25.04,2.39,37.8-.48,2.74-.15,3.7,2.91,4.02,15.96,1.64,28.1,11.94,32.61,27.36,3.13,10.69,3.47,21.58,2.16,32.58-.13,1.09-.97,2.83,1.26,3.07,2.12.23,2.43-1.18,2.51-2.82.18-3.48.55-6.97.58-10.45.25-27.82-14.2-49.85-37.44-52.41-2.43-.27-1.96-1.72-1.71-3.17,1.18-6.76,1.16-13.57.75-20.37-1.35-22.08-14.19-38.25-35.43-44.09-3.17-.87-3.74-2.14-3.72-5.01.12-13.8.09-27.59,0-41.39,0-1.38,1.17-3.92-1.38-3.95-2.1-.03-1.26,2.34-1.26,3.65-.06,14.79.07,29.59-.13,44.38-.04,3.09,1.1,3.81,3.83,4.31,6.61,1.23,12.67,3.97,18,8.09.98.76,3.4,1.1,2.11,3.42-6.74-4.16-13.36-8.8-21.49-9.64-3.77-.39-4.49-1.84-4.45-5.3.19-14.97,0-29.94.14-44.92.03-3.15-.72-4.46-4.12-4.26-4.65.28-9.33.28-13.98,0-3.47-.21-4.55.86-4.51,4.42.18,17.47.14,34.93.02,52.4-.02,2.76,1.04,4.6,2.75,6.57,15.27,17.65,21.86,37.39,14.04,60.4-.73,2.14-.29,3.18,1.64,4.41,7.87,4.99,12.89,12.31,16.34,20.83,4.06,10.02,5.37,20.53,5.44,31.23.02,2.53.29,3.92,3.43,3.89,16.98-.14,33.97-.13,50.95,0,2.87.02,3.55-1.04,3.82-3.7.76-7.48.85-14.9-.08-22.39-2.44-19.59-15.09-34.79-35.32-35.3-3.74-.09-2.95-2.38-2.56-4.39,3.49-18.27,2.27-35.67-9.13-51.29h.03ZM277.13,516.64c1.98,1.95,1.21,4.06,1.21,5.93.05,29.94.05,59.87.01,89.81,0,2.73-.04,4.59,3.81,4.55,17.64-.18,35.29-.07,52.93.06,2.73.02,3.79-.68,3.78-3.6-.05-8.7-.78-17.33-3.61-25.56-3.67-10.67-9.28-19.96-20.81-23.85-2.77-.94-1.56-2.34-.89-3.79,10.56-23.05,4.69-43.02-11.72-60.8-2.37-2.57-3.26-4.95-3.24-8.32.14-17.8-.07-35.59.17-53.39.06-4.08-1.26-4.93-5.03-4.84-10.48.24-20.98.28-31.46-.02-3.9-.11-4.62,1.19-4.58,4.77.18,18.13.08,36.26.08,54.39,0,2.13.08,4.06-1.71,5.92-17.47,18.14-24.06,38.63-12.98,62.69.89,1.94.83,2.77-1.47,3.55-8.41,2.82-13.73,9.08-17.52,16.76-5.07,10.27-5.72,21.38-6.03,32.55-.1,3.6,2.18,3.33,4.6,3.33,16.15,0,32.29-.12,48.44.16,4.25.07,5.21-1.2,5.19-5.29-.17-29.6-.11-59.21-.06-88.81,0-1.91-.56-3.96.91-6.21h-.02ZM433.49,616.95v-.11c5.99,0,11.99-.21,17.96.09,3.28.16,4.28-1.17,4.66-4.09,1.33-10.31,1.44-20.59-1.09-30.71-6.42-25.71-22.28-43.22-46.75-53.13-2.02-.82-4.13-.89-4.01-4.41.72-22.62-15.55-43.36-37.67-48-3.24-.68-4.27-2.13-4.99-4.91-2.3-9-4.77-17.95-7.19-26.91-3.27-12.12-3.27-11.99-15.84-11.93-3.39.02-4.12,1.15-4.08,4.28.15,12.97.19,25.94-.02,38.9-.06,3.5.86,5.04,4.42,6.14,17.21,5.32,28.17,16.82,32.92,34.27,2.58,9.49,2.34,19.09,1.54,28.71-.24,2.84.17,4.09,3.18,4.81,16.53,3.93,26.63,14.84,32.06,30.45,3.55,10.23,4.1,20.85,2.92,31.5-.48,4.34.89,5.39,5.01,5.13,5.63-.35,11.31-.09,16.97-.09h0ZM227.8,457.16c0-6.49.12-12.98-.08-19.46-.05-1.61,1.51-4.35-1.84-4.71-2.83-.31-5.29-.43-6.61,3.34-3.56,10.17-7.79,20.11-11.43,30.26-1.79,5.01-3.23,9.8-10.12,8.58-.58-.1-1.26.37-1.89.56-20.54,6.06-34.97,24-35.91,45.39-.19,4.43-1.66,6.25-5.71,7.62-9.44,3.19-17.71,8.53-24.31,16-18.55,20.99-19.22,44.51-9.43,69.43.94,2.4,2.45,2.71,4.62,2.68,7.82-.1,15.65-.25,23.47-.02,3.41.1,3.73-1.17,3.43-4.08-.71-6.78-.76-13.6-.21-20.42,1.72-21.64,14.15-37.07,34.5-42.44,2.47-.65,3.23-1.59,2.85-4.1-.44-2.95-.47-5.96-.6-8.95-1.27-28.44,12.98-49.2,36.73-55.25,2.34-.6,2.59-1.97,2.57-4-.09-6.82-.03-13.64-.03-20.46v.03ZM303.48,464.21c0-9.15.03-18.29-.04-27.44-.01-1.32.83-3.59-1.3-3.66-2.24-.07-1.35,2.23-1.36,3.49-.06,18.46-.02,36.92-.07,55.37,0,2.1.49,3.67,2.01,5.3,16.83,18,23.3,38.32,13.5,62.11-.63,1.53-1.14,2.53.96,3.48,11.72,5.32,17.38,15.33,20.75,27.1,2.22,7.74,2.9,15.65,2.89,23.65,0,1.16-.67,3.12,1.43,3.03,2.05-.08,1.27-2.04,1.22-3.15-.19-4.64-.27-9.32-.95-13.91-2.29-15.61-7.37-29.72-22.11-38.11-1.92-1.09-1.41-2.11-.87-3.58,8.59-23.11,2.2-42.99-13.38-60.74-1.91-2.17-2.81-4.16-2.76-7.02.16-8.64.06-17.29.06-25.94l.02.02Z"/>
    <path class="cls-12" d="M186.69,280.21c.31.37.62.73.93,1.1-12.61,15.69-16.8,35.5-25.97,52.84-6.15,11.62-7.07,22.51-1.05,34.14.7,1.35,1.84,3.12.88,5.02-2.29-.38-2.05-2.3-2.47-3.51-8.45-24.47-15.91-49.23-20.86-74.66-.75-3.83-2.25-3.93-5.29-3.33-23.74,4.69-44.99,14.75-64.15,29.38-3.83,2.92-9.27,5.45-10.65,9.33-1.2,3.39,2.28,8.43,3.69,12.75-.58,0-1.16-.02-1.74-.03-10.04-23.87-23.7-45.92-34.77-69.27-8.09-17.06-17.2-33.66-22.87-51.78C1.18,218.38.02,214.55,0,210.52c-.03-5.66,1.8-10.65,6.97-13.44,2.52-1.36,2.28-2.64,1.53-4.7-2.95-8.14-4.83-16.56-6.22-25.08-1.6-9.79,2.28-14.18,11.97-13.35,1.4.12,1.59-.05,1.81-1.19.25-1.3.59-2.6,1.07-3.82,2.69-6.81,7.77-8.44,13.86-4.42,1.23.81,2.46,1.77,3.37,2.91,2.3,2.91,4.27,4.11,7.94,1.36,3.57-2.67,7.58-1.6,10.86,1.5,2.97,2.81,4.7,6.39,6.33,10.04,6.09,13.62,10.48,27.96,17.46,41.19,5.16,9.78,11.43,18.69,20.49,25.33,4.49,3.29,6.49,2.69,8.18-2.71,2.33-7.49,1.58-15.15.73-22.75-.61-5.47-.99-10.94-.59-16.42.39-5.43,3.71-9.73,7.74-10.42,4.32-.74,8.4,1.74,10.87,6.99,4.27,9.06,5.08,18.84,5.49,28.65,1.91,45.69,9.3,90.43,22.93,134.12.24.78.29,1.65,1.64,2.27,4.81-11.35,9.52-22.72,14.45-34,4.1-9.39,7.09-19.35,13.52-27.6,1.32-1.69,2.33-3.65,4.28-4.77h.01ZM29.09,242.03c-2.86-1.36-3.85-4.02-4.95-6.5-4.87-10.93-8.72-22.25-12.44-33.61-1.33-4.05-3.36-4.52-6.11-1.25-3.17,3.77-4.14,8.23-3.15,13.1,1.25,6.2,3.14,12.23,5.58,18.05,13.53,32.21,30.11,62.9,46.28,93.81,1.57,3,2.64,2.24,4.65.5,21.54-18.71,46.37-30.84,74.32-36.54,2.73-.56,3.32-1.12,2.82-4.02-4.53-26.04-7.5-52.25-8.46-78.7-.3-8.27-1.26-16.64-5.04-24.23-1.71-3.44-4.05-6.99-8.75-5.88-4.39,1.03-5.77,4.75-5.98,8.79-.25,4.65-.04,9.29.45,13.94.9,8.58,2.15,17.22-.87,25.67-2.38,6.67-5.4,7.54-11.09,3.42-10.84-7.85-18.03-18.6-23.41-30.53-5.73-12.71-10.78-25.72-16.19-38.58-1.36-3.23-3-6.39-5.94-8.48-3.09-2.2-6.25-1.8-9.23.45-1.62,1.23-2.98,2.21-2.07,4.86,8.02,23.39,14.45,47.35,25.38,69.68.36.74.79,1.49-.53,2.41-2.93-2.53-4.02-6.24-5.4-9.64-8.54-20.92-15.26-42.47-22.21-63.94-1.95-6.01-8.98-11.43-13.14-10.1-4.29,1.37-6.45,8.59-4.57,15.3,6.69,23.85,14.96,47.15,24.54,69.98.54,1.28,1.98,2.69.54,4.34-1.75-.69-1.89-2.09-2.4-3.27-9.83-22.92-18.06-46.4-24.74-70.42-1.03-3.72-3-5.35-6.72-5.08-4.82.35-6.92,4.5-5.97,11.12,2.03,14.25,7.11,27.62,11.7,41.13,3.92,11.55,7.92,23.07,13.11,34.23h0Z"/>
    <path class="cls-12" d="M534.18,346.38c-16.5-13.4-34.55-23.94-55.25-29.45-5.12-1.36-10.35-2.27-15.5-3.52-3.08-.75-4.57.2-5.85,3.28-9.67,23.37-19.22,46.79-28.06,70.5-.6,1.6-.6,3.66-2.6,4.57-1.23-1.31-.28-2.45.15-3.61,3.27-8.66,6.25-17.45,9.94-25.94,2.27-5.23,3.02-9.89-.62-14.64.34-.42.69-.84,1.03-1.26,1.09,1.61,2.17,3.22,3.75,5.57,5.63-16.95,15.53-31.6,17.82-48.88,1.83-13.82,2.3-27.82,3.5-41.73,1.38-16.07,1.05-32.23,2.93-48.27.43-3.64,1.29-7.17,2.86-10.51,1.96-4.2,4.78-7.34,9.83-6.98,5.06.36,7.39,3.99,8.75,8.34,1.33,4.24.59,8.58.24,12.87-.42,5.14-.97,10.26-1.39,15.4-.23,2.83.02,5.62.55,8.42.68,3.53,2.11,6.33,5.78,7.36,3.62,1.01,6.49-.53,8.92-3.06,6.65-6.9,11.16-15.22,15.62-23.57,6.56-12.3,11.7-25.25,17.18-38.04,1.51-3.52,3.29-6.9,5.63-9.94,3.88-5.04,7.94-6.1,13.41-2.99,2.1,1.19,2.6.6,3.67-1.04,1.75-2.67,4.14-4.72,7.24-5.84,6.93-2.5,12.99,1.02,13.74,8.35.27,2.66.45,3.96,3.78,4.08,5.54.2,8.1,3.53,8.1,9.86,0,8.71-2.28,17.09-4.37,25.46-.69,2.76-1.2,4.49,2.34,6.05,6.2,2.73,7.18,8.86,6.98,14.8-.38,11.79-3.89,22.81-9.26,33.26-.41-.45-.83-.9-1.24-1.35.61-1.54,1.16-3.11,1.83-4.63,3.47-7.81,5.55-16.01,6.5-24.46.54-4.83.18-9.67-2.95-13.79-1.15-1.52-2.75-2.64-4.66-2.51-2.33.15-1.87,2.4-2.28,3.87-3.5,12.71-8.24,24.9-14.72,36.4-.8,1.42-1.24,3.34-3.89,3.52.29-1.01.35-1.66.65-2.17,11.52-19.27,17.07-40.61,21.49-62.31,1.05-5.14,2.51-10.37.84-15.75-.95-3.05-3.18-4.12-6.02-4.29-2.96-.18-3.83,1.82-4.5,4.31-1.42,5.29-3.03,10.53-4.66,15.75-5.46,17.42-10.61,34.96-18.24,51.6-1.16,2.54-2.12,5.49-6.1,7.06,2.38-4.86,4.59-8.83,6.33-13,6.84-16.42,12.11-33.39,17.09-50.44,1.85-6.35,4.61-12.49,4.97-19.22.18-3.34-.69-6.36-3.85-8.09-3.46-1.89-6.82-.99-9.87,1.02-2.56,1.69-4.34,4.12-5.34,7.03-.76,2.2-1.36,4.45-2.03,6.68-5.93,19.72-11.99,39.39-20.64,58.14-1.75,3.8-3.34,7.77-6.51,10.81-.84-.91-.85-1.56-.5-2.17,12.13-21.63,18.78-45.33,25.92-68.83.7-2.31,2.12-4.71-1.06-6.51-3.12-1.76-5.93-1.8-8.68.71-2.77,2.53-4.58,5.69-6.12,9.02-5.84,12.67-10.63,25.8-17.12,38.17-4.94,9.43-9.9,18.84-17.46,26.56-3,3.06-6.5,4.77-10.76,3.57s-6.37-4.38-7.25-8.67c-1.05-5.14-.68-10.24-.22-15.38.55-6.12,1.26-12.25,1.31-18.38.05-5.34-3.47-9.75-7.34-9.94-5.21-.25-7.15,3.52-8.51,7.62-2.05,6.2-2.68,12.63-2.95,19.13-1.11,27.56-2.4,55.11-5.92,82.5-.35,2.71-.16,4.35,3.26,4.56,3.29.2,6.55,1.1,9.77,1.89,23.52,5.72,44.58,16.16,62.51,32.59-.64.15-1.29.3-1.93.45v.03Z"/>
    <path class="cls-6" d="M217.16,116.63c-1.89,4.53,1.35,5.1,5.34,5.81,21.48,3.82,30.9,18.01,26.27,39.26-1.43,6.56-4.27,12.53-7.85,18.16-1.2,1.89-2.68,3.65-5.26,2.14-2.7-1.58-2.26-3.76-.84-5.96,4.48-6.94,7.65-14.34,7.9-22.73.35-12.02-4.97-19.32-16.6-22.76-2.06-.61-4.22-.9-6.29-1.51-3.16-.94-4.66.15-5.77,3.3-3.2,9.06-8.5,16.5-17.67,20.5-4.72,2.05-9.56,2.71-14.55,1-7.47-2.56-10.23-9.25-6.72-16.33,2.66-5.37,7.26-8.51,12.55-10.8,6.13-2.66,12.53-4.41,19.18-4.9,2.45-.18,2.89-1.07,3.07-3.26,1.69-20.86-15.96-35.65-36.2-30.26-6.89,1.84-12.93,5.15-17.84,10.36-1.86,1.97-3.92,3.68-6.33,1.34-2.43-2.36-.61-4.44,1.17-6.39,15.81-17.22,42.93-18.13,57.61-1.89,5.55,6.14,8.66,14.7,8.82,24.94v-.02ZM215.13,117.99c.39-19.84-11.49-33.84-30.33-35.68-12.86-1.26-23.72,3.7-32.78,12.75-.94.93-2.17,2.13-1.01,3.37,1.3,1.37,2.29-.13,3.24-1.01,1.46-1.35,2.86-2.82,4.47-3.96,11.62-8.25,24.2-11.46,37.43-4.72,12.41,6.32,16.25,17.65,15.72,30.95-.11,2.84-.81,4.11-3.98,4.13-4.49.02-8.91,1.03-13.18,2.48-6.14,2.08-12.3,4.16-16.39,9.75-2.52,3.44-3.75,7.14-1.74,11.16,1.99,3.99,5.72,5.33,9.93,5.48,10.45.38,19.59-6.55,25.02-18.88,2.25-5.11,6.12-7.16,11.59-6.14,1.46.28,2.92.65,4.34,1.1,11.49,3.65,17.32,11.73,17.27,23.83-.03,8.96-3.54,16.77-8,24.28-.58.98-1.62,2.01-.41,3.06,1.33,1.15,2.16-.15,2.75-1.06,6.71-10.37,10.74-21.55,7.96-33.96-3.07-13.69-13.55-19.05-26.22-20.71-4.84-.64-7.76-1.39-5.7-6.19l.02-.03Z"/>
    <path class="cls-6" d="M60.01,343.24c.58,0,1.16.02,1.74.03,7.94,20.03,14.62,40.53,23.11,60.35,4.76,11.12,9.69,22.16,15.27,32.91,5.04,9.72,11.92,17.9,20.02,25.24,24.74,22.42,55.31,9.62,68.15-8.28,10.33-14.41,14.88-30.94,17.48-48.18.35-2.32-.57-4.24-1.39-6.2-8.1-19.38-7.61-39.14-2.65-59.1.11-.46.41-.87.65-1.29.07-.11.27-.14.48-.24,1.52.28.99,1.5.77,2.28-7.01,24.96-3.03,48.59,8.37,71.4,2.44,4.88,4.42,9.98,6.61,14.98l-1.02,1.27c-3.81-6.18-5.97-13.17-9.66-20.34-1.85,7.28-3.21,13.83-5.2,20.2-4.92,15.81-12.03,30.39-26.76,39.45-17.37,10.67-37.16,11.66-54.69-2.42-11.55-9.28-19.85-20.88-26.22-34.01-13.81-28.5-24.64-58.2-35.08-88.04h.02Z"/>
    <path class="cls-12" d="M420.8,149.35c5.72-4.74,10.67-8.89,15.69-12.97.79-.64,1.66-2.14,2.86-1.02,1.18,1.11-.08,2.06-.8,2.93-4.17,5.07-8.34,10.14-13.02,15.85,7.3.67,13.71,1.21,20.11,1.87,1.05.11,2.78-.16,2.89,1.29.15,2.11-1.88,1.43-2.98,1.56-6.38.73-12.77,1.31-20.05,2.03,4.63,5.55,8.75,10.46,12.8,15.41.77.94,2.41,2.03.95,3.31-1.01.88-2.05-.4-2.93-1.14-4.97-4.14-9.96-8.25-15.5-12.83-.71,6.94-1.35,13.43-2.05,19.92-.13,1.2.37,3.13-1.6,3-1.31-.08-1.21-1.82-1.32-2.91-.62-6.39-1.15-12.79-1.79-20.07-5.71,4.7-10.67,8.81-15.68,12.86-.83.67-1.74,2.14-2.92,1.12-1.57-1.35.23-2.35.93-3.21,4.05-4.99,8.21-9.89,12.84-15.43-7.24-.74-13.77-1.39-20.29-2.1-1.04-.11-2.72.37-2.74-1.32-.01-1.58,1.63-1.36,2.7-1.46,6.41-.63,12.83-1.19,20.38-1.88-4.53-5.46-8.53-10.19-12.4-15.02-.82-1.02-2.97-2.12-1.5-3.6,1.38-1.4,2.53.57,3.57,1.41,4,3.25,7.93,6.57,11.91,9.84.84.69,1.71,2,2.88,1.21.59-.4.65-1.77.73-2.72.49-5.3.86-10.6,1.38-15.9.12-1.19-.11-3.08,1.72-3.01,1.6.06,1.09,1.81,1.2,2.84.7,6.39,1.3,12.8,2.03,20.14h0ZM427.21,146.92c-.37.29-.74.58-1.11.87-.94.68-1.84,1.42-2.82,2.03-1.18.74-2.03,2.61-3.75,1.66-1.35-.74-.86-2.38-.95-3.66-.2-2.76-.21-5.55-1.72-8.98-.24,3.61-.31,6.27-.64,8.89-.18,1.37.26,3.27-1.43,3.9-1.47.55-2.19-1.2-3.31-1.81-1.45-.79-2.33-3.03-4.66-1.76,1.2,1.42,2.34,2.83,3.56,4.18,2.28,2.53,1.42,3.7-1.66,3.97-2.95.25-5.89.51-9.33.8,1.82,1.24,3.31,1.28,4.79,1.42,5.63.52,6.82,3.09,3.56,7.72-.28.15-.49.37-.63.66-.35.37-.7.74-1.05,1.11-.38.42-.76.83-1.14,1.25.79.58,1.34.31,1.76-.47.39-.27.78-.54,1.17-.82.35-.32.71-.64,1.06-.96.94-.67,1.89-1.32,2.8-2.01,1.03-.78,1.96-2.28,3.34-1.66,1.3.59,1.01,2.33,1.15,3.59.33,2.81.47,5.64.69,8.47.81-1.23,1.1-2.49,1.39-3.75.62-2.68-.94-6.84,1.46-7.84,3.05-1.27,4.74,3.22,7.5,4.53,1.02-2.76-1.5-3.81-2.72-5.34-2.24-2.78-1.72-3.96,1.79-4.23,2.81-.21,5.8.28,9.1-1.74-1.99-.14-3.15-.16-4.3-.31-2.73-.35-6.51.8-7.84-1.66-1.14-2.1,2.86-3.61,3.6-6,.32-.35.64-.7.96-1.06.17-.31.34-.63.51-.94-.38,0-.75-.03-1.13-.04h0Z"/>
    <path class="cls-12" d="M297.89,95.16c.97,3.67,2.43,7.25,1.85,11.17-.63,4.25-3.51,5.58-7.12,3.24-3.67-2.38-5.1-6.43-7.43-10.24-2.03,3.24-3.23,6.73-5.88,9.23-1.75,1.65-3.73,3.11-6.22,1.93-2.25-1.06-2.43-3.31-2.54-5.55-.17-3.53,1.15-6.76,2.14-10.44-3.87.43-7.09,2.5-10.76,2.21-2.42-.19-4.76-.49-5.7-3.12-.85-2.4.67-4.05,2.16-5.67,2.4-2.6,5.63-3.97,8.93-5.92-3.21-2.11-6.79-3.29-9.24-6.02-1.43-1.59-3.04-3.32-2.04-5.74.97-2.34,3.12-2.75,5.38-2.87,3.57-.19,6.88.91,10.76,2.12-.69-3.07-1.4-5.83-1.92-8.63-.58-3.08-.53-6.4,2.7-7.79,3.11-1.34,5.33,1.2,7.06,3.44,1.79,2.32,3.21,4.92,4.95,7.63,2-3.65,3.45-7.37,6.6-9.92,3.68-2.99,7.18-1.69,7.9,2.99.61,3.91-1.07,7.49-2.03,11.74,3.07-.74,5.82-1.59,8.64-2.03,2.84-.44,6.04-.5,7.45,2.53,1.44,3.1-.75,5.43-3.05,7.19-2.33,1.78-4.91,3.21-7.73,5.02,3.06,1.91,6.38,3.06,8.83,5.5,1.69,1.69,3.21,3.52,2.31,6.12-.95,2.76-3.59,3.01-5.79,2.9-3.11-.16-6.18-1.05-9.27-1.63-.33-.18-.67-.35-1-.53.03.37.06.75.08,1.12l-.02.02ZM293.94,73.02l-.35-.34c1.16-4.12,3.41-7.91,3.86-12.25.2-1.97.59-4.4-1.49-5.39-2.24-1.07-3.65,1.1-4.85,2.6-2.92,3.64-4.42,8.01-6.16,13.32-2.07-5.18-3.44-9.85-6.73-13.42-1.19-1.29-2.45-3.35-4.47-2.44-2.1.95-1.79,3.25-1.56,5.27.53,4.6,2.79,8.64,4.74,13.49-4.95-1.98-9.06-4.18-13.75-4.43-1.83-.1-4.07-.46-4.96,1.38-1.12,2.3,1.17,3.59,2.63,4.75,1.66,1.33,3.69,2.19,5.52,3.32,2.04,1.25,4.76,1.2,6.7,3.29-4.09,1.72-8.04,3.02-11.39,5.52-1.86,1.39-4.38,3.04-3.3,5.47,1.1,2.46,4.1,1.59,6.34,1.22,4.13-.69,7.85-2.72,12.34-4.56-1.98,5.08-4.33,9.19-4.42,13.94-.03,1.75-.6,3.99,1.6,4.79,2.11.77,3.32-1.14,4.46-2.49,3.16-3.74,4.41-8.47,6.47-13.25,1.83,4.87,3.34,9.45,6.49,13.17,1.16,1.38,2.52,3.16,4.52,2.46,2.15-.76,1.74-3.05,1.52-4.78-.29-2.28-.85-4.56-1.55-6.75-.73-2.24-1.78-4.38-2.96-7.24,4.86,1.97,8.7,4,13.06,4.36,1.96.16,4.4.76,5.38-1.35,1.16-2.51-1.28-3.87-2.92-5.12-1.56-1.2-3.4-2.07-5.19-2.92-2.15-1.02-4.38-1.88-7.24-3.09,5.15-2.01,9.57-3.49,13.1-6.63,1.36-1.21,3.08-2.58,2.16-4.59-.92-2.01-3.13-1.6-4.91-1.43-4.52.44-8.45,2.8-12.7,4.11h0Z"/>
    <path class="cls-2" d="M400.68,75.96c6.55,7.69,7.63,14.45,3.23,19.71-3.26,3.89-8.94,4.86-13.56,2.31-5.63-3.11-6.37-7.42-2.99-18.4-7.81-.85-13.46,2.73-18.08,8.32-6.83,8.26-10.1,18.15-12.61,28.35-.28,1.13-.53,2.26-.83,3.38-.56,2.1-2.01,3.1-4.08,2.59-2.02-.5-3.15-2.13-2.73-4.15,2.96-14.11,7.27-27.7,17.95-38.09,6.38-6.21,14.18-9.16,23.24-7.46,2.18.41,3.64-.31,5.33-1.69,11.68-9.57,25.13-14.61,40.24-15.17,2.55-.09,5.47-.27,5.68,3.19.24,3.79-2.76,3.83-5.55,3.95-13.15.59-24.96,4.78-35.25,13.14v.02ZM390.85,77.94c-1.43,3.54-3.43,6.47-3.58,10.09-.22,4.98,2.34,8.47,7.07,9.35,4.23.79,8.29-1.71,9.59-6.11,1.48-5-.07-9.35-3.95-12.49-2.74-2.22-2.08-3.35.22-5.1,10.35-7.91,22.06-12.01,35-12.89,1.48-.1,4.05.81,4.06-1.51,0-2.41-2.58-1.47-4.01-1.41-14.21.63-26.94,5.35-37.97,14.36-2.31,1.88-4.45,3.05-7.61,2.43-8.54-1.67-15.71,1.26-21.71,7.26-9.82,9.82-13.78,22.43-16.77,35.5-.3,1.32-.2,2.51,1.19,2.77,1.16.22,1.57-1.03,1.86-1.97.24-.79.23-1.65.44-2.45,3.08-11.62,6.75-23.01,15.55-31.79,5.62-5.61,12.39-7.94,20.63-6.02v-.02Z"/>
    <path class="cls-6" d="M373.7,442.05c.34-.42.68-.83,1.03-1.25,7.89,12.69,16.05,25.18,27.15,35.4,9.13,8.4,18.86,16.22,31.58,17.74,20.72,2.47,37.18-5.98,50.06-21.86,10.9-13.44,17.12-29.4,23.77-45.09,10.26-24.22,19.88-48.69,29.05-73.34.22-.6.62-1.14.93-1.7.37.44.74.87,1.11,1.31-7.87,22.85-17.03,45.2-26.3,67.5-6.04,14.52-11.76,29.22-20.01,42.71-8.83,14.44-20.19,25.73-37,30.75-15.42,4.6-29.54,2.32-42.58-6.86-16.77-11.8-29.27-27.28-38.79-45.3h0Z"/>
    <path class="cls-12" d="M224.69,26.72c3.88,4.79,7.27,8.97,10.66,13.15-.34.37-.67.73-1.01,1.1-5.07-2.29-8.52-7.06-13.52-10.11-1.68,5.67-.46,11.48-2.91,17.76-2.87-6.16-1.52-12.11-3.15-18.01-3.88,3.22-7.41,6.18-10.98,9.09-.72.59-1.6,1.7-2.55.96-1.4-1.09-.03-2.09.62-2.9,2.89-3.58,5.86-7.1,9.11-11-5.93-1.48-11.69-.56-18.34-2.85,6.41-2.87,12.37-1.41,18.12-3.21-3.57-4.47-7.01-8.79-10.46-13.1.39-.45.77-.91,1.16-1.36,4.32,3.41,8.64,6.83,13.56,10.71.56-5.45,1.04-10.17,1.53-14.89.08-.8-.01-1.88.98-2.03,1.5-.23,1.37,1.1,1.48,2.02.53,4.7,1.02,9.41,1.59,14.67,5.22-3.22,8.74-7.72,13.58-10.26.38.37.77.75,1.15,1.12-3.42,4.25-6.84,8.49-10.5,13.03,5.65,1.98,11.63.42,17.93,3.18-6.18,2.51-11.91,1.49-18.05,2.93ZM221.38,28.14c.32.48.64.97.96,1.45.7-.69.38-1.4.05-2.11-2.08-5.06,4.31-1.37,4.33-4.01-1.42-1.29-4.91.3-4.6-1.57.56-3.38-1.6-1.72-2.45-2.45-2.68-2.33-5.11,1.78-7.34-1.11-.16,2.02,2.48,2.56.95,4.29-.81.92.6,4.49,1.48,5.24,2.23,1.92,4.42.35,6.63.27h0Z"/>
    <path class="cls-6" d="M437.43,346.3c-.34.42-.69.84-1.03,1.26-6.55-10.71-12.88-21.56-19.7-32.09-9.75-15.06-20.75-29.1-35.29-39.98.39-.35.77-.71,1.16-1.06,11.02,6.9,19,16.83,26.71,26.98,10.72,14.11,19.78,29.29,28.15,44.89Z"/>
    <path class="cls-12" d="M399.62,216.85c-.05,6.96-5.77,12.63-12.72,12.61-7-.03-12.62-5.62-12.69-12.65-.07-7.2,5.82-13.05,12.97-12.86,6.96.18,12.49,5.92,12.44,12.9ZM387.11,206.21c-6.2-.08-10.76,4.42-10.73,10.59.03,5.77,4.66,10.49,10.36,10.57,5.97.08,10.78-4.68,10.78-10.67s-4.58-10.41-10.41-10.49h0Z"/>
    <path class="cls-6" d="M380.84,33.06c.08,6.22-4.68,11.11-10.84,11.13-6.09.03-11.19-4.99-11.17-11,.02-5.67,5.09-10.82,10.79-10.96,6.13-.15,11.14,4.68,11.22,10.83h0ZM378.81,33.47c.11-5.01-3.57-8.95-8.56-9.15-5.01-.2-9.34,4-9.31,9.02.03,4.91,3.98,8.83,8.93,8.86,5.03.03,8.83-3.68,8.94-8.73Z"/>
    <path class="cls-12" d="M561.95,308.31c-2.64,4.96-5.28,9.93-7.92,14.89-.41-.46-.82-.92-1.22-1.38,2.44-4.58,4.88-9.15,7.32-13.73.61.07,1.21.15,1.82.22h0Z"/>
    <path class="cls-12" d="M552.68,325.2c-1.89,5.33-4.88,10.1-7.64,14.98-.41-.46-.82-.93-1.22-1.39,2.29-4.66,4.39-9.42,7.36-13.72.5.04,1,.09,1.51.13h-.01Z"/>
    <path class="cls-12" d="M570.66,291.27c-2.18,5.24-4.65,10.32-7.88,15.02-.32-.48-.65-.96-.97-1.44,2.44-4.58,4.88-9.15,7.33-13.73.51.05,1.01.1,1.52.16h0Z"/>
    <path class="cls-12" d="M537.44,349.79c-.73-.81-1.47-1.63-2.2-2.44.4-.38.79-.76,1.19-1.15,4.79,2.63,3.46-3.31,5.79-4.12.49.03.99.06,1.48.1-.31,2.89-2.34,4.96-3.56,7.41-.63,1.27-1.7,1.43-2.7.2h0Z"/>
    <path class="cls-12" d="M580.66,273.29c-1.06,3.31-2.58,6.36-5.03,8.88-.13-.64-.26-1.28-.39-1.92,1.01-2.52,2.14-4.97,3.95-7.05.49.03.99.06,1.48.1h0Z"/>
    <path class="cls-12" d="M575.64,282.28c-.5,2.7-2.2,4.78-3.63,7.01-.41-.47-.81-.93-1.22-1.4,1.03-1.95,1.73-4.11,3.4-5.68l1.45.08h0Z"/>
    <path class="cls-12" d="M585.02,265.28c-.67,1.35-1.35,2.7-2.02,4.05-.41-.47-.81-.94-1.22-1.41.66-1.33,1.33-2.66,1.99-3.99.41.45.83.9,1.24,1.35h.01Z"/>
    <path class="cls-12" d="M572.02,289.29c-.42.68-.85,1.35-1.27,2.03-.31-.48-.63-.96-.94-1.45.33-.66.66-1.32.99-1.98.41.47.81.93,1.22,1.4h0Z"/>
    <path class="cls-12" d="M575.63,282.17s0,.1.01.11c-.48-.02-.96-.05-1.45-.07.35-.65.69-1.3,1.04-1.95.13.64.26,1.28.39,1.92h.01Z"/>
    <path class="cls-12" d="M554.03,323.21c-.42.68-.84,1.36-1.26,2.04-.32-.48-.63-.96-.95-1.45.33-.66.66-1.32.99-1.98.41.46.82.92,1.22,1.38h0Z"/>
    <path class="cls-12" d="M545.04,340.19c-.42.68-.84,1.36-1.25,2.03-.32-.48-.64-.96-.96-1.44.33-.66.66-1.32.99-1.98.41.46.82.93,1.22,1.39h0Z"/>
    <path class="cls-12" d="M538.38,353.24c-.37-.44-.74-.87-1.11-1.31.04-.41.08-.82.12-1.23,3.07-.22,1.36,1.43.99,2.55h0Z"/>
    <path class="cls-12" d="M583,269.33c-.33.66-.66,1.32-1,1.98-.41-.46-.81-.92-1.22-1.39.33-.67.67-1.33,1-2,.41.47.81.94,1.22,1.41Z"/>
    <path class="cls-12" d="M582,271.3c-.42.68-.83,1.36-1.25,2.04-.32-.48-.64-.96-.96-1.44.33-.66.66-1.32.99-1.98.41.46.81.92,1.22,1.39h0Z"/>
    <path class="cls-12" d="M562.69,306.23c-.25.69-.5,1.39-.74,2.08-.6-.07-1.21-.15-1.82-.22.37-.64.73-1.29,1.09-1.93l1.47.07Z"/>
    <path class="cls-12" d="M580.75,273.34l-.09-.05c-.49-.03-.99-.06-1.48-.09.2-.43.41-.87.61-1.3.32.48.64.96.96,1.44h0Z"/>
    <path class="cls-12" d="M552.77,325.25l-.09-.05c-.5-.04-1-.08-1.51-.13.21-.42.43-.85.64-1.27.32.48.63.96.95,1.45h.01Z"/>
    <path class="cls-12" d="M562.78,306.28l-.09-.05c-.49-.02-.98-.04-1.47-.07.19-.44.39-.88.58-1.32.32.48.65.96.97,1.44h.01Z"/>
    <path class="cls-12" d="M543.79,342.22l-.09-.05c-.49-.03-.99-.06-1.48-.09.2-.43.41-.87.61-1.3.32.48.64.96.96,1.44h0Z"/>
    <path class="cls-12" d="M570.74,291.31l-.09-.05c-.51-.05-1.01-.1-1.52-.15.22-.41.44-.83.66-1.24l.94,1.45h.01Z"/>
    <path class="cls-6" d="M361.47,390.19h-1.72c1.69-9.22,3.38-18.45,5.08-27.67.67.13,1.34.27,2,.4-1.79,9.09-3.57,18.18-5.36,27.27h0Z"/>
    <path class="cls-12" d="M261.94,269.23c-.4.36-.8.71-1.21,1.07-6.18-2.05-11.05-5.97-15.35-10.7.44-.38.89-.76,1.33-1.14,4.5,4.41,9.59,7.97,15.23,10.77h0Z"/>
    <path class="cls-6" d="M536.42,346.2c-.4.38-.79.76-1.19,1.15-.35-.32-.7-.64-1.05-.97.64-.15,1.29-.3,1.93-.45l.31.27h0Z"/>
    <path class="cls-7" d="M261.94,269.23c-5.63-2.8-10.73-6.36-15.23-10.77-20.7-25.97-3.27-66.66,20.54-77.48.75.03.67.65.67,1.07-.33,14.92,5.33,22.46,19.59,26.4,1.4.39,5.23-.68,3.59,2.69-1.09,2.24-.75,7.72-6.7,4.79-8.24-4.06-17.25-5.96-26.34-7.2-2.19-.3-4.52-.88-7.17.33,3.3,2.41,6.97,1.37,10.21,1.96,3.53.65,3.88,1.83,2.94,4.92-1.4,4.6-2.07,9.41-3.51,14-1.27,4.04.54,4.52,5.11,4.32-3.9-2.04-3.17-4.38-2.56-6.75,1.07-4.18,2.1-8.37,3.07-12.57.46-1.97,1.35-2.83,3.49-2.18,5.09,1.55,10.19,3.02,15.05,5.24,1.47.67,2.78,1.32,2.11,3.26-1.75,5.07-.4,10.15-.09,15.22-.94-.65-1.81-1.43-2.83-1.92-3.76-1.81-8.31-.06-9.83,3.69-1.57,3.87.33,8.17,4.44,9.48,1.67.53,3.54.43,5.33.61-6.32,5.5-11.15,11.84-11.34,20.67-.04,2.08-1.08,2.64-2.85,2.22-2.57-.62-5.12-1.35-7.67-2.03l-.02.03ZM269.79,238.82c-5.02.71-8.63,1.18-12.24,1.73-3.31.5-3.79,2.36-2.05,4.9,2.04,2.99,4.99,4.46,8.58,3.84,3.75-.65,6.22-3.02,7.26-6.71.7-2.5-.23-3.85-1.55-3.76h0ZM245.79,241.25c3.88-.04,7.13-3.49,7.05-7.49-.08-3.89-3.65-7.3-7.45-7.12-3.62.17-6.75,3.51-6.8,7.27-.05,3.92,3.34,7.38,7.2,7.34ZM277.7,226.51c-1.38.18-2.06,1.02-2.01,2.35.07,1.58,1.02,2.45,2.58,2.3,1.3-.12,2.17-1.13,2.11-2.35-.07-1.48-1.11-2.31-2.68-2.3ZM255.65,222.52c-.05-1.28-.73-2.13-2.08-2.21-1.55-.09-2.59.69-2.53,2.29.05,1.33,1.03,2.04,2.33,2.04s2.17-.64,2.29-2.11h-.01Z"/>
    <path class="cls-11" d="M321.11,238.42c-1.13,0-2.27-.06-3.39,0-8.15.47-9.27-.64-8.89-8.67.06-1.25.15-2.11,1.58-2.64,3.41-1.27,10.79,1.03,14.03,4.6,3.33,3.66,4.12,8.81,2.1,12.96-1.07,2.21-2.47,3.38-5.1,2.68-2.59-.68-5.24-.87-7.88-.09-2.43.72-3.19-.52-3.5-2.72-.3-2.15-.02-3.51,2.51-3.82,2.87-.35,5.92.11,8.54-2.3Z"/>
    <path class="cls-9" d="M317.25,286.44c-10.73-.03-18.93-8.27-18.88-18.96.06-10.53,8.65-19.04,19.08-18.9,10.24.13,18.59,8.55,18.68,18.83.1,10.59-8.31,19.06-18.88,19.03ZM317,284.54c9.63.08,17.26-7.27,17.44-16.78.17-9.19-7.75-17.24-17.04-17.32-9.44-.08-17.28,7.52-17.42,16.91-.15,9.39,7.5,17.12,17.02,17.2h0Z"/>
    <path class="cls-12" d="M283.8,248.37c-1.78-.19-3.66-.08-5.33-.61-4.11-1.32-6.01-5.61-4.44-9.48,1.52-3.75,6.07-5.5,9.83-3.69,1.02.49,1.89,1.27,2.83,1.92l-.04-.09c.1.61.29,1.14,1.07,1.07l-.06-.07c0,2.37.01,4.73.02,7.1l.04-.05c-.79-.1-.93.47-1.07,1.04-.05,1.86-1.49,2.34-2.87,2.88l.02-.02ZM285.7,240.75c-.23-3.04-2.17-4.82-5.15-4.76-3,.06-4.96,1.97-4.86,5.17.1,3.14,2.03,5.05,5.1,4.92,2.97-.12,4.89-1.9,4.91-5.33h0Z"/>
    <path class="cls-11" d="M287.69,244.5c0-2.37-.02-4.73-.02-7.1.71.89,1.37,1.83,2.15,2.65,3.23,3.39,1.19,4.21-2.13,4.45h0Z"/>
    <path class="cls-11" d="M287.73,237.48c-.78.07-.97-.46-1.07-1.07.96-.25.98.44,1.07,1.07Z"/>
    <path class="cls-11" d="M286.67,245.49c.14-.57.28-1.14,1.07-1.04.21.93-.37,1.05-1.07,1.04Z"/>
    <path class="cls-17" d="M277.13,516.64c-1.47,2.25-.91,4.29-.91,6.21-.04,29.6-.11,59.21.06,88.81.02,4.09-.94,5.36-5.19,5.29-16.14-.28-32.29-.17-48.44-.16-2.42,0-4.7.27-4.6-3.33.31-11.18.96-22.29,6.03-32.55,3.79-7.68,9.12-13.93,17.52-16.76,2.3-.77,2.36-1.61,1.47-3.55-11.08-24.06-4.49-44.55,12.98-62.69,1.8-1.87,1.71-3.79,1.71-5.92,0-18.13.1-36.26-.08-54.39-.04-3.59.68-4.88,4.58-4.77,10.48.3,20.97.26,31.46.02,3.78-.09,5.09.76,5.03,4.84-.24,17.79-.03,35.59-.17,53.39-.03,3.37.87,5.75,3.24,8.32,16.41,17.78,22.28,37.75,11.72,60.8-.66,1.45-1.88,2.86.89,3.79,11.53,3.89,17.13,13.18,20.81,23.85,2.83,8.23,3.56,16.85,3.61,25.56.02,2.92-1.04,3.62-3.78,3.6-17.64-.13-35.29-.24-52.93-.06-3.85.04-3.81-1.82-3.81-4.55.04-29.94.04-59.87-.01-89.81,0-1.87.77-3.98-1.21-5.93h.02Z"/>
    <path class="cls-17" d="M356.61,499.94c11.39,15.61,12.61,33.02,9.13,51.29-.38,2.02-1.18,4.3,2.56,4.39,20.23.5,32.88,15.71,35.32,35.3.93,7.49.84,14.9.08,22.39-.27,2.66-.95,3.72-3.82,3.7-16.98-.12-33.97-.14-50.95,0-3.14.03-3.41-1.36-3.43-3.89-.08-10.7-1.38-21.21-5.44-31.23-3.45-8.52-8.47-15.84-16.34-20.83-1.93-1.22-2.37-2.27-1.64-4.41,7.82-23.01,1.24-42.75-14.04-60.4-1.71-1.97-2.77-3.82-2.75-6.57.12-17.47.16-34.94-.02-52.4-.04-3.55,1.04-4.62,4.51-4.42,4.65.28,9.33.28,13.98,0,3.39-.2,4.15,1.11,4.12,4.26-.14,14.97.04,29.95-.14,44.92-.04,3.46.68,4.91,4.45,5.3,8.13.84,14.74,5.48,21.49,9.64l-.05-.05c.26,1.16.67,2.04,2.03,1.01h.01c-1.04,1.37-.15,1.77,1.01,2.04l-.05-.05h-.02Z"/>
    <path class="cls-17" d="M433.49,616.95c-5.66,0-11.33-.27-16.97.09-4.11.26-5.49-.79-5.01-5.13,1.18-10.66.63-21.27-2.92-31.5-5.43-15.62-15.53-26.52-32.06-30.45-3.01-.72-3.42-1.97-3.18-4.81.81-9.61,1.05-19.22-1.54-28.71-4.75-17.45-15.71-28.95-32.92-34.27-3.56-1.1-4.47-2.64-4.42-6.14.2-12.96.17-25.93.02-38.9-.04-3.13.69-4.26,4.08-4.28,12.57-.06,12.57-.2,15.84,11.93,2.42,8.97,4.89,17.92,7.19,26.91.71,2.78,1.75,4.23,4.99,4.91,22.11,4.64,38.39,25.38,37.67,48-.11,3.52,1.99,3.59,4.01,4.41,24.47,9.9,40.34,27.42,46.75,53.13,2.52,10.12,2.41,20.4,1.09,30.71-.38,2.92-1.38,4.26-4.66,4.09-5.97-.3-11.97-.09-17.96-.09v.11h0Z"/>
    <path class="cls-17" d="M224.8,569.88c-2.49-.64-2.73,1.7-3.54,2.92-7.87,11.78-10.02,25.18-10.29,38.94-.08,4.06-1,5.23-5.2,5.15-14.31-.3-28.63-.19-42.94-.05-2.95.03-3.88-.75-4.19-3.81-1.08-10.7-.92-21.26,2.25-31.6,4.71-15.33,16.59-24.84,32.49-25.75,3.37-.19,3.9-1.37,3.36-4.23-.56-2.93-.9-5.91-1.24-8.88-1.81-16.15.77-31.13,11.79-43.83l.16-.16c7.32-5.97,15.25-10.6,24.9-11.59,3.18-.33,2.17-2.89,2.17-4.66.07-14.79.21-29.59-.07-44.38-.08-4.31,1.31-5.19,5.33-5.11,11.44.23,11.44.05,11.44,11.44,0,11.97.03,23.94-.01,35.9-.02,6.62,1.35,13.61-4.48,18.86l.05-.05c-.42.22-.98.32-1.24.66-12.54,16.12-17.82,33.9-11.96,54.04,1.1,3.79,1.9,6.88-2.68,8.76-.78.32-2.33.93-1.11,2.45h-.01c-2.53-.57-3.44,1-4.01,3.02l.04-.05c-1.14.27-2.01.68-1.01,2.02h.02-.02Z"/>
    <path class="cls-17" d="M227.8,457.16c0,6.82-.05,13.64.03,20.46.03,2.02-.23,3.4-2.57,4-23.75,6.04-38,26.81-36.73,55.25.13,2.99.16,6,.6,8.95.38,2.51-.38,3.45-2.85,4.1-20.36,5.37-32.78,20.8-34.5,42.44-.54,6.82-.5,13.63.21,20.42.3,2.9-.02,4.18-3.43,4.08-7.82-.23-15.64-.07-23.47.02-2.17.03-3.68-.28-4.62-2.68-9.78-24.93-9.12-48.45,9.43-69.43,6.6-7.47,14.88-12.82,24.31-16,4.04-1.36,5.51-3.19,5.71-7.62.94-21.39,15.37-39.33,35.91-45.39.64-.19,1.31-.66,1.89-.56,6.89,1.21,8.33-3.58,10.12-8.58,3.63-10.15,7.87-20.09,11.43-30.26,1.32-3.77,3.77-3.65,6.61-3.34,3.34.36,1.79,3.1,1.84,4.71.2,6.48.08,12.97.08,19.46v-.03Z"/>
    <path class="cls-8" d="M353.67,496.98c1.29-2.33-1.13-2.67-2.11-3.42-5.33-4.12-11.39-6.86-18-8.09-2.73-.51-3.87-1.22-3.83-4.31.19-14.79.06-29.59.13-44.38,0-1.31-.84-3.67,1.26-3.65,2.55.03,1.37,2.57,1.38,3.95.09,13.8.12,27.59,0,41.39-.03,2.87.55,4.14,3.72,5.01,21.24,5.85,34.08,22.01,35.43,44.09.42,6.81.43,13.62-.75,20.37-.25,1.45-.73,2.9,1.71,3.17,23.24,2.55,37.69,24.59,37.44,52.41-.03,3.48-.4,6.97-.58,10.45-.09,1.64-.4,3.05-2.51,2.82-2.23-.24-1.39-1.97-1.26-3.07,1.32-11,.97-21.88-2.16-32.58-4.52-15.42-16.66-25.72-32.61-27.36-3.06-.31-3.39-1.27-2.91-4.02,2.25-12.77,2.26-25.45-2.39-37.8-1.54-4.08-3.65-7.83-6.47-11.14-.56-.66-1.04-2.52-2.53-.88l.05.05c1.14-1.41.36-1.87-1.01-2.03h-.01c-.16-1.38-.61-2.16-2.03-1.02l.05.05h0Z"/>
    <path class="cls-8" d="M207.45,498.57l-.16.16c-3.81-.69-4.6,2.79-5.96,4.82-7.27,10.83-8.93,23.05-8.09,35.76.24,3.64.73,7.28,1.31,10.89.34,2.17.19,3.26-2.51,3.5-19.88,1.71-32.44,16.51-35.23,36.68-1.1,7.98-.89,15.92-.04,23.88.09.85.58,2.17-.89,2.39-1.36.21-1.6-1.01-1.69-1.96-1.58-17.48-1.62-34.66,10.19-49.36,5.97-7.44,13.78-11.97,23.11-13.61,3.48-.61,4.44-1.57,3.86-5.38-1.45-9.4-1.48-18.93.85-28.25,4.54-18.19,15.99-29.85,34.11-34.66,2.89-.77,3.6-1.85,3.57-4.62-.13-13.97-.09-27.95-.01-41.92,0-1.3-.94-3.64,1.1-3.72,2.64-.11,1.52,2.47,1.53,3.84.09,14.64-.06,29.28.15,43.92.05,3.24-1.13,4.11-4.03,4.64-6.97,1.28-13.29,4.21-18.75,8.77-1.25,1.04-3.47,1.79-2.41,4.25v-.02Z"/>
    <path class="cls-8" d="M246.72,499.04c4.18-1.27,6.5-3.91,6.49-8.44-.03-17.13-.01-34.25-.01-51.38,0-1-.08-2,.02-2.99.13-1.19-.57-3.2,1.37-3.11,1.93.09,1.07,2.1,1.07,3.23.06,18.62-.04,37.24.13,55.86.03,2.92-1.48,4.46-3.17,6.32-11.06,12.11-17.75,25.97-16.86,42.79.32,6.04,1.87,11.78,4.27,17.32.73,1.68,1.73,3.08-.97,4.34-13.21,6.17-18.51,17.87-21.32,31.19-1.31,6.21-1.29,12.54-1.72,18.83-.09,1.36,1.42,3.74-1.61,3.66-2.44-.06-1.55-2.2-1.52-3.45.32-14.8,2.36-29.15,11.47-41.54.34-.46.31-1.19.45-1.79h-.02c1.42-.13,2.13-.62,1.01-2.02l-.04.05c2.53.58,3.25-1.24,4.01-3.01h.01c2.74-.4,4.33-2.86,6.8-3.76,1.67-.61.95-1.77.53-2.86-7.86-20.43-3.63-38.94,8.94-56.14.65-.89,2.22-1.72.73-3.16l-.05.05h-.01Z"/>
    <path class="cls-8" d="M303.48,464.21c0,8.65.1,17.3-.06,25.94-.05,2.86.85,4.85,2.76,7.02,15.57,17.75,21.97,37.64,13.38,60.74-.55,1.47-1.05,2.49.87,3.58,14.74,8.39,19.83,22.5,22.11,38.11.67,4.59.75,9.27.95,13.91.05,1.11.83,3.07-1.22,3.15-2.11.09-1.43-1.87-1.43-3.03,0-8.01-.68-15.91-2.89-23.65-3.37-11.77-9.03-21.78-20.75-27.1-2.1-.95-1.59-1.95-.96-3.48,9.8-23.79,3.33-44.11-13.5-62.11-1.52-1.63-2.01-3.2-2.01-5.3.05-18.46.01-36.92.07-55.37,0-1.26-.88-3.57,1.36-3.49,2.12.07,1.28,2.34,1.3,3.66.07,9.15.04,18.29.04,27.44l-.02-.02Z"/>
    <path class="cls-7" d="M29.09,242.03c-5.19-11.16-9.19-22.68-13.11-34.23-4.58-13.52-9.66-26.88-11.7-41.13-.94-6.62,1.16-10.77,5.97-11.12,3.72-.27,5.69,1.36,6.72,5.08,6.67,24.02,14.9,47.51,24.74,70.42.5,1.18.65,2.59,2.4,3.27,1.45-1.65,0-3.06-.54-4.34-9.58-22.84-17.85-46.14-24.54-69.98-1.88-6.71.28-13.93,4.57-15.3,4.16-1.33,11.2,4.09,13.14,10.1,6.95,21.47,13.67,43.02,22.21,63.94,1.39,3.4,2.47,7.1,5.4,9.64,1.33-.92.9-1.66.53-2.41-10.93-22.33-17.36-46.3-25.38-69.68-.91-2.65.46-3.63,2.07-4.86,2.98-2.26,6.14-2.65,9.23-.45,2.94,2.09,4.58,5.25,5.94,8.48,5.41,12.85,10.46,25.87,16.19,38.58,5.38,11.93,12.56,22.68,23.41,30.53,5.69,4.12,8.71,3.25,11.09-3.42,3.01-8.44,1.77-17.09.87-25.67-.49-4.65-.7-9.29-.45-13.94.22-4.04,1.59-7.76,5.98-8.79,4.7-1.1,7.03,2.44,8.75,5.88,3.78,7.59,4.74,15.95,5.04,24.23.97,26.44,3.94,52.65,8.46,78.7.5,2.9-.09,3.46-2.82,4.02-27.94,5.7-52.77,17.83-74.32,36.54-2.01,1.74-3.08,2.5-4.65-.5-16.17-30.91-32.76-61.6-46.28-93.81-2.44-5.82-4.33-11.84-5.58-18.05-.98-4.87-.02-9.33,3.15-13.1,2.75-3.27,4.79-2.8,6.11,1.25,3.72,11.36,7.58,22.68,12.44,33.61,1.1,2.48,2.09,5.14,4.95,6.5h.01Z"/>
    <path class="cls-7" d="M536.42,346.2l-.31-.27c-17.93-16.43-38.99-26.87-62.51-32.59-3.23-.78-6.49-1.68-9.77-1.89-3.42-.21-3.6-1.85-3.26-4.56,3.52-27.39,4.81-54.94,5.92-82.5.26-6.5.9-12.93,2.95-19.13,1.36-4.1,3.3-7.87,8.51-7.62,3.87.19,7.39,4.6,7.34,9.94-.06,6.13-.77,12.26-1.31,18.38-.46,5.14-.83,10.24.22,15.38.88,4.29,2.99,7.47,7.25,8.67s7.76-.51,10.76-3.57c7.56-7.72,12.51-17.13,17.46-26.56,6.49-12.37,11.29-25.51,17.12-38.17,1.53-3.33,3.35-6.49,6.12-9.02,2.74-2.51,5.55-2.48,8.68-.71,3.18,1.8,1.76,4.2,1.06,6.51-7.14,23.51-13.8,47.2-25.92,68.83-.34.61-.33,1.27.5,2.17,3.17-3.04,4.76-7.01,6.51-10.81,8.65-18.75,14.71-38.42,20.64-58.14.67-2.23,1.27-4.48,2.03-6.68,1-2.91,2.78-5.34,5.34-7.03,3.06-2.02,6.42-2.91,9.87-1.02,3.16,1.73,4.03,4.75,3.85,8.09-.37,6.73-3.12,12.87-4.97,19.22-4.98,17.06-10.25,34.02-17.09,50.44-1.74,4.17-3.95,8.14-6.33,13,3.98-1.57,4.93-4.52,6.1-7.06,7.63-16.65,12.78-34.19,18.24-51.6,1.64-5.22,3.25-10.46,4.66-15.75.67-2.48,1.54-4.49,4.5-4.31,2.84.17,5.07,1.24,6.02,4.29,1.67,5.38.21,10.61-.84,15.75-4.42,21.7-9.97,43.04-21.49,62.31-.3.51-.36,1.16-.65,2.17,2.65-.18,3.08-2.09,3.89-3.52,6.48-11.5,11.23-23.69,14.72-36.4.4-1.47-.05-3.72,2.28-3.87,1.91-.12,3.51,1,4.66,2.51,3.13,4.12,3.5,8.96,2.95,13.79-.95,8.45-3.03,16.65-6.5,24.46-.67,1.51-1.23,3.08-1.83,4.63-.66,1.33-1.33,2.66-1.99,3.99-.33.67-.67,1.33-1,2-.33.66-.66,1.32-.99,1.98-.2.43-.41.86-.61,1.3-1.8,2.08-2.94,4.53-3.95,7.05-.35.65-.7,1.3-1.04,1.95-1.67,1.57-2.37,3.73-3.4,5.68-.33.66-.66,1.32-.99,1.98-.22.41-.44.83-.67,1.24-2.44,4.58-4.88,9.16-7.33,13.73-.2.44-.39.88-.58,1.32-.37.64-.73,1.29-1.09,1.93-2.44,4.58-4.88,9.16-7.32,13.73-.33.66-.66,1.32-.99,1.98-.22.42-.43.85-.64,1.27-2.97,4.3-5.07,9.06-7.36,13.72-.33.66-.66,1.32-.99,1.98-.2.43-.41.86-.61,1.3-2.33.82-1,6.76-5.79,4.12h-.03Z"/>
    <path class="cls-13" d="M215.13,117.99c-2.06,4.8.85,5.55,5.7,6.19,12.67,1.66,23.15,7.02,26.22,20.71,2.78,12.41-1.25,23.59-7.96,33.96-.59.91-1.42,2.21-2.75,1.06-1.21-1.04-.17-2.08.41-3.06,4.45-7.51,7.96-15.32,8-24.28.05-12.1-5.78-20.18-17.27-23.83-1.42-.45-2.88-.82-4.34-1.1-5.47-1.03-9.34,1.02-11.59,6.14-5.43,12.34-14.57,19.26-25.02,18.88-4.21-.15-7.93-1.49-9.93-5.48-2.01-4.02-.78-7.71,1.74-11.16,4.09-5.58,10.25-7.66,16.39-9.75,4.26-1.45,8.69-2.46,13.18-2.48,3.17-.02,3.86-1.28,3.98-4.13.54-13.3-3.31-24.63-15.72-30.95-13.23-6.74-25.81-3.53-37.43,4.72-1.62,1.15-3.01,2.61-4.47,3.96-.95.88-1.94,2.38-3.24,1.01-1.17-1.23.07-2.43,1.01-3.37,9.05-9.05,19.91-14,32.78-12.75,18.84,1.84,30.72,15.84,30.33,35.68l-.02.03ZM209.86,126.7c-9.1.58-17.63,2.73-25.38,7.57-1.85,1.16-3.31,2.77-4.4,4.65-2.79,4.81-1.14,8.79,4.19,10.3,2.12.6,4.26.55,6.39.09,9.24-2,18.26-12.48,19.2-22.6h0Z"/>
    <path class="cls-5" d="M426.87,148.96c-.74,2.39-4.74,3.9-3.6,6,1.33,2.46,5.11,1.3,7.84,1.66,1.15.15,2.31.17,4.3.31-3.3,2.02-6.29,1.53-9.1,1.74-3.51.27-4.03,1.44-1.79,4.23,1.23,1.53,3.74,2.59,2.72,5.34-2.76-1.32-4.45-5.8-7.5-4.53-2.4,1-.84,5.15-1.46,7.84-.29,1.26-.57,2.52-1.39,3.75-.22-2.82-.36-5.66-.69-8.47-.15-1.26.15-3-1.15-3.59-1.37-.62-2.31.88-3.34,1.66-.91.7-1.87,1.35-2.8,2.01-.39-.25-.78-.51-1.17-.76,3.27-4.63,2.08-7.2-3.55-7.72-1.47-.14-2.97-.18-4.79-1.42,3.43-.3,6.38-.55,9.33-.8,3.08-.27,3.94-1.43,1.66-3.97-1.22-1.35-2.36-2.76-3.56-4.18,2.33-1.27,3.21.98,4.66,1.76,1.12.61,1.84,2.36,3.31,1.81,1.69-.63,1.26-2.53,1.43-3.9.34-2.62.4-5.28.64-8.89,1.51,3.43,1.51,6.22,1.72,8.98.09,1.27-.4,2.91.95,3.66,1.72.95,2.58-.92,3.75-1.66.98-.61,1.88-1.35,2.82-2.03.26.39.51.78.77,1.17h-.01Z"/>
    <path class="cls-5" d="M406.64,168.72c-.41.77-.95,1.03-1.72.46.37-.41.74-.82,1.11-1.22.17.28.37.54.61.76Z"/>
    <path class="cls-5" d="M407.77,167.92c-.38.27-.76.53-1.14.8-.24-.22-.44-.47-.61-.76.34-.36.69-.72,1.03-1.08.24.35.48.69.72,1.04Z"/>
    <path class="cls-5" d="M408.81,166.98c-.34.31-.69.63-1.03.94-.24-.35-.48-.69-.72-1.04.13-.29.34-.5.61-.65l1.14.75h0Z"/>
    <path class="cls-5" d="M427.29,148.41c-.31.34-.62.69-.93,1.03-.25-.38-.5-.76-.75-1.14.36-.29.72-.57,1.08-.85.2.32.41.64.61.96h-.01Z"/>
    <path class="cls-5" d="M427.21,146.92c.38,0,.75.03,1.13.04-.17.31-.34.63-.51.94-.21-.33-.41-.66-.62-.99h0Z"/>
    <path class="cls-5" d="M293.94,73.02c4.26-1.31,8.18-3.67,12.7-4.11,1.78-.17,3.99-.58,4.91,1.43.92,2.02-.8,3.39-2.16,4.59-3.53,3.14-7.96,4.62-13.1,6.63,2.87,1.21,5.09,2.06,7.24,3.09,1.79.85,3.63,1.72,5.19,2.92,1.63,1.25,4.07,2.62,2.92,5.12-.97,2.11-3.42,1.51-5.38,1.35-4.37-.37-8.21-2.39-13.06-4.36,1.18,2.85,2.23,4.99,2.96,7.24.71,2.19,1.26,4.47,1.55,6.75.22,1.73.63,4.02-1.52,4.78-2.01.71-3.36-1.08-4.52-2.46-3.14-3.72-4.66-8.31-6.49-13.17-2.05,4.78-3.31,9.51-6.47,13.25-1.14,1.35-2.35,3.26-4.46,2.49-2.19-.8-1.63-3.04-1.6-4.79.08-4.75,2.44-8.85,4.42-13.94-4.49,1.84-8.21,3.87-12.34,4.56-2.24.37-5.24,1.24-6.34-1.22-1.09-2.43,1.43-4.08,3.3-5.47,3.35-2.5,7.3-3.8,11.39-5.52-1.95-2.1-4.66-2.05-6.7-3.29-1.83-1.12-3.86-1.99-5.52-3.32-1.45-1.16-3.75-2.45-2.63-4.75.89-1.83,3.13-1.47,4.96-1.38,4.69.25,8.8,2.44,13.75,4.43-1.95-4.85-4.21-8.89-4.74-13.49-.23-2.02-.54-4.32,1.56-5.27,2.02-.91,3.28,1.15,4.47,2.44,3.29,3.57,4.66,8.25,6.73,13.42,1.73-5.3,3.23-9.68,6.16-13.32,1.2-1.5,2.61-3.67,4.85-2.6,2.07.99,1.69,3.42,1.49,5.39-.45,4.34-2.7,8.12-3.86,12.25-.2.17-.57.48-.56.5.39.52.67.26.91-.16h0Z"/>
    <path class="cls-16" d="M297.89,95.16c-.03-.37-.06-.75-.08-1.12.33.18.67.35,1,.53-.31.2-.61.4-.92.6h0Z"/>
    <path class="cls-15" d="M390.85,77.94c-8.24-1.91-15.01.41-20.63,6.02-8.8,8.78-12.47,20.17-15.55,31.79-.21.8-.2,1.66-.44,2.45-.29.94-.7,2.19-1.86,1.97-1.39-.26-1.49-1.45-1.19-2.77,3-13.06,6.96-25.68,16.77-35.5,5.99-6,13.17-8.93,21.71-7.26,3.15.62,5.3-.54,7.61-2.43,11.03-9.01,23.75-13.73,37.97-14.36,1.43-.06,4.01-1.01,4.01,1.41s-2.57,1.41-4.06,1.51c-12.93.89-24.65,4.99-35,12.89-2.3,1.75-2.96,2.89-.22,5.1,3.88,3.14,5.43,7.49,3.95,12.49-1.3,4.4-5.37,6.9-9.59,6.11-4.73-.88-7.29-4.37-7.07-9.35.16-3.61,2.15-6.55,3.58-10.09v.02ZM401.42,87.86c-.05-3.36-3.58-8.3-5.99-8.38-2.14-.07-5.16,5.48-5.13,9.32.03,3.78,2.33,5.53,5.65,5.46,3.81-.09,5.27-2.87,5.47-6.4Z"/>
    <path class="cls-5" d="M387.11,206.21c5.83.08,10.41,4.69,10.41,10.49s-4.81,10.75-10.78,10.67c-5.7-.07-10.33-4.8-10.36-10.57-.03-6.17,4.53-10.67,10.73-10.59h0Z"/>
    <path class="cls-13" d="M378.81,33.47c-.11,5.05-3.91,8.76-8.94,8.73-4.95-.03-8.9-3.95-8.93-8.86-.03-5.02,4.3-9.22,9.31-9.02,4.99.2,8.67,4.14,8.56,9.15Z"/>
    <path class="cls-12" d="M269.79,238.82c1.32-.08,2.25,1.26,1.55,3.76-1.04,3.68-3.51,6.06-7.26,6.71-3.59.62-6.54-.85-8.58-3.84-1.73-2.54-1.26-4.4,2.05-4.9,3.6-.55,7.22-1.02,12.24-1.73h0ZM256.27,242.83c2.01,3.25,4.23,4.96,7.48,4.39,2.93-.52,5.03-2.24,5.26-5.71-4.2-.39-8.06.97-12.74,1.32h0Z"/>
    <path class="cls-12" d="M245.79,241.25c-3.86.04-7.25-3.42-7.2-7.34.05-3.76,3.18-7.1,6.8-7.27,3.8-.18,7.37,3.23,7.45,7.12.08,4-3.17,7.45-7.05,7.49ZM245.77,228.79c-2.79.47-4.96,1.75-5.03,5.02-.07,3.23,1.9,5.11,4.87,5.18,2.93.07,5.09-1.6,5.13-4.88.04-3.2-1.86-4.78-4.97-5.32h0Z"/>
    <path class="cls-10" d="M277.7,226.51c1.57-.02,2.6.81,2.68,2.3.06,1.23-.81,2.23-2.11,2.35-1.56.15-2.51-.72-2.58-2.3-.06-1.32.63-2.17,2.01-2.35h0Z"/>
    <path class="cls-10" d="M255.65,222.52c-.12,1.47-.99,2.11-2.29,2.11s-2.28-.71-2.33-2.04c-.05-1.6.99-2.38,2.53-2.29,1.35.08,2.03.93,2.08,2.21h.01Z"/>
    <path class="cls-1" d="M317,284.54c-9.52-.08-17.17-7.81-17.02-17.2.15-9.39,7.98-16.99,17.42-16.91,9.29.08,17.21,8.14,17.04,17.32-.18,9.52-7.81,16.86-17.44,16.78h0Z"/>
    <path class="cls-14" d="M285.7,240.75c-.02,3.43-1.94,5.21-4.91,5.33-3.07.12-4.99-1.78-5.1-4.92-.11-3.2,1.85-5.11,4.86-5.17,2.98-.06,4.92,1.73,5.15,4.76h0Z"/>
    <path class="cls-4" d="M353.61,496.94c1.41-1.14,1.87-.36,2.03,1.01-1.36,1.03-1.76.15-2.03-1.01Z"/>
    <path class="cls-4" d="M355.65,497.96c1.37.16,2.16.62,1.01,2.03-1.16-.27-2.05-.67-1.01-2.03Z"/>
    <path class="cls-4" d="M246.77,498.99c1.49,1.45-.09,2.28-.73,3.16-12.56,17.2-16.79,35.71-8.94,56.14.42,1.09,1.14,2.25-.53,2.86-2.47.9-4.06,3.36-6.8,3.75-1.22-1.52.33-2.13,1.11-2.45,4.58-1.88,3.78-4.97,2.68-8.76-5.86-20.13-.57-37.92,11.96-54.04.26-.34.82-.45,1.24-.66h.01Z"/>
    <path class="cls-4" d="M229.76,564.91c-.77,1.76-1.49,3.59-4.01,3.01.58-2.02,1.49-3.59,4.01-3.01Z"/>
    <path class="cls-6" d="M209.86,126.7c-.93,10.12-9.96,20.61-19.2,22.6-2.13.46-4.27.52-6.39-.09-5.33-1.51-6.98-5.49-4.19-10.3,1.09-1.87,2.55-3.49,4.4-4.65,7.75-4.84,16.28-6.99,25.38-7.57h0ZM207.96,128.85c-8.71.93-16.48,2.91-23.19,7.76-2.57,1.86-5.03,4.67-3.63,7.99,1.42,3.35,5.07,3.19,8.28,2.91.81-.07,1.6-.37,2.39-.63,8.72-2.81,12.69-9.8,16.15-18.04h0Z"/>
    <path class="cls-12" d="M293.94,73.02c-.25.41-.53.68-.91.16-.01-.02.37-.33.56-.5l.35.34Z"/>
    <path class="cls-2" d="M401.43,87.86c-.2,3.53-1.66,6.31-5.47,6.4-3.31.07-5.62-1.68-5.65-5.46-.03-3.84,2.99-9.4,5.13-9.32,2.41.08,5.94,5.02,5.99,8.38ZM399.45,87.88c-.45-2.49-1.35-5.84-3.69-5.76-2.85.1-3.03,3.76-3.45,6.25-.41,2.48,1.23,3.75,3.46,3.82,2.75.09,3.48-1.96,3.68-4.31Z"/>
    <path class="cls-9" d="M256.27,242.83c4.69-.35,8.54-1.71,12.74-1.32-.24,3.47-2.34,5.19-5.26,5.71-3.25.58-5.47-1.14-7.48-4.39h0Z"/>
    <path class="cls-14" d="M245.77,228.79c3.11.54,5.01,2.12,4.97,5.32-.05,3.28-2.2,4.95-5.13,4.88-2.97-.07-4.94-1.94-4.87-5.18.07-3.28,2.24-4.55,5.03-5.02h0Z"/>
    <path class="cls-3" d="M207.96,128.85c-3.46,8.24-7.43,15.23-16.15,18.04-.78.25-1.58.56-2.39.63-3.21.28-6.87.44-8.28-2.91-1.4-3.32,1.06-6.13,3.63-7.99,6.72-4.85,14.49-6.83,23.19-7.76h0Z"/>
    <path class="cls-9" d="M399.45,87.88c-.2,2.35-.92,4.4-3.68,4.31-2.22-.07-3.87-1.34-3.46-3.82.42-2.49.59-6.15,3.45-6.25,2.34-.08,3.24,3.27,3.69,5.76Z"/>
    <path class="cls-5" d="M427.27,148.21c.64,0,.64-1,0-1s-.64,1,0,1h0Z"/>
    <path class="cls-5" d="M427.78,147.78h0s-.03.07-.05.11c.01-.03.03-.06.05-.09l-.91-.39s-.02.05-.03.07l.05-.12s-.04.08-.06.11l.08-.1c-.04.05-.09.1-.14.15-.04.04-.09.09-.14.13l.1-.08s-.05.04-.08.05c-.06.03-.11.07-.14.13-.04.05-.07.1-.09.17-.02.07-.02.13,0,.2,0,.07.02.13.06.19.07.11.17.2.3.23l.13.02c.09,0,.17-.02.25-.07.03,0,.05-.03.07-.05.06-.04.11-.08.16-.13.05-.04.09-.09.14-.13.07-.07.14-.15.19-.23.02-.02.03-.05.04-.08.03-.06.06-.13.08-.2.02-.07.02-.13,0-.2,0-.07-.02-.13-.06-.19l-.08-.1s-.1-.08-.16-.1c-.04-.02-.08-.03-.13-.03-.07,0-.13,0-.2,0l-.12.05c-.08.04-.13.1-.18.18-.05.07-.08.14-.11.22-.02.07-.02.13,0,.2,0,.07.02.13.06.19.03.06.07.11.13.14.05.04.1.07.17.09l.13.02c.09,0,.17-.02.25-.07l.1-.08c.06-.06.1-.14.13-.22h.01Z"/>
    <path class="cls-5" d="M427.22,148.09c.64,0,.64-1,0-1s-.64,1,0,1h0Z"/>
    <path class="cls-5" d="M427.37,147.95c.64,0,.64-1,0-1s-.64,1,0,1h0Z"/>
    <path class="cls-5" d="M427.42,147.92c.64,0,.64-1,0-1s-.64,1,0,1h0Z"/>
    <path class="cls-5" d="M426.97,147.1l-.02.02s-.08.1-.1.16c-.03.06-.05.12-.04.19,0,.07.01.13.04.19.02.06.05.12.1.16l.1.08c.08.05.16.07.25.07l.13-.02c.08-.02.16-.07.22-.13l.02-.02s.08-.1.1-.16c.03-.06.05-.12.04-.19,0-.07-.01-.13-.04-.19-.02-.06-.05-.12-.1-.16l-.1-.08c-.08-.05-.16-.07-.25-.07l-.13.02c-.08.02-.16.07-.22.13h0Z"/>
    <path class="cls-5" d="M427.06,147.05c-.14.04-.25.12-.33.23-.04.05-.07.11-.11.16l.08-.1s-.02.02-.03.03l.1-.08s-.12.06-.17.09c-.1.06-.17.14-.26.21l.1-.08c-.09.07-.19.14-.28.22-.06.05-.11.1-.17.15l.1-.08s-.08.05-.12.07l.12-.05s-.03,0-.04.02c-.12.04-.23.12-.3.23-.06.11-.09.27-.05.39s.11.24.23.3.26.09.39.05c.16-.05.29-.13.42-.25.07-.06.13-.12.2-.18l-.1.08c.07-.05.15-.1.22-.16.04-.03.08-.07.12-.1l-.1.08c.06-.05.13-.06.19-.11.11-.07.16-.13.24-.23.02-.03.04-.07.07-.1l-.08.1s.02-.02.03-.03l-.1.08s.02,0,.03,0l-.12.05h.01c.12-.04.23-.12.3-.23s.09-.27.05-.39-.11-.24-.23-.3-.25-.09-.39-.05h-.02Z"/>
    <path class="cls-5" d="M426.89,147.48s0,.02-.01.03l.05-.12s-.03.05-.04.07l.08-.1s-.04.04-.06.06c-.09.08-.15.24-.15.35s.04.21.11.3c.15.19.43.26.65.13.13-.08.24-.19.32-.33.07-.11.09-.26.05-.39-.03-.12-.12-.24-.23-.3-.12-.06-.26-.09-.39-.05s-.22.12-.3.23c-.02.03-.03.05-.05.08l.08-.1c-.06.08-.12.14-.2.2s-.15.12-.21.19c-.09.1-.15.22-.15.35,0,.12.05.27.15.35s.22.15.35.15l.13-.02c.08-.02.16-.07.22-.13l.19-.16-.84-.49v.02s.03-.08.04-.12c-.01.03-.03.06-.05.09l.08-.1c-.09.11-.2.22-.31.32s-.23.2-.34.29l.1-.08s-.02.02-.03.02l.61.79h.01s-.07.04-.1.07c.02,0,.04-.02.06-.03l-.12.05s.04,0,.06-.02l-.13.02h.02s.09,0,.13-.02c.07-.02.12-.05.17-.09.08-.06.17-.16.18-.26v-.06c.03-.07.03-.13.02-.2,0-.07-.02-.13-.06-.19-.06-.1-.18-.2-.3-.23-.13-.03-.27-.02-.39.05-.1.07-.21.17-.23.3v.06c.15-.12.31-.24.47-.37-.11,0-.17.02-.27.06s-.15.08-.23.15-.15.24-.15.35.04.21.11.3c.06.08.16.16.26.18.12.03.28.03.39-.05.18-.14.36-.28.52-.44.07-.07.14-.13.2-.2.12-.12.2-.24.25-.4l.02-.13c0-.07-.01-.13-.04-.19-.04-.1-.11-.19-.2-.24-.08-.04-.16-.06-.25-.07-.14,0-.25.06-.35.15l-.19.16.71.71c.07-.09.17-.15.25-.22.11-.1.21-.22.29-.34l-.86-.5s-.02.03-.03.04l.08-.1s-.04.05-.07.07l.1-.08s-.03.02-.04.03l.61.79c.12-.1.19-.24.24-.39.04-.12.01-.28-.05-.39s-.18-.2-.3-.23c-.13-.03-.27-.02-.39.05s-.18.17-.23.3h0l-.02.02Z"/>
    <path class="cls-5" d="M427.4,147.89c.64,0,.64-1,0-1s-.64,1,0,1h0Z"/>
  </g>
</svg>