<?xml version="1.0" encoding="UTF-8"?>
<svg id="Calque_1" data-name="Calque 1" xmlns="http://www.w3.org/2000/svg" viewBox="0 0 277.18 237.62">
  <defs>
    <style>
      .cls-1 {
        fill: #064058;
      }

      .cls-1, .cls-2 {
        stroke-width: 0px;
      }

      .cls-2 {
        fill: #86cdd7;
      }
    </style>
  </defs>
  <path class="cls-2" d="M156.22,128.31c-3.39,0-6.82-.26-10.18.08-3.51.35-4.21-1.1-3.92-4.24,1.25-13.62,5.61-26.01,14.14-36.81,10.9-13.8,24.99-22.44,42.39-25.27,19.98-3.26,37.91,1.76,53.62,14.4,13.34,10.74,21.13,24.82,23.96,41.66.45,2.67.62,5.38.92,8.07.2,1.67-.65,2.14-2.2,2.13-7.93-.05-15.85-.06-23.78,0-1.78,0-2.25-.68-2.4-2.38-1.69-19.01-13.99-32.96-32.93-36.14-24.55-4.12-44.32,14.96-45.27,35.48-.11,2.35-.78,3.17-3.15,3.06-3.72-.17-7.46-.05-11.2-.05v.02h0Z"/>
  <path class="cls-2" d="M14.13,128.31c-3.62,0-7.25-.15-10.87.05-2.52.14-3.42-.6-3.24-3.21.92-13.93,5.4-26.54,13.96-37.58,10.96-14.11,25.32-22.81,42.96-25.6,19.72-3.11,37.58,1.82,53.03,14.35,15.27,12.38,23.6,28.56,24.71,48.34.15,2.73-.47,3.8-3.45,3.71-7.24-.21-14.49-.12-21.74-.03-2.02.03-2.61-.62-2.82-2.67-1.66-16.51-10.15-28.32-25.72-33.91-15.32-5.5-29.4-2.44-41.26,9.18-6.94,6.8-10.78,15-11.2,24.7-.09,2.07-.75,2.76-2.8,2.7-3.85-.12-7.71-.03-11.55-.03h-.01Z"/>
  <path class="cls-1" d="M248.85,160.48c-3.42,10.56-8.25,20.1-14.48,28.92-14.34,20.34-33.29,34.62-56.94,42.49-17.49,5.82-35.45,7.28-53.59,4.04-40.08-7.13-67.87-30.13-84.92-66.68-1.06-2.25-1.69-4.69-2.61-7-.59-1.49-.2-1.85,1.39-2.02,3.51-.35,5.37.51,6.85,4.31,7.89,20.18,21.1,36.34,39.08,48.33,21.1,14.05,44.56,19.96,69.74,17.2,27.05-2.97,49.8-14.81,68-35.24,7.69-8.64,13.63-18.31,18.15-28.89,2.52-5.9,2.44-5.94,9.3-5.47h.03,0Z"/>
  <path class="cls-2" d="M55,22.36c-.5,7.1-3.15,15.2-7.18,22.87-.62,1.18-1.52,2.5-3.18,1.84-1.46-.57-1.24-2.01-1.15-3.24.06-.78.2-1.57.36-2.34,1.61-7.64-.11-11.6-6.92-15.49-3.08-1.75-5.87-3.86-8.1-6.6-3.66-4.49-3.77-9.41-.42-14.37C31.18.91,36.58-.96,41.53.48c8.88,2.58,13.53,9.57,13.48,21.88h-.02.01Z"/>
  <path class="cls-2" d="M20.98,24.9c5.11-.14,8.43,2.56,11.38,5.78,3.09,3.36,5.23,7.34,7.18,11.44.63,1.34.54,2.41-.59,3.3-1.37,1.09-2.44.2-3.14-.86-3.42-5.26-7.84-4.81-13.03-2.91-7.37,2.7-13.39-1.73-12.58-8.87.51-4.43,5.47-7.96,10.78-7.9l-.02.02h.02Z"/>
</svg>