<svg width="73" height="73" viewBox="0 0 73 73" fill="none" xmlns="http://www.w3.org/2000/svg">
<path opacity="0.4" d="M69.6106 36.4375C69.6106 45.2355 66.1155 53.6732 59.8944 59.8944C53.6732 66.1155 45.2355 69.6105 36.4375 69.6105C32.0385 69.6105 27.8196 67.863 24.709 64.7525C21.5985 61.6419 19.851 57.423 19.851 53.024C19.851 48.625 21.5985 44.4061 24.709 41.2956C27.8196 38.185 32.0385 36.4375 36.4375 36.4375C40.8365 36.4375 45.0554 34.69 48.1659 31.5794C51.2765 28.4688 53.024 24.25 53.024 19.8509C53.024 15.4519 51.2765 11.2331 48.1659 8.12249C45.0554 5.01191 40.8365 3.2644 36.4375 3.2644C45.2355 3.2644 53.6732 6.75941 59.8944 12.9806C66.1155 19.2017 69.6106 27.6394 69.6106 36.4375Z" fill="#004273"/>
<path d="M36.4375 0.5C29.3297 0.5 22.3816 2.6077 16.4717 6.55656C10.5618 10.5054 5.95562 16.1181 3.23559 22.6848C0.515571 29.2515 -0.196111 36.4774 1.19055 43.4486C2.5772 50.4197 5.99992 56.8232 11.0259 61.8491C16.0518 66.8751 22.4553 70.2978 29.4265 71.6844C36.3976 73.0711 43.6235 72.3594 50.1902 69.6394C56.7569 66.9194 62.3696 62.3132 66.3184 56.4033C70.2673 50.4934 72.375 43.5453 72.375 36.4375C72.3649 26.9094 68.5754 17.7744 61.838 11.037C55.1006 4.29955 45.9656 0.510062 36.4375 0.5ZM6.02886 36.4375C6.03801 28.3754 9.2447 20.6462 14.9454 14.9454C20.6462 9.24469 28.3754 6.03799 36.4375 6.02884C40.1034 6.02884 43.6191 7.4851 46.2112 10.0772C48.8034 12.6694 50.2596 16.1851 50.2596 19.851C50.2596 23.5168 48.8034 27.0325 46.2112 29.6247C43.6191 32.2168 40.1034 33.6731 36.4375 33.6731C33.1726 33.6723 29.9606 34.4976 27.1004 36.0722C24.2403 37.6467 21.825 39.9194 20.0795 42.6785C18.334 45.4377 17.315 48.5936 17.1174 51.8525C16.9197 55.1115 17.5498 58.3674 18.9491 61.3173C14.9574 58.5111 11.6995 54.7855 9.45078 50.4551C7.20201 46.1248 6.02833 41.3169 6.02886 36.4375ZM36.4375 66.8461C32.7717 66.8461 29.2559 65.3899 26.6638 62.7977C24.0716 60.2056 22.6154 56.6899 22.6154 53.024C22.6154 49.3582 24.0716 45.8425 26.6638 43.2503C29.2559 40.6582 32.7717 39.2019 36.4375 39.2019C39.7001 39.2013 42.9096 38.3758 45.7676 36.8022C48.6256 35.2285 51.0393 32.9578 52.7844 30.2011C54.5294 27.4444 55.5491 24.2912 55.7487 21.0347C55.9483 17.7782 55.3213 14.5241 53.9259 11.575C59.2064 15.2935 63.1658 20.5966 65.2305 26.7161C67.2952 32.8355 67.3579 39.4534 65.4096 45.6109C63.4613 51.7684 59.6032 57.1456 54.3942 60.9636C49.1852 64.7816 42.8959 66.8419 36.4375 66.8461ZM40.5841 53.024C40.5841 53.8442 40.3409 54.6459 39.8853 55.3278C39.4297 56.0097 38.7821 56.5412 38.0244 56.855C37.2667 57.1689 36.4329 57.251 35.6285 57.091C34.8242 56.931 34.0853 56.5361 33.5054 55.9561C32.9255 55.3762 32.5305 54.6374 32.3706 53.833C32.2106 53.0286 32.2927 52.1949 32.6065 51.4372C32.9204 50.6795 33.4519 50.0319 34.1338 49.5762C34.8157 49.1206 35.6174 48.8774 36.4375 48.8774C37.5373 48.8774 38.592 49.3143 39.3696 50.0919C40.1473 50.8696 40.5841 51.9243 40.5841 53.024ZM32.2909 19.851C32.2909 19.0308 32.5341 18.2291 32.9897 17.5472C33.4453 16.8653 34.093 16.3338 34.8507 16.02C35.6084 15.7061 36.4421 15.624 37.2465 15.784C38.0508 15.944 38.7897 16.3389 39.3696 16.9188C39.9495 17.4988 40.3445 18.2376 40.5045 19.042C40.6645 19.8464 40.5823 20.6801 40.2685 21.4378C39.9546 22.1955 39.4232 22.8431 38.7413 23.2988C38.0593 23.7544 37.2576 23.9976 36.4375 23.9976C35.3378 23.9976 34.283 23.5607 33.5054 22.7831C32.7277 22.0054 32.2909 20.9507 32.2909 19.851Z" fill="#004273"/>
</svg>
