<?xml version="1.0" encoding="UTF-8"?>
<svg id="Calque_1" data-name="Calque 1" xmlns="http://www.w3.org/2000/svg" viewBox="0 0 1080 1080">
  <defs>
    <style>
      .cls-1 {
        fill: #064058;
      }

      .cls-1, .cls-2, .cls-3, .cls-4 {
        stroke-width: 0px;
      }

      .cls-2 {
        fill: #86cdd7;
      }

      .cls-3 {
        fill: #fdda36;
      }

      .cls-4 {
        fill: #d48193;
      }
    </style>
  </defs>
  <path class="cls-4" d="M237.17,508.63c0-14.16.06-28.32-.06-42.48-.02-2.68.53-3.8,3.5-3.71,7.46.21,14.96.14,22.42.03,2.22-.03,3.29.54,3.44,2.97.15,2.46.8,4.89,1.24,7.33.11.63-.14,1.51.72,1.72.77.2,1.15-.57,1.58-1.04,8.91-9.57,20.07-13.63,32.95-12.91,9.88.56,18.29,4.13,23.43,13.18,1.25,2.2,1.98,1.33,3.12.08,8.5-9.35,19.13-13.78,31.74-13.31,18.47.68,27.68,11.93,28.85,28.44,1.48,20.9.29,41.89.63,62.83.05,2.62-.8,3.21-3.29,3.18-9.62-.14-19.26-.15-28.89,0-2.58.05-3.24-.77-3.23-3.27.11-16.32.08-32.63.03-48.93,0-2.59-.17-5.23-.66-7.77-.9-4.6-4.39-7.72-8.49-8.04-6.12-.47-11.01,2.26-13.28,7.37-1.09,2.43-1.43,4.96-1.42,7.61.03,16.19.02,32.4,0,48.6,0,2.92-1.5,4.37-4.51,4.37-9.06,0-18.12-.11-27.19.06-2.79.05-3.66-.71-3.63-3.57.14-14.39.09-28.77.05-43.16,0-3.5-.2-7.01-.33-10.51-.2-5.19-2.62-8.87-6.82-10.34-4.42-1.57-10.27.09-13.25,3.78-2.28,2.82-3.44,6.02-3.42,9.7.05,16.77-.05,33.54.08,50.3.03,3-.87,3.88-3.86,3.83-9.29-.18-18.58-.21-27.87.02-3.15.08-3.69-1-3.66-3.85.14-14.16.06-28.32.06-42.48l.03-.05v.02Z"/>
  <path class="cls-3" d="M763.43,470.46v-16.92c0-7.48.03-14.94-.03-22.42,0-1.72.2-2.7,2.34-2.68,10.19.09,20.39.08,30.58,0,1.78,0,2.52.62,2.37,2.37-.05.56,0,1.13,0,1.7,0,39.42-.03,78.82.08,118.23,0,3.2-.74,4.3-4.07,4.18-7.36-.26-14.72-.18-22.08-.02-2.34.06-3.21-.87-3.57-2.94-.39-2.22-.95-4.42-1.45-6.62-.14-.65-.06-1.49-.83-1.72-.81-.23-1.09.6-1.48,1.12-12.17,16.21-39.37,14.9-51.58,4.64-6.33-5.32-10.27-12.09-12.21-19.93-3.74-15.02-3.83-30.07,1.06-44.87,4.92-14.87,17.4-23.72,33.05-24.13,10.25-.26,19.45,2.22,27.87,10.01h-.05ZM734.22,508.73c0,2.49-.08,4.98,0,7.46.26,7.18,3.95,12.46,9.7,14.01,9.11,2.46,16.68-1.91,18.8-11.11,1.42-6.12.98-12.38.41-18.56-.23-2.35-1.06-4.61-2.22-6.73-3.03-5.52-8.01-7.77-15.29-6.86-5.32.66-9.18,4.33-10.69,9.98-1.04,3.91-.65,7.86-.71,11.81h0Z"/>
  <path class="cls-2" d="M565.42,549.5c-3.39,0-6.82-.26-10.18.08-3.51.35-4.21-1.1-3.92-4.24,1.25-13.62,5.61-26.01,14.14-36.81,10.9-13.8,24.99-22.44,42.39-25.27,19.98-3.26,37.91,1.76,53.62,14.4,13.34,10.74,21.13,24.82,23.96,41.66.45,2.67.62,5.38.92,8.07.2,1.67-.65,2.14-2.2,2.13-7.93-.05-15.85-.06-23.78,0-1.78,0-2.25-.68-2.4-2.38-1.69-19.01-13.99-32.96-32.93-36.14-24.55-4.12-44.32,14.96-45.27,35.48-.11,2.35-.78,3.17-3.15,3.06-3.72-.17-7.46-.05-11.2-.05v.02h0Z"/>
  <path class="cls-2" d="M423.33,549.5c-3.62,0-7.25-.15-10.87.05-2.52.14-3.42-.6-3.24-3.21.92-13.93,5.4-26.54,13.96-37.58,10.96-14.11,25.32-22.81,42.96-25.6,19.72-3.11,37.58,1.82,53.03,14.35,15.27,12.38,23.6,28.56,24.71,48.34.15,2.73-.47,3.8-3.45,3.71-7.24-.21-14.49-.12-21.74-.03-2.02.03-2.61-.62-2.82-2.67-1.66-16.51-10.15-28.32-25.72-33.91-15.32-5.5-29.4-2.44-41.26,9.18-6.94,6.8-10.78,15-11.2,24.7-.09,2.07-.75,2.76-2.8,2.7-3.85-.12-7.71-.03-11.55-.03h-.01Z"/>
  <path class="cls-1" d="M658.05,581.67c-3.42,10.56-8.25,20.1-14.48,28.92-14.34,20.34-33.29,34.62-56.94,42.49-17.49,5.82-35.45,7.28-53.59,4.04-40.08-7.13-67.87-30.13-84.92-66.68-1.06-2.25-1.69-4.69-2.61-7-.59-1.49-.2-1.85,1.39-2.02,3.51-.35,5.37.51,6.85,4.31,7.89,20.18,21.1,36.34,39.08,48.33,21.1,14.05,44.56,19.96,69.74,17.2,27.05-2.97,49.8-14.81,68-35.24,7.69-8.64,13.63-18.31,18.15-28.89,2.52-5.9,2.44-5.94,9.3-5.47h.03Z"/>
  <path class="cls-2" d="M464.2,443.55c-.5,7.1-3.15,15.2-7.18,22.87-.62,1.18-1.52,2.5-3.18,1.84-1.46-.57-1.24-2.01-1.15-3.24.06-.78.2-1.57.36-2.34,1.61-7.64-.11-11.6-6.92-15.49-3.08-1.75-5.87-3.86-8.1-6.6-3.66-4.49-3.77-9.41-.42-14.37,2.77-4.12,8.17-5.99,13.12-4.55,8.88,2.58,13.53,9.57,13.48,21.88h-.02.01Z"/>
  <path class="cls-1" d="M722.34,625.61c-2.94,0-5.9.12-8.82-.05-2.04-.11-2.29.8-1.88,2.41.56,2.19,1.85,3.57,4.18,3.81,2.43.26,5.13.5,6.23-2.13.81-1.96,1.95-2.07,3.57-1.99,1.36.06,2.71,0,4.07,0,4.12,0,4.67.89,2.86,4.66-1.3,2.68-3.48,4.46-6.26,5.41-5.62,1.91-11.34,2.05-16.98.09-6.32-2.19-9.33-7.13-9.18-14.63.14-7.13,3.45-12.03,9.67-13.99,4.89-1.54,9.86-1.46,14.7.14,6.06,1.99,9.73,8.26,9.03,14.73-.17,1.57-.97,1.49-2.02,1.49h-9.17v.05ZM716.66,620.28c.68,0,1.39.15,2.01-.03,1.1-.33,3.02,1.06,3.24-1.09.2-1.75-1.12-2.93-2.7-3.47-1.87-.63-3.8-.54-5.52.56-1.16.74-2.29,1.85-1.95,3.27.36,1.49,1.9.54,2.9.72.65.12,1.34.03,2.02.03h0Z"/>
  <path class="cls-1" d="M831.68,625.61c-2.94,0-5.9.12-8.84-.05-2.29-.12-2.4.92-1.87,2.64.66,2.19,2.04,3.45,4.36,3.62,2.31.18,4.98.42,5.91-2.08.84-2.28,2.25-2.1,3.94-2.07,1.36.03,2.71,0,4.07,0,3.88,0,4.27.59,2.71,4.27-1.27,3-3.63,4.87-6.65,5.88-5.31,1.78-10.69,1.87-16.03.26-6.76-2.05-9.94-6.98-9.83-14.81.11-7.48,3.53-12.3,10.22-14.2,4.46-1.27,8.97-1.21,13.4.11,6.48,1.91,10.48,8.23,9.77,14.91-.17,1.55-.97,1.51-2.02,1.51h-9.17v.02h.03ZM825.89,620.28c.68,0,1.4.15,2.02-.03,1.13-.35,3.06,1.07,3.32-.98.24-1.85-1.21-3.14-2.94-3.63-1.63-.48-3.33-.44-4.92.41-1.4.74-2.61,1.9-2.32,3.39.32,1.69,2.07.56,3.15.83.53.14,1.12.03,1.69.03v-.02Z"/>
  <path class="cls-1" d="M748.78,613.17c4.06-3.83,8.17-5.56,13.12-4.72,4.12.69,6.89,3.12,7.46,7.24.97,7.09.26,14.23.44,21.35.05,1.54-.97,1.43-2.02,1.51-6.12.39-9.18-2.46-9.18-8.56,0-3.06.02-6.11-.02-9.17-.03-2.46-1.03-4.25-3.75-4.24-2.61.02-4.37,1.4-4.46,4.1-.15,5.08-.2,10.18-.06,15.26.06,2.16-.68,2.61-2.7,2.62-8.63.09-8.63.15-8.63-8.5,0-6.11.12-12.21-.06-18.32-.08-2.46.77-3.29,3.08-2.94.44.06.9.03,1.36,0,2.85-.15,5.88-.59,5.43,4.36v.02h0Z"/>
  <path class="cls-1" d="M690.41,617.72c-2.59-.14-5.22.69-6.82-2.13-.27-.5-1.43-.66-2.19-.69-1.57-.06-3.74-.24-4.07,1.52-.41,2.16,1.91,2.04,3.36,2.37,3.08.71,6.26,1.09,9.26,2.02,4.13,1.28,5.96,3.78,6.12,7.58.2,4.27-1.49,7.27-5.4,8.9-6.47,2.67-12.98,2.62-19.44-.17-1.58-.68-2.93-1.75-3.98-3.09-1.06-1.36-2.14-3.08-1.43-4.61.56-1.22,2.47-.5,3.77-.48,2.85,0,5.81-.86,7.93,2.52,1.06,1.67,3.75,1.13,5.78.77,1.01-.18,2.01-.63,1.96-1.95-.03-1.15-.95-1.52-1.81-1.73-3.41-.8-6.89-1.34-10.24-2.31-5.53-1.58-7.81-5.59-6.47-10.83.68-2.62,2.32-4.42,4.75-5.38,6.12-2.43,12.32-2.59,18.49-.12.62.26,1.22.59,1.79.95,2.11,1.39,3.97,3.45,3.38,5.82-.59,2.38-3.33.32-4.73,1.04h-.01Z"/>
  <path class="cls-1" d="M780.89,628.89c1.67-.08,4.31-.59,5.68,2.53.23.51,1.37.84,2.11.87,2.07.09,5.1.93,5.65-1.54.66-2.9-2.67-2.32-4.37-2.83-2.58-.78-5.34-1.01-7.92-1.81-4.25-1.3-6.41-4.21-6.42-8.14,0-4,2.05-6.97,6.18-8.4,5.4-1.85,10.89-1.91,16.33-.17,1.61.51,3.12,1.34,4.34,2.59,1.31,1.36,2.52,3.14,2.01,4.83-.57,1.91-2.74.75-4.18.81-2.67.11-5.59.86-7.55-2.1-.36-.54-1.67-.66-2.53-.65-1.4.05-3.39-.17-3.63,1.64-.27,2.05,1.85,1.9,3.17,2.22,3.08.72,6.26,1.09,9.27,1.99,4.24,1.27,6.21,3.89,6.39,7.78.21,4.12-1.81,7.45-5.88,8.99-6.27,2.37-12.61,2.41-18.82-.33-2.32-1.03-4.22-2.56-5.25-5.02-.97-2.31-.83-3.72,2.22-3.29.77.11,1.58.02,3.21.02h-.02.01Z"/>
  <path class="cls-2" d="M430.18,446.09c5.11-.14,8.43,2.56,11.38,5.78,3.09,3.36,5.23,7.34,7.18,11.44.63,1.34.54,2.41-.59,3.3-1.37,1.09-2.44.2-3.14-.86-3.42-5.26-7.84-4.81-13.03-2.91-7.37,2.7-13.39-1.73-12.58-8.87.51-4.43,5.47-7.96,10.78-7.9l-.02.02h.02Z"/>
</svg>