<svg width="72" height="72" viewBox="0 0 72 72" fill="none" xmlns="http://www.w3.org/2000/svg">
<path fill-rule="evenodd" clip-rule="evenodd" d="M52.7738 47.9555C56.2173 35.0939 48.031 21.7672 34.5445 18.1533C19.3967 14.0921 -2.07375 24.6249 2.4312 37.3623C3.79085 41.2105 6.4569 42.1229 11.9523 42.201L12.3357 42.2081C16.2407 42.2542 17.5578 42.5631 18.2926 43.7559C19.0523 44.9913 19.0594 46.4397 18.4843 50.1033C18.2465 51.6014 18.1719 52.1232 18.0832 52.922C17.5684 57.537 18.321 60.9947 21.2427 64.14C30.4159 74.0232 48.8901 62.4395 52.7738 47.9555ZM5.7753 36.1802C2.5519 27.0567 20.7457 18.132 33.6251 21.5826C45.2584 24.6995 52.2696 36.1127 49.3445 47.0361C46.0643 59.2694 30.5756 68.9822 23.8448 61.7331C21.7361 59.4611 21.2001 57.0009 21.6083 53.3196C21.6935 52.5918 21.7645 52.0984 21.9917 50.6571C22.7017 46.1308 22.6911 44.1393 21.3172 41.8992C19.6665 39.2154 17.5578 38.7255 12.3819 38.6616L12.002 38.6545C7.88755 38.5977 6.4569 38.1078 5.7753 36.1802Z" fill="#004273"/>
<path d="M17.3625 34.3448C16.1856 34.3448 15.0569 33.8772 14.2247 33.045C13.3925 32.2129 12.925 31.0842 12.925 29.9073C12.925 28.7304 13.3925 27.6017 14.2247 26.7695C15.0569 25.9373 16.1856 25.4698 17.3625 25.4698C18.5394 25.4698 19.6681 25.9373 20.5003 26.7695C21.3325 27.6017 21.8 28.7304 21.8 29.9073C21.8 31.0842 21.3325 32.2129 20.5003 33.045C19.6681 33.8772 18.5394 34.3448 17.3625 34.3448ZM31.5625 34.3448C30.3856 34.3448 29.2569 33.8772 28.4247 33.045C27.5925 32.2129 27.125 31.0842 27.125 29.9073C27.125 28.7304 27.5925 27.6017 28.4247 26.7695C29.2569 25.9373 30.3856 25.4698 31.5625 25.4698C32.7394 25.4698 33.8681 25.9373 34.7003 26.7695C35.5325 27.6017 36 28.7304 36 29.9073C36 31.0842 35.5325 32.2129 34.7003 33.045C33.8681 33.8772 32.7394 34.3448 31.5625 34.3448ZM40.4375 44.9948C39.2606 44.9948 38.1319 44.5272 37.2997 43.695C36.4675 42.8629 36 41.7342 36 40.5573C36 39.3804 36.4675 38.2517 37.2997 37.4195C38.1319 36.5873 39.2606 36.1198 40.4375 36.1198C41.6144 36.1198 42.7431 36.5873 43.5753 37.4195C44.4075 38.2517 44.875 39.3804 44.875 40.5573C44.875 41.7342 44.4075 42.8629 43.5753 43.695C42.7431 44.5272 41.6144 44.9948 40.4375 44.9948ZM35.1125 57.4198C33.9356 57.4198 32.8069 56.9522 31.9747 56.12C31.1425 55.2879 30.675 54.1592 30.675 52.9823C30.675 51.8054 31.1425 50.6767 31.9747 49.8445C32.8069 49.0123 33.9356 48.5448 35.1125 48.5448C36.2894 48.5448 37.4181 49.0123 38.2503 49.8445C39.0825 50.6767 39.55 51.8054 39.55 52.9823C39.55 54.1592 39.0825 55.2879 38.2503 56.12C37.4181 56.9522 36.2894 57.4198 35.1125 57.4198ZM47.9635 13.4175C48.3844 13.192 48.8465 13.0537 49.3221 13.011C49.7978 12.9682 50.2771 13.0218 50.7315 13.1687C51.1859 13.3155 51.606 13.5525 51.9667 13.8655C52.3274 14.1784 52.6212 14.561 52.8306 14.9902L67.3607 44.8102C67.6033 45.3462 67.6327 45.9545 67.4428 46.5113C67.253 47.0682 66.8582 47.5319 66.3388 47.8082C65.8193 48.0844 65.2141 48.1525 64.6463 47.9985C64.0784 47.8445 63.5905 47.48 63.2817 46.9792L46.5684 18.3307C46.3281 17.9186 46.1735 17.4622 46.114 16.9889C46.0544 16.5156 46.091 16.0351 46.2216 15.5763C46.3522 15.1175 46.5741 14.6898 46.8741 14.3188C47.174 13.9479 47.5458 13.6413 47.9671 13.4175" fill="#004273"/>
<path fill-rule="evenodd" clip-rule="evenodd" d="M41.4599 12.988C43.1852 16.2363 46.0927 17.1451 48.9043 15.6505C51.7123 14.1595 52.5892 11.2379 50.8603 7.98961C48.8865 4.26921 44.6549 0.896714 41.8504 2.38416C39.0459 3.87516 39.479 9.26761 41.4599 12.988ZM44.591 11.3195C43.9624 10.0573 43.577 8.68798 43.455 7.28316C43.4022 6.69588 43.4236 6.10428 43.5189 5.52236L43.5828 5.55431C43.7603 5.63951 44.3106 5.89511 45.0135 6.45601C46.0856 7.31156 47.1506 8.57181 47.7257 9.65456C48.5386 11.1811 48.3079 11.9479 47.2358 12.5194C46.1708 13.0874 45.404 12.846 44.591 11.3231" fill="#004273"/>
</svg>
