<svg width="72" height="72" viewBox="0 0 72 72" fill="none" xmlns="http://www.w3.org/2000/svg">
<path d="M22.2021 3.53967C22.0219 3.53967 21.8555 3.53967 21.6752 3.55354C19.3455 3.6728 16.7246 4.61299 14.3256 6.12174C10.4677 8.53741 7.33375 12.355 6.75271 15.5043C4.74197 26.4178 8.04514 35.7781 12.968 44.6254C19.4842 45.0969 25.5719 44.459 31.41 43.0723C30.9662 41.0754 30.6195 38.3713 30.8969 35.9306C31.0355 34.7103 31.3129 33.5455 31.9369 32.5471C32.5471 31.5625 33.601 30.7582 34.9045 30.6056C35.7088 30.5086 36.4715 30.6473 37.1787 30.9246C37.4838 29.843 37.775 28.7336 38.0107 27.6519C38.399 25.8769 38.7041 23.3254 38.4822 21.3424C38.3713 20.3578 38.1217 19.5258 37.8027 19.0127C37.4838 18.4996 37.2064 18.2916 36.6656 18.2223C35.9307 18.139 35.1264 18.4996 34.225 19.3316C33.3375 20.1775 32.4361 21.4256 31.6734 22.743C30.1758 25.35 29.2189 28.068 29.2189 28.068L26.8477 27.3746C26.8477 27.3746 28.1373 22.2576 28.5395 16.7523C28.7336 13.9831 28.7059 11.1292 28.2205 8.84526C27.7352 6.56133 26.8338 4.96938 25.4887 4.27047C24.518 3.77264 23.4086 3.54106 22.2021 3.53967ZM49.7285 18.3193C48.5221 18.3193 47.3988 18.5551 46.4281 19.0543C45.0691 19.7615 44.1678 21.3562 43.6824 23.6443C43.1971 25.9463 43.1693 28.8029 43.3635 31.5764C43.7656 37.1232 45.0691 42.2541 45.0691 42.2541L42.684 42.9613C42.684 42.9613 41.7271 40.2295 40.2156 37.6086C39.4529 36.2912 38.5516 35.0293 37.6502 34.1834C36.7488 33.3514 35.9445 32.9908 35.2096 33.074C34.6549 33.1433 34.3775 33.3514 34.0586 33.8644C33.7396 34.3775 33.49 35.2096 33.3791 36.208C33.1572 38.191 33.4623 40.7564 33.8506 42.5453C35.3066 49.1599 38.4406 56.3015 39.0508 57.6605C45.3465 59.3107 51.9334 60.1012 59.0057 59.5881C63.9562 50.6992 67.2566 41.2973 65.2459 30.3422C64.6635 27.1805 61.5156 23.3531 57.6467 20.9264C55.2338 19.401 52.599 18.458 50.2555 18.3332C50.0752 18.3193 49.9088 18.3193 49.7285 18.3193ZM32.0062 45.499C31.2436 45.6793 30.4947 45.8318 29.732 45.9982L30.8969 52.2385C31.9092 52.0721 32.9353 51.8779 33.9477 51.6699C33.2682 49.7562 32.5748 47.6346 32.0062 45.499ZM27.2914 46.442C26.0711 46.65 24.8369 46.8164 23.5889 46.9412L24.6428 53.0705C25.9186 52.9457 27.1943 52.7931 28.4424 52.6129L27.2914 46.442ZM13.2065 47.1492L13.2578 53.5974C14.1675 53.5974 15.0605 53.5836 15.9619 53.5558L15.6152 47.2601C14.8109 47.2324 14.0136 47.2047 13.2065 47.1492ZM21.0789 47.1492C20.1082 47.2185 19.1098 47.2463 18.0975 47.274L18.4441 53.4726C19.7061 53.431 20.9264 53.3617 22.1605 53.2785L21.0789 47.1492ZM39.0092 60.2398L37.4561 66.4246C38.6348 66.6742 39.7996 66.8961 40.9506 67.0902L42.1016 60.9471C41.0615 60.739 40.0354 60.5033 39.0092 60.2398ZM44.5422 61.4047L43.4051 67.4646C44.667 67.6449 45.9428 67.7974 47.2047 67.9222L48.2447 61.9039C46.9967 61.7652 45.7625 61.5988 44.5422 61.4047ZM50.7408 62.1258L49.7008 68.1303C50.9211 68.2273 52.1553 68.2967 53.4033 68.3383L53.7361 62.2367C52.7377 62.2228 51.7393 62.1812 50.7408 62.1258ZM58.659 62.1258C57.8408 62.1812 57.0365 62.2228 56.2322 62.2367L55.8994 68.4215C56.7869 68.4492 57.6883 68.4631 58.6035 68.4631L58.659 62.1258Z" fill="#004273"/>
</svg>
