<?xml version="1.0" encoding="UTF-8"?>
<svg id="svg35" xmlns="http://www.w3.org/2000/svg" viewBox="0 0 506.25 487.5">
  <defs>
    <style>
      .cls-1 {
        fill: #fff;
        fill-rule: evenodd;
        stroke-width: 0px;
      }
    </style>
  </defs>
  <path id="path4" class="cls-1" d="M243.76,135c0-17.6-14.28-31.87-31.88-31.87H31.88c-17.6,0-31.88,14.28-31.88,31.87v180c0,17.6,14.28,31.87,31.88,31.87h180c17.6,0,31.88-14.28,31.88-31.87v-180ZM225,135v180c0,7.25-5.87,13.13-13.12,13.13H31.88c-7.25,0-13.12-5.88-13.12-13.13v-180c0-7.25,5.87-13.13,13.12-13.13h180c7.25,0,13.12,5.88,13.12,13.13h0Z"/>
  <path id="path8" class="cls-1" d="M65.63,178.13h112.5c5.18,0,9.37-4.2,9.37-9.38s-4.2-9.38-9.37-9.38h-112.5c-5.18,0-9.37,4.2-9.37,9.38s4.2,9.38,9.37,9.38Z"/>
  <path id="path12" class="cls-1" d="M112.51,168.75v112.5c0,5.18,4.2,9.37,9.38,9.37s9.38-4.2,9.38-9.37v-112.5h-18.75Z"/>
  <path id="path16" class="cls-1" d="M431.26,56.25c-31.05,0-56.25,25.2-56.25,56.25s25.21,56.25,56.25,56.25,56.25-25.2,56.25-56.25-25.21-56.25-56.25-56.25ZM431.26,75c20.7,0,37.5,16.8,37.5,37.5s-16.8,37.5-37.5,37.5-37.5-16.8-37.5-37.5,16.8-37.5,37.5-37.5Z"/>
  <path id="path20" class="cls-1" d="M356.25,196.88c0-5.18,4.2-9.38,9.38-9.38h131.25c5.18,0,9.38,4.2,9.38,9.38v103.13c0,41.39-33.61,75-75,75-22.39,0-42.5-9.83-56.25-25.42v-49.58c0,31.04,25.21,56.25,56.25,56.25s56.25-25.21,56.25-56.25v-93.75h-112.5l-18.75-9.38Z"/>
  <path id="path24" class="cls-1" d="M234.37,187.5h140.63c5.18,0,9.38,4.2,9.38,9.38v168.75c0,67.27-54.61,121.88-121.88,121.88s-121.88-54.61-121.88-121.88v-28.13h18.75v28.13c0,56.92,46.21,103.13,103.13,103.13s103.13-46.21,103.13-103.13v-159.38h-131.25v-18.75Z"/>
  <path id="path28" class="cls-1" d="M182.93,112.5c-3.11-8.8-4.81-18.26-4.81-28.13C178.12,37.81,215.93,0,262.5,0s84.38,37.81,84.38,84.38-37.81,84.38-84.38,84.38c-9.86,0-19.32-1.7-28.13-4.81v-20.27c8.53,4.06,18.07,6.33,28.13,6.33,36.22,0,65.63-29.41,65.63-65.63s-29.41-65.63-65.63-65.63-65.63,29.41-65.63,65.63c0,10.06,2.27,19.59,6.33,28.13h-20.27Z"/>
</svg>