<?xml version="1.0" encoding="UTF-8"?>
<svg id="Calque_1" data-name="Calque 1" xmlns="http://www.w3.org/2000/svg" viewBox="0 0 956.91 347.17">
  <defs>
    <style>
      .cls-1 {
        fill: #064058;
        stroke-width: 0px;
      }
    </style>
  </defs>
  <path class="cls-1" d="M.26,0l-.26,266.3s43.91,24.26,90.89,25.53c1.02.26,48.51,5.62,86.04-12.26.77,0,40.6-25.02,57.19-24.51,1.02.77,32.17-4.09,49.28,8.17,1.02.77,208.85,78.89,255.83,82.47.51,0,73.53,7.91,128.43-13.02.77-.26,147.57-47.74,147.57-47.74,0,0,42.64-13.28,49.28-13.28,1.02.51,76.34-8.17,92.17-1.02.51,0,0-270.64,0-270.64H.26Z"/>
</svg>